<?xml version="1.0" encoding="UTF-8" standalone="no"?>
<!-- Created with Inkscape (http://www.inkscape.org/) -->
<svg
   xmlns:dc="http://purl.org/dc/elements/1.1/"
   xmlns:cc="http://web.resource.org/cc/"
   xmlns:rdf="http://www.w3.org/1999/02/22-rdf-syntax-ns#"
   xmlns:svg="http://www.w3.org/2000/svg"
   xmlns="http://www.w3.org/2000/svg"
   xmlns:xlink="http://www.w3.org/1999/xlink"
   xmlns:sodipodi="http://inkscape.sourceforge.net/DTD/sodipodi-0.dtd"
   xmlns:inkscape="http://www.inkscape.org/namespaces/inkscape"
   id="svg2"
   height="190.00000"
   preserveAspectRatio="xMinYMin meet"
   viewBox="0 0 140 190"
   y="0.0000000"
   x="0.0000000"
   version="1.0"
   sodipodi:version="0.32"
   inkscape:version="0.41+cvs"
   sodipodi:docname="white_c_10.svg"
   sodipodi:docbase="/home/nicu/Desktop/card_nicu_buculei_01.zip_FILES/cards/white">
  <sodipodi:namedview
     id="base"
     pagecolor="#ffffff"
     bordercolor="#666666"
     borderopacity="1.0"
     inkscape:pageopacity="0.0"
     inkscape:pageshadow="2"
     inkscape:window-width="1152"
     inkscape:window-height="791"
     inkscape:zoom="1.0000000"
     inkscape:cx="70.000000"
     inkscape:cy="95.000000"
     inkscape:window-x="0"
     inkscape:window-y="26"
     inkscape:current-layer="svg2" />
  <defs
     id="defs3">
    <linearGradient
       id="linearGradient2060">
      <stop
         id="stop2062"
         offset="0.0000000"
         style="stop-color:#ebf0d0;stop-opacity:1.0000000;" />
      <stop
         id="stop2064"
         offset="1.0000000"
         style="stop-color:#ffffeb;stop-opacity:1.0000000;" />
    </linearGradient>
    <linearGradient
       gradientTransform="translate(0.000000,-1.000000)"
       gradientUnits="userSpaceOnUse"
       xlink:href="#linearGradient2060"
       id="linearGradient4853"
       y2="128.69501"
       x2="109.00000"
       y1="63.099518"
       x1="2.0000000" />
  </defs>
  <g
     inkscape:label="Layer 1"
     inkscape:groupmode="layer"
     id="layer1">
    <g
       id="g5630">
      <path
         style="fill:#ffffff;fill-opacity:1.0000000;stroke:black;stroke-width:0.70000000;stroke-miterlimit:4.0000000;stroke-dashoffset:0.0000000;stroke-opacity:1.0000000"
         d="M 18.000000,1.9999995 L 121.00000,1.9999995 C 129.86400,1.9999995 137.00000,9.1359995 137.00000,18.000000 L 137.00000,171.00000 C 137.00000,179.86400 129.86400,187.00000 121.00000,187.00000 L 18.000000,187.00000 C 9.1360000,187.00000 2.0000000,179.86400 2.0000000,171.00000 L 2.0000000,18.000000 C 2.0000000,9.1359995 9.1360000,1.9999995 18.000000,1.9999995 z "
         id="rect1306" />
    </g>
    <g
       transform="translate(-448.5000,-231.5000)"
       id="g5495"
       inkscape:groupmode="layer"
       inkscape:label="Layer 1" />
  </g>
  <path
     sodipodi:nodetypes="cscsssccccccssscsc"
     id="path908"
     style="fill:#000000;fill-opacity:1.0000000;fill-rule:evenodd;stroke:none;stroke-width:1.0000000pt;stroke-linecap:butt;stroke-linejoin:miter;stroke-opacity:1.0000000"
     d="M 20.527261,48.670000 C 17.860877,48.670000 15.697394,51.933523 15.697394,55.955664 C 15.697394,59.382240 20.089490,65.147330 19.918919,67.885240 C 18.508668,68.667660 14.151660,61.447720 11.899866,61.447720 C 9.2334820,61.447720 7.0700000,64.711240 7.0700000,68.733380 C 7.0700000,72.755530 9.2334820,76.019050 11.899866,76.019050 C 14.212394,76.019050 18.175527,68.805060 19.918919,69.456390 L 16.990005,82.330000 L 24.013589,82.288290 C 24.013589,82.288290 20.936644,69.807100 20.932822,69.512000 L 20.988126,69.512000 L 20.988126,69.525910 C 22.695429,68.886200 26.793987,76.158080 29.090134,76.158090 C 31.756521,76.158090 33.920003,72.894570 33.920000,68.872420 C 33.920000,64.850280 31.756521,61.586760 29.090134,61.586760 C 26.847510,61.586760 22.782426,68.687290 20.997343,67.954760 C 21.022420,65.149330 25.357127,59.378473 25.357127,55.955664 C 25.357127,51.933523 23.193647,48.670000 20.527261,48.670000 z " />
  <path
     id="path2229"
     style="font-size:37.418476;font-style:normal;font-variant:normal;font-weight:bold;font-stretch:normal;fill:#000000;fill-opacity:1.0000000;stroke:none;stroke-width:1.0000000px;stroke-linecap:butt;stroke-linejoin:miter;stroke-opacity:1.0000000;font-family:Bitstream Vera Sans;text-anchor:start;writing-mode:lr-tb"
     d="M 11.677030,42.368220 L 11.677030,18.778130 L 6.4400000,18.709360 L 6.6925800,15.086640 L 11.647010,11.998110 L 17.139230,11.998110 L 17.139230,42.368220 M 30.572790,27.146430 C 30.572770,23.395650 30.307580,20.756690 29.777370,19.229560 C 29.257180,17.689070 28.376870,16.918820 27.136330,16.918790 C 25.895860,16.918820 25.010530,17.689070 24.480300,19.229560 C 23.950130,20.756690 23.685010,23.395650 23.685020,27.146430 C 23.685010,30.937430 23.950130,33.609860 24.480300,35.163760 C 25.010530,36.717670 25.895860,37.494620 27.136330,37.494620 C 28.366840,37.494620 29.247200,36.717670 29.777370,35.163760 C 30.307580,33.609860 30.572770,30.937430 30.572790,27.146430 M 36.350000,27.206710 C 36.349970,32.176530 35.549700,36.014400 33.949060,38.720320 C 32.348460,41.412860 30.077490,42.759130 27.136330,42.759130 C 24.185190,42.759130 21.909330,41.412860 20.308700,38.720320 C 18.708070,36.014400 17.907820,32.176530 17.907820,27.206710 C 17.907820,22.223510 18.708070,18.385650 20.308700,15.693090 C 21.909330,12.987180 24.185190,11.634210 27.136330,11.634190 C 30.077490,11.634210 32.348460,12.987180 33.949060,15.693090 C 35.549700,18.385650 36.349970,22.223510 36.350000,27.206710" />
  <path
     sodipodi:nodetypes="cscsssccccccssscsc"
     id="path4295"
     style="fill:#000000;fill-opacity:1.0000000;fill-rule:evenodd;stroke:none;stroke-width:1.0000000pt;stroke-linecap:butt;stroke-linejoin:miter;stroke-opacity:1.0000000"
     d="M 117.41824,139.96000 C 120.08462,139.96000 122.24811,136.69648 122.24811,132.67434 C 122.24811,129.24776 117.85601,123.48267 118.02658,120.74476 C 119.43683,119.96234 123.79384,127.18228 126.04563,127.18228 C 128.71202,127.18228 130.87550,123.91876 130.87550,119.89662 C 130.87550,115.87447 128.71202,112.61095 126.04563,112.61095 C 123.73311,112.61095 119.76997,119.82494 118.02658,119.17361 L 120.95550,106.30000 L 113.93191,106.34171 C 113.93191,106.34171 117.00886,118.82290 117.01268,119.11800 L 116.95737,119.11800 L 116.95737,119.10409 C 115.25007,119.74380 111.15151,112.47192 108.85537,112.47191 C 106.18898,112.47191 104.02550,115.73543 104.02550,119.75758 C 104.02550,123.77972 106.18898,127.04324 108.85537,127.04324 C 111.09799,127.04324 115.16307,119.94271 116.94816,120.67524 C 116.92308,123.48067 112.58837,129.25153 112.58837,132.67434 C 112.58837,136.69648 114.75185,139.96000 117.41824,139.96000 z " />
  <path
     id="path4297"
     style="font-size:37.418476;font-style:normal;font-variant:normal;font-weight:bold;font-stretch:normal;fill:#000000;fill-opacity:1.0000000;stroke:none;stroke-width:1.0000000px;stroke-linecap:butt;stroke-linejoin:miter;stroke-opacity:1.0000000;font-family:Bitstream Vera Sans;text-anchor:start;writing-mode:lr-tb"
     d="M 126.26847,146.26598 L 126.26847,169.85607 L 131.50550,169.92484 L 131.25292,173.54756 L 126.29849,176.63609 L 120.80627,176.63609 L 120.80627,146.26598 M 107.37271,161.48777 C 107.37273,165.23855 107.63792,167.87751 108.16813,169.40464 C 108.68832,170.94513 109.56863,171.71538 110.80917,171.71541 C 112.04964,171.71538 112.93497,170.94513 113.46520,169.40464 C 113.99537,167.87751 114.26049,165.23855 114.26048,161.48777 C 114.26049,157.69677 113.99537,155.02434 113.46520,153.47044 C 112.93497,151.91653 112.04964,151.13958 110.80917,151.13958 C 109.57866,151.13958 108.69830,151.91653 108.16813,153.47044 C 107.63792,155.02434 107.37273,157.69677 107.37271,161.48777 M 101.59550,161.42749 C 101.59553,156.45767 102.39580,152.61980 103.99644,149.91388 C 105.59704,147.22134 107.86801,145.87507 110.80917,145.87507 C 113.76031,145.87507 116.03617,147.22134 117.63680,149.91388 C 119.23743,152.61980 120.03768,156.45767 120.03768,161.42749 C 120.03768,166.41069 119.23743,170.24855 117.63680,172.94111 C 116.03617,175.64702 113.76031,176.99999 110.80917,177.00001 C 107.86801,176.99999 105.59704,175.64702 103.99644,172.94111 C 102.39580,170.24855 101.59553,166.41069 101.59550,161.42749" />
  <path
     sodipodi:nodetypes="cscsssccccccssscsc"
     id="path2242"
     style="fill:#000000;fill-opacity:1.0000000;fill-rule:evenodd;stroke:none;stroke-width:1.0000000pt;stroke-linecap:butt;stroke-linejoin:miter;stroke-opacity:1.0000000"
     d="M 49.198792,36.000000 C 47.645636,36.000000 46.385417,37.917780 46.385417,40.281356 C 46.385417,42.294953 48.943792,45.682757 48.844435,47.291665 C 48.022971,47.751447 45.485034,43.508714 44.173374,43.508714 C 42.620218,43.508714 41.360000,45.426492 41.360000,47.790067 C 41.360000,50.153648 42.620218,52.071426 44.173374,52.071426 C 45.520411,52.071426 47.828918,47.832189 48.844435,48.214937 L 47.138357,55.780000 L 51.229562,55.755489 C 51.229562,55.755489 49.437256,48.421029 49.435029,48.247616 L 49.467244,48.247616 L 49.467244,48.255790 C 50.461740,47.879870 52.849131,52.153126 54.186626,52.153132 C 55.739784,52.153132 57.000002,50.235353 57.000000,47.871773 C 57.000000,45.508198 55.739784,43.590419 54.186626,43.590419 C 52.880308,43.590419 50.512415,47.762983 49.472612,47.332518 C 49.487220,45.683932 52.012166,42.292739 52.012166,40.281356 C 52.012166,37.917780 50.751949,36.000000 49.198792,36.000000 z " />
  <path
     sodipodi:nodetypes="cscsssccccccssscsc"
     id="path2250"
     style="fill:#000000;fill-opacity:1.0000000;fill-rule:evenodd;stroke:none;stroke-width:1.0000000pt;stroke-linecap:butt;stroke-linejoin:miter;stroke-opacity:1.0000000"
     d="M 68.838790,50.220000 C 67.285640,50.220000 66.025420,52.137780 66.025420,54.501356 C 66.025420,56.514953 68.583790,59.902757 68.484440,61.511665 C 67.662970,61.971447 65.125040,57.728714 63.813380,57.728714 C 62.260220,57.728714 61.000000,59.646492 61.000000,62.010067 C 61.000000,64.373648 62.260220,66.291426 63.813380,66.291426 C 65.160410,66.291426 67.468920,62.052189 68.484440,62.434937 L 66.778360,70.000000 L 70.869560,69.975489 C 70.869560,69.975489 69.077260,62.641029 69.075030,62.467616 L 69.107250,62.467616 L 69.107250,62.475790 C 70.101740,62.099870 72.489130,66.373126 73.826630,66.373132 C 75.379790,66.373132 76.640000,64.455353 76.640000,62.091773 C 76.640000,59.728198 75.379790,57.810419 73.826630,57.810419 C 72.520310,57.810419 70.152420,61.982983 69.112610,61.552518 C 69.127220,59.903932 71.652170,56.512739 71.652170,54.501356 C 71.652170,52.137780 70.391950,50.220000 68.838790,50.220000 z " />
  <path
     sodipodi:nodetypes="cscsssccccccssscsc"
     id="path2248"
     style="fill:#000000;fill-opacity:1.0000000;fill-rule:evenodd;stroke:none;stroke-width:1.0000000pt;stroke-linecap:butt;stroke-linejoin:miter;stroke-opacity:1.0000000"
     d="M 90.198800,36.220003 C 88.645640,36.220003 87.385420,38.137783 87.385420,40.501359 C 87.385420,42.514956 89.943800,45.902760 89.844440,47.511668 C 89.022980,47.971450 86.485040,43.728717 85.173380,43.728717 C 83.620220,43.728717 82.360000,45.646495 82.360000,48.010070 C 82.360000,50.373650 83.620220,52.291430 85.173380,52.291430 C 86.520420,52.291430 88.828920,48.052192 89.844440,48.434940 L 88.138360,56.000000 L 92.229570,55.975490 C 92.229570,55.975490 90.437260,48.641030 90.435030,48.467620 L 90.467250,48.467620 L 90.467250,48.475790 C 91.461740,48.099873 93.849140,52.373130 95.186630,52.373140 C 96.739790,52.373140 98.000010,50.455360 98.000000,48.091776 C 98.000000,45.728201 96.739790,43.810422 95.186630,43.810422 C 93.880310,43.810422 91.512420,47.982986 90.472620,47.552521 C 90.487220,45.903935 93.012170,42.512742 93.012170,40.501359 C 93.012170,38.137783 91.751950,36.220003 90.198800,36.220003 z " />
  <path
     sodipodi:nodetypes="cscsssccccccssscsc"
     id="path2254"
     style="fill:#000000;fill-opacity:1.0000000;fill-rule:evenodd;stroke:none;stroke-width:1.0000000pt;stroke-linecap:butt;stroke-linejoin:miter;stroke-opacity:1.0000000"
     d="M 48.838790,71.219997 C 47.285640,71.219997 46.025420,73.137777 46.025420,75.501353 C 46.025420,77.514950 48.583790,80.902750 48.484440,82.511660 C 47.662970,82.971440 45.125040,78.728711 43.813380,78.728711 C 42.260220,78.728711 41.000000,80.646490 41.000000,83.010060 C 41.000000,85.373640 42.260220,87.291420 43.813380,87.291420 C 45.160410,87.291420 47.468920,83.052190 48.484440,83.434930 L 46.778360,91.000000 L 50.869560,90.975490 C 50.869560,90.975490 49.077260,83.641030 49.075030,83.467610 L 49.107250,83.467610 L 49.107250,83.475790 C 50.101740,83.099870 52.489130,87.373120 53.826630,87.373130 C 55.379790,87.373130 56.640000,85.455350 56.640000,83.091770 C 56.640000,80.728190 55.379790,78.810416 53.826630,78.810416 C 52.520310,78.810416 50.152420,82.982980 49.112610,82.552510 C 49.127220,80.903930 51.652170,77.512736 51.652170,75.501353 C 51.652170,73.137777 50.391950,71.219997 48.838790,71.219997 z " />
  <path
     sodipodi:nodetypes="cscsssccccccssscsc"
     id="path2252"
     style="fill:#000000;fill-opacity:1.0000000;fill-rule:evenodd;stroke:none;stroke-width:1.0000000pt;stroke-linecap:butt;stroke-linejoin:miter;stroke-opacity:1.0000000"
     d="M 88.198790,70.000000 C 86.645630,70.000000 85.385410,71.917780 85.385410,74.281356 C 85.385410,76.294953 87.943790,79.682757 87.844430,81.291665 C 87.022970,81.751447 84.485030,77.508714 83.173370,77.508714 C 81.620210,77.508714 80.360000,79.426492 80.360000,81.790067 C 80.360000,84.153648 81.620210,86.071426 83.173370,86.071426 C 84.520410,86.071426 86.828910,81.832189 87.844430,82.214937 L 86.138350,89.779995 L 90.229560,89.755485 C 90.229560,89.755485 88.437250,82.421029 88.435030,82.247616 L 88.467240,82.247616 L 88.467240,82.255790 C 89.461740,81.879870 91.849130,86.153126 93.186620,86.153132 C 94.739780,86.153132 96.000000,84.235353 96.000000,81.871773 C 96.000000,79.508198 94.739780,77.590419 93.186620,77.590419 C 91.880300,77.590419 89.512410,81.762983 88.472610,81.332518 C 88.487220,79.683932 91.012160,76.292739 91.012160,74.281356 C 91.012160,71.917780 89.751950,70.000000 88.198790,70.000000 z " />
  <path
     sodipodi:nodetypes="cscsssccccccssscsc"
     id="path2258"
     style="fill:#000000;fill-opacity:1.0000000;fill-rule:evenodd;stroke:none;stroke-width:1.0000000pt;stroke-linecap:butt;stroke-linejoin:miter;stroke-opacity:1.0000000"
     d="M 48.161210,119.00000 C 49.714360,119.00000 50.974580,117.08222 50.974580,114.71864 C 50.974580,112.70505 48.416210,109.31724 48.515560,107.70834 C 49.337030,107.24855 51.874970,111.49129 53.186630,111.49129 C 54.739780,111.49129 56.000000,109.57351 56.000000,107.20993 C 56.000000,104.84635 54.739780,102.92857 53.186630,102.92857 C 51.839590,102.92857 49.531080,107.16781 48.515560,106.78506 L 50.221640,99.220000 L 46.130440,99.244510 C 46.130440,99.244510 47.922740,106.57897 47.924970,106.75238 L 47.892760,106.75238 L 47.892760,106.74421 C 46.898260,107.12013 44.510870,102.84687 43.173370,102.84687 C 41.620220,102.84687 40.360000,104.76465 40.360000,107.12823 C 40.360000,109.49180 41.620220,111.40958 43.173370,111.40958 C 44.479690,111.40958 46.847580,107.23702 47.887390,107.66748 C 47.872780,109.31607 45.347830,112.70726 45.347830,114.71864 C 45.347830,117.08222 46.608050,119.00000 48.161210,119.00000 z " />
  <path
     sodipodi:nodetypes="cscsssccccccssscsc"
     id="path2256"
     style="fill:#000000;fill-opacity:1.0000000;fill-rule:evenodd;stroke:none;stroke-width:1.0000000pt;stroke-linecap:butt;stroke-linejoin:miter;stroke-opacity:1.0000000"
     d="M 89.801210,119.78000 C 91.354360,119.78000 92.614580,117.86222 92.614580,115.49864 C 92.614580,113.48505 90.056210,110.09724 90.155560,108.48833 C 90.977030,108.02855 93.514970,112.27128 94.826630,112.27128 C 96.379780,112.27128 97.640000,110.35351 97.640000,107.98993 C 97.640000,105.62635 96.379780,103.70857 94.826630,103.70857 C 93.479590,103.70857 91.171080,107.94781 90.155560,107.56506 L 91.861640,100.00000 L 87.770440,100.02451 C 87.770440,100.02451 89.562740,107.35897 89.564970,107.53238 L 89.532760,107.53238 L 89.532760,107.52421 C 88.538260,107.90013 86.150870,103.62687 84.813370,103.62687 C 83.260220,103.62687 82.000000,105.54465 82.000000,107.90823 C 82.000000,110.27180 83.260220,112.18958 84.813370,112.18958 C 86.119690,112.18958 88.487580,108.01702 89.527390,108.44748 C 89.512780,110.09607 86.987830,113.48726 86.987830,115.49864 C 86.987830,117.86222 88.248050,119.78000 89.801210,119.78000 z " />
  <path
     sodipodi:nodetypes="cscsssccccccssscsc"
     id="path2262"
     style="fill:#000000;fill-opacity:1.0000000;fill-rule:evenodd;stroke:none;stroke-width:1.0000000pt;stroke-linecap:butt;stroke-linejoin:miter;stroke-opacity:1.0000000"
     d="M 68.801210,137.00000 C 70.354370,137.00000 71.614590,135.08222 71.614590,132.71865 C 71.614590,130.70505 69.056210,127.31725 69.155570,125.70834 C 69.977030,125.24856 72.514970,129.49129 73.826630,129.49129 C 75.379790,129.49129 76.640000,127.57351 76.640000,125.20994 C 76.640000,122.84635 75.379790,120.92858 73.826630,120.92858 C 72.479590,120.92858 70.171090,125.16781 69.155570,124.78507 L 70.861650,117.22000 L 66.770440,117.24451 C 66.770440,117.24451 68.562750,124.57897 68.564980,124.75239 L 68.532760,124.75239 L 68.532760,124.74421 C 67.538260,125.12013 65.150870,120.84688 63.813380,120.84687 C 62.260220,120.84687 61.000000,122.76465 61.000000,125.12823 C 61.000000,127.49180 62.260220,129.40958 63.813380,129.40958 C 65.119700,129.40958 67.487590,125.23702 68.527390,125.66748 C 68.512780,127.31607 65.987840,130.70726 65.987840,132.71865 C 65.987840,135.08222 67.248060,137.00000 68.801210,137.00000 z " />
  <path
     sodipodi:nodetypes="cscsssccccccssscsc"
     id="path2264"
     style="fill:#000000;fill-opacity:1.0000000;fill-rule:evenodd;stroke:none;stroke-width:1.0000000pt;stroke-linecap:butt;stroke-linejoin:miter;stroke-opacity:1.0000000"
     d="M 90.161210,149.78000 C 91.714360,149.78000 92.974580,147.86222 92.974580,145.49864 C 92.974580,143.48505 90.416210,140.09724 90.515570,138.48833 C 91.337030,138.02855 93.874970,142.27128 95.186630,142.27128 C 96.739780,142.27128 98.000000,140.35351 98.000000,137.98993 C 98.000000,135.62635 96.739780,133.70857 95.186630,133.70857 C 93.839590,133.70857 91.531080,137.94781 90.515570,137.56506 L 92.221640,130.00000 L 88.130440,130.02451 C 88.130440,130.02451 89.922740,137.35897 89.924970,137.53238 L 89.892760,137.53238 L 89.892760,137.52421 C 88.898260,137.90013 86.510870,133.62687 85.173370,133.62687 C 83.620220,133.62687 82.360000,135.54465 82.360000,137.90823 C 82.360000,140.27180 83.620220,142.18958 85.173370,142.18958 C 86.479690,142.18958 88.847590,138.01702 89.887390,138.44748 C 89.872780,140.09607 87.347830,143.48726 87.347830,145.49864 C 87.347830,147.86222 88.608050,149.78000 90.161210,149.78000 z " />
  <path
     sodipodi:nodetypes="cscsssccccccssscsc"
     id="path2260"
     style="fill:#000000;fill-opacity:1.0000000;fill-rule:evenodd;stroke:none;stroke-width:1.0000000pt;stroke-linecap:butt;stroke-linejoin:miter;stroke-opacity:1.0000000"
     d="M 49.161210,149.78000 C 50.714370,149.78000 51.974590,147.86222 51.974590,145.49865 C 51.974590,143.48505 49.416210,140.09725 49.515570,138.48834 C 50.337030,138.02856 52.874970,142.27129 54.186630,142.27129 C 55.739790,142.27129 57.000000,140.35351 57.000000,137.98994 C 57.000000,135.62636 55.739790,133.70858 54.186630,133.70858 C 52.839590,133.70858 50.531090,137.94782 49.515570,137.56507 L 51.221650,130.00000 L 47.130440,130.02452 C 47.130440,130.02452 48.922750,137.35898 48.924970,137.53239 L 48.892760,137.53239 L 48.892760,137.52421 C 47.898260,137.90013 45.510870,133.62688 44.173380,133.62687 C 42.620220,133.62687 41.360000,135.54465 41.360000,137.90823 C 41.360000,140.27181 42.620220,142.18959 44.173380,142.18959 C 45.479700,142.18959 47.847590,138.01702 48.887390,138.44749 C 48.872780,140.09607 46.347840,143.48727 46.347840,145.49865 C 46.347840,147.86222 47.608050,149.78000 49.161210,149.78000 z " />
  

  <metadata>
    <rdf:RDF 
     xmlns="http://web.resource.org/cc/"
     xmlns:dc="http://purl.org/dc/elements/1.1/"
     xmlns:rdf="http://www.w3.org/1999/02/22-rdf-syntax-ns#">
      <Work rdf:about="">
        <dc:title>card</dc:title>
        <dc:description></dc:description>
        <dc:subject>
          <rdf:Bag>
            <rdf:li>white</rdf:li>
            <rdf:li>card</rdf:li>
          </rdf:Bag>
        </dc:subject>
        <dc:publisher>
           <Agent>
             <dc:title></dc:title>
           </Agent>
         </dc:publisher>
         <dc:creator>
           <Agent>
             <dc:title>Nicu Buculei</dc:title>
           </Agent>
        </dc:creator>
         <dc:rights>
           <Agent>
             <dc:title>Nicu Buculei</dc:title>
           </Agent>
        </dc:rights>
        <dc:date></dc:date>
        <dc:format>image/svg+xml</dc:format>
        <dc:type rdf:resource="http://purl.org/dc/dcmitype/StillImage" />
        <license rdf:resource="http://web.resource.org/cc/PublicDomain" />
        <dc:language>en</dc:language>
      </Work>

      <License rdf:about="http://web.resource.org/cc/PublicDomain">
         <permits rdf:resource="http://web.resource.org/cc/Reproduction" />
         <permits rdf:resource="http://web.resource.org/cc/Distribution" />
         <permits rdf:resource="http://web.resource.org/cc/DerivativeWorks" />
      </License>

    </rdf:RDF>
  </metadata>
</svg>
