<?xml version="1.0" encoding="UTF-8" standalone="no"?>
<!-- Created with Inkscape (http://www.inkscape.org/) -->
<svg
   xmlns:dc="http://purl.org/dc/elements/1.1/"
   xmlns:cc="http://web.resource.org/cc/"
   xmlns:rdf="http://www.w3.org/1999/02/22-rdf-syntax-ns#"
   xmlns:svg="http://www.w3.org/2000/svg"
   xmlns="http://www.w3.org/2000/svg"
   xmlns:xlink="http://www.w3.org/1999/xlink"
   xmlns:sodipodi="http://inkscape.sourceforge.net/DTD/sodipodi-0.dtd"
   xmlns:inkscape="http://www.inkscape.org/namespaces/inkscape"
   id="svg2"
   height="190.00000"
   preserveAspectRatio="xMinYMin meet"
   viewBox="0 0 140 190"
   y="0.0000000"
   x="0.0000000"
   version="1.0"
   sodipodi:version="0.32"
   inkscape:version="0.41+cvs"
   sodipodi:docname="white_c_k.svg"
   sodipodi:docbase="/home/nicu/Desktop/card_nicu_buculei_01.zip_FILES/cards/white">
  <sodipodi:namedview
     id="base"
     pagecolor="#ffffff"
     bordercolor="#666666"
     borderopacity="1.0"
     inkscape:pageopacity="0.0"
     inkscape:pageshadow="2"
     inkscape:window-width="1152"
     inkscape:window-height="791"
     inkscape:zoom="1.0000000"
     inkscape:cx="70.000000"
     inkscape:cy="95.000000"
     inkscape:window-x="0"
     inkscape:window-y="26"
     inkscape:current-layer="svg2"
     showgrid="false" />
  <defs
     id="defs3">
    <linearGradient
       id="linearGradient2060">
      <stop
         id="stop2062"
         offset="0.0000000"
         style="stop-color:#ebf0d0;stop-opacity:1.0000000;" />
      <stop
         id="stop2064"
         offset="1.0000000"
         style="stop-color:#ffffeb;stop-opacity:1.0000000;" />
    </linearGradient>
    <linearGradient
       gradientTransform="translate(0.000000,-1.000000)"
       gradientUnits="userSpaceOnUse"
       xlink:href="#linearGradient2060"
       id="linearGradient4853"
       y2="128.69501"
       x2="109.00000"
       y1="63.099518"
       x1="2.0000000" />
    <linearGradient
       id="linearGradient6214">
      <stop
         style="stop-color:#c10000;stop-opacity:1.0000000;"
         offset="0.0000000"
         id="stop6216" />
      <stop
         style="stop-color:#ff433e;stop-opacity:1.0000000;"
         offset="1.0000000"
         id="stop6218" />
    </linearGradient>
    <linearGradient
       id="linearGradient5417">
      <stop
         id="stop5419"
         offset="0.0000000"
         style="stop-color:#f0a700;stop-opacity:1.0000000;" />
      <stop
         id="stop5421"
         offset="1.0000000"
         style="stop-color:#ffed00;stop-opacity:1.0000000;" />
    </linearGradient>
    <linearGradient
       id="linearGradient5407">
      <stop
         style="stop-color:#f0eb00;stop-opacity:1.0000000;"
         offset="0.0000000"
         id="stop5409" />
      <stop
         style="stop-color:#ffff00;stop-opacity:1.0000000;"
         offset="1.0000000"
         id="stop5411" />
    </linearGradient>
    <linearGradient
       id="linearGradient3865">
      <stop
         style="stop-color:#0083cc;stop-opacity:1;"
         offset="0"
         id="stop3867" />
      <stop
         style="stop-color:#24a4cc;stop-opacity:1.0000000;"
         offset="1.0000000"
         id="stop3869" />
    </linearGradient>
    <linearGradient
       id="linearGradient3857">
      <stop
         style="stop-color:#ffd8c1;stop-opacity:1.0000000;"
         offset="0.0000000"
         id="stop3859" />
      <stop
         style="stop-color:#ffeded;stop-opacity:1.0000000;"
         offset="1.0000000"
         id="stop3861" />
    </linearGradient>
    <linearGradient
       inkscape:collect="always"
       id="linearGradient2580">
      <stop
         style="stop-color:#ffffff;stop-opacity:1;"
         offset="0"
         id="stop2582" />
      <stop
         style="stop-color:#ffffff;stop-opacity:0;"
         offset="1"
         id="stop2584" />
    </linearGradient>
    <linearGradient
       id="linearGradient3196">
      <stop
         style="stop-color:#008200;stop-opacity:1.0000000;"
         offset="0.0000000"
         id="stop3198" />
      <stop
         style="stop-color:#00d000;stop-opacity:1.0000000;"
         offset="1.0000000"
         id="stop3200" />
    </linearGradient>
    <linearGradient
       id="linearGradient4408">
      <stop
         style="stop-color:#ff44ab;stop-opacity:1.0000000;"
         offset="0.0000000"
         id="stop4410" />
      <stop
         style="stop-color:#ff66cc;stop-opacity:1.0000000;"
         offset="1.0000000"
         id="stop4412" />
    </linearGradient>
    <linearGradient
       inkscape:collect="always"
       xlink:href="#linearGradient3857"
       id="linearGradient5716"
       gradientUnits="userSpaceOnUse"
       gradientTransform="matrix(0.186825,0.000000,0.000000,0.144857,-49.31979,316.0493)"
       x1="356.44232"
       y1="437.49887"
       x2="484.79608"
       y2="256.17966" />
    <linearGradient
       inkscape:collect="always"
       xlink:href="#linearGradient5407"
       id="linearGradient5718"
       gradientUnits="userSpaceOnUse"
       gradientTransform="translate(-19.62666,283.2938)"
       x1="25.750000"
       y1="103.13147"
       x2="32.217068"
       y2="101.98242" />
    <linearGradient
       inkscape:collect="always"
       xlink:href="#linearGradient4408"
       id="linearGradient5720"
       gradientUnits="userSpaceOnUse"
       gradientTransform="matrix(0.144857,0.000000,0.000000,0.144857,-26.92459,326.6897)"
       x1="298.98572"
       y1="540.53918"
       x2="449.32318"
       y2="415.53949" />
    <linearGradient
       inkscape:collect="always"
       xlink:href="#linearGradient6214"
       id="linearGradient5722"
       gradientUnits="userSpaceOnUse"
       gradientTransform="matrix(0.144857,0.000000,0.000000,0.144857,-26.52689,329.3826)"
       x1="294.24606"
       y1="346.32654"
       x2="312.09238"
       y2="322.13895" />
    <linearGradient
       inkscape:collect="always"
       xlink:href="#linearGradient5417"
       id="linearGradient5724"
       gradientUnits="userSpaceOnUse"
       gradientTransform="translate(-19.62666,283.2938)"
       x1="32.463516"
       y1="58.340210"
       x2="60.000000"
       y2="51.180752" />
    <linearGradient
       inkscape:collect="always"
       xlink:href="#linearGradient5407"
       id="linearGradient5726"
       gradientUnits="userSpaceOnUse"
       gradientTransform="translate(-19.62666,283.2938)"
       x1="32.968857"
       y1="63.941719"
       x2="60.722794"
       y2="56.605484" />
    <linearGradient
       inkscape:collect="always"
       xlink:href="#linearGradient5407"
       id="linearGradient5728"
       gradientUnits="userSpaceOnUse"
       gradientTransform="translate(-19.62666,283.2938)"
       x1="58.247921"
       y1="104.91566"
       x2="61.035088"
       y2="103.14790" />
    <linearGradient
       inkscape:collect="always"
       xlink:href="#linearGradient5407"
       id="linearGradient5730"
       gradientUnits="userSpaceOnUse"
       gradientTransform="translate(-16.30671,286.4125)"
       x1="36.313263"
       y1="116.76148"
       x2="43.598351"
       y2="110.92786" />
    <linearGradient
       inkscape:collect="always"
       xlink:href="#linearGradient2580"
       id="linearGradient5732"
       gradientUnits="userSpaceOnUse"
       gradientTransform="matrix(0.186825,0.000000,0.000000,0.144857,-49.61999,316.6734)"
       x1="688.30371"
       y1="-31.929600"
       x2="361.49808"
       y2="346.66711" />
  </defs>
  <g
     inkscape:label="Layer 1"
     inkscape:groupmode="layer"
     id="layer1">
    <g
       id="g5630">
      <path
         style="fill:#ffffff;fill-opacity:1.0000000;stroke:black;stroke-width:0.70000000;stroke-miterlimit:4.0000000;stroke-dashoffset:0.0000000;stroke-opacity:1.0000000"
         d="M 18.000000,1.9999995 L 121.00000,1.9999995 C 129.86400,1.9999995 137.00000,9.1359995 137.00000,18.000000 L 137.00000,171.00000 C 137.00000,179.86400 129.86400,187.00000 121.00000,187.00000 L 18.000000,187.00000 C 9.1360000,187.00000 2.0000000,179.86400 2.0000000,171.00000 L 2.0000000,18.000000 C 2.0000000,9.1359995 9.1360000,1.9999995 18.000000,1.9999995 z "
         id="rect1306" />
    </g>
    <g
       transform="translate(-448.5000,-231.5000)"
       id="g5495"
       inkscape:groupmode="layer"
       inkscape:label="Layer 1" />
  </g>
  <path
     id="text1481"
     style="font-size:37.418766;font-style:normal;font-variant:normal;font-weight:bold;font-stretch:normal;fill:#000000;fill-opacity:1.0000000;stroke:none;stroke-width:1.0000000px;stroke-linecap:butt;stroke-linejoin:miter;stroke-opacity:1.0000000;font-family:Bitstream Vera Sans;text-anchor:start;writing-mode:lr-tb"
     d="M 10.027180,12.240088 L 16.423333,12.240088 L 16.423333,23.191172 L 25.643761,12.240088 L 33.069943,12.240088 L 21.124920,26.446356 L 34.299334,42.240029 L 26.291683,42.240029 L 16.423333,30.424915 L 16.423333,42.240029 L 10.027180,42.240029 L 10.027180,12.240088" />
  <path
     id="text4064"
     style="font-size:37.418766;font-style:normal;font-variant:normal;font-weight:bold;font-stretch:normal;fill:#000000;fill-opacity:1.0000000;stroke:none;stroke-width:1.0000000px;stroke-linecap:butt;stroke-linejoin:miter;stroke-opacity:1.0000000;font-family:Bitstream Vera Sans;text-anchor:start;writing-mode:lr-tb"
     d="M 128.66278,176.62997 L 122.26662,176.62997 L 122.26662,165.67888 L 113.04619,176.62997 L 105.62001,176.62997 L 117.56503,162.42369 L 104.39062,146.63002 L 112.39828,146.63002 L 122.26662,158.44514 L 122.26662,146.63002 L 128.66278,146.63002 L 128.66278,176.62997" />
  <path
     sodipodi:nodetypes="cscsssccccccssscsc"
     id="path908"
     style="fill:#000000;fill-opacity:1.0000000;fill-rule:evenodd;stroke:none;stroke-width:1.0000000pt;stroke-linecap:butt;stroke-linejoin:miter;stroke-opacity:1.0000000"
     d="M 20.527261,48.665000 C 17.860877,48.665000 15.697394,51.928523 15.697394,55.950664 C 15.697394,59.377240 20.089490,65.142330 19.918919,67.880240 C 18.508668,68.662660 14.151660,61.442720 11.899866,61.442720 C 9.2334820,61.442720 7.0700000,64.706240 7.0700000,68.728380 C 7.0700000,72.750530 9.2334820,76.014050 11.899866,76.014050 C 14.212394,76.014050 18.175527,68.800060 19.918919,69.451390 L 16.990005,82.325000 L 24.013589,82.283290 C 24.013589,82.283290 20.936644,69.802100 20.932822,69.507000 L 20.988126,69.507000 L 20.988126,69.520910 C 22.695429,68.881200 26.793987,76.153080 29.090134,76.153090 C 31.756521,76.153090 33.920003,72.889570 33.920000,68.867420 C 33.920000,64.845280 31.756521,61.581760 29.090134,61.581760 C 26.847510,61.581760 22.782426,68.682290 20.997343,67.949760 C 21.022420,65.144330 25.357127,59.373473 25.357127,55.950664 C 25.357127,51.928523 23.193647,48.665000 20.527261,48.665000 z " />
  <path
     sodipodi:nodetypes="cscsssccccccssscsc"
     id="path4052"
     style="fill:#000000;fill-opacity:1.0000000;fill-rule:evenodd;stroke:none;stroke-width:1.0000000pt;stroke-linecap:butt;stroke-linejoin:miter;stroke-opacity:1.0000000"
     d="M 117.41824,139.96250 C 120.08462,139.96250 122.24811,136.69898 122.24811,132.67684 C 122.24811,129.25026 117.85601,123.48517 118.02658,120.74726 C 119.43683,119.96484 123.79384,127.18478 126.04563,127.18478 C 128.71202,127.18478 130.87550,123.92126 130.87550,119.89912 C 130.87550,115.87697 128.71202,112.61345 126.04563,112.61345 C 123.73311,112.61345 119.76997,119.82744 118.02658,119.17611 L 120.95550,106.30250 L 113.93191,106.34421 C 113.93191,106.34421 117.00886,118.82540 117.01268,119.12050 L 116.95737,119.12050 L 116.95737,119.10659 C 115.25007,119.74630 111.15151,112.47442 108.85537,112.47441 C 106.18898,112.47441 104.02550,115.73793 104.02550,119.76008 C 104.02550,123.78222 106.18898,127.04574 108.85537,127.04574 C 111.09799,127.04574 115.16307,119.94521 116.94816,120.67774 C 116.92308,123.48317 112.58837,129.25403 112.58837,132.67684 C 112.58837,136.69898 114.75185,139.96250 117.41824,139.96250 z " />
  <g
     id="g4647"
     transform="matrix(1.000122,0.000000,0.000000,1.000000,45.24988,-276.2500)">
    <path
       style="fill:#000000;fill-opacity:1.0000000;stroke:none;stroke-width:2.0000000;stroke-miterlimit:4.0000000;stroke-dashoffset:0.0000000;stroke-opacity:1.0000000"
       d="M 22.868703,329.58896 C 20.884519,327.96746 19.450605,326.95831 17.090713,324.47027 C 15.324702,331.65500 13.088377,330.62466 10.062855,328.08142 C 7.0443370,325.04561 7.2817970,339.18458 1.4602280,326.24544 C -0.21779100,326.47574 3.1979400,337.12463 3.6614520,341.26424 C 7.1306310,346.15867 1.6500490,352.36056 3.3857380,355.86206 C 9.1225650,355.48567 4.0260580,362.08822 5.7438910,365.62242 C 6.1172770,370.30232 7.7651920,374.07894 8.4045900,378.35630 C 18.100337,382.78754 -0.015050000,385.81933 4.1834560,389.36929 C 4.9780200,392.63513 2.6247980,398.53863 3.6233400,402.95005 C 2.9108760,408.94949 2.9963200,414.36417 10.373340,414.63755 C 23.153942,417.11700 36.190274,417.03135 48.248340,412.29380 C 48.382926,405.30637 48.153119,397.38737 48.029590,390.95005 C 51.194303,387.08585 40.134422,384.45168 37.649953,380.96799 C 41.177359,376.64680 39.960245,368.24366 47.114317,367.64116 C 47.873724,361.38212 45.700706,353.68203 42.373340,347.79380 C 43.443668,340.13339 44.716075,332.49853 45.435840,324.79380 C 38.266199,339.58820 41.151780,321.77985 37.984927,328.80670 C 35.934214,331.11381 34.686659,328.07648 33.381016,328.19631 C 32.084648,322.37868 29.732994,335.44097 27.998340,324.54380 C 25.754242,333.68493 25.131995,318.24208 23.545253,327.61603 L 22.868703,329.58896 z "
       id="path2081"
       sodipodi:nodetypes="cccccccccccccccccccccc" />
    <path
       id="path2086"
       d="M 41.252239,363.39685 C 41.252239,374.81018 33.688371,384.07318 24.368604,384.07318 C 15.048837,384.07318 7.4849690,374.81018 7.4849690,363.39685 C 7.4849690,351.98352 15.048837,342.72052 24.368604,342.72052 C 33.688371,342.72052 41.252239,351.98352 41.252239,363.39685 z "
       style="fill:url(#linearGradient5716);fill-opacity:1.0000000;stroke:none;stroke-width:2.0000000;stroke-miterlimit:4.0000000;stroke-dashoffset:0.0000000;stroke-opacity:1.0000000" />
    <path
       style="fill:url(#linearGradient5718);fill-opacity:1.0000000;fill-rule:evenodd;stroke:none;stroke-width:1.0000000px;stroke-linecap:butt;stroke-linejoin:miter;stroke-opacity:1.0000000"
       d="M 7.8733400,389.54380 L 5.8278450,388.11702 L 12.608175,382.58669 L 14.123340,385.79380 C 14.123340,385.79380 8.2044460,389.81305 7.8733400,389.54380 z "
       id="path2088"
       sodipodi:nodetypes="ccccc" />
    <path
       sodipodi:nodetypes="ccccccc"
       id="path2090"
       d="M 18.343298,383.21123 C 11.294242,383.21123 5.6184800,388.88699 5.6184800,395.93604 L 5.6184800,410.86540 C 14.998375,415.51453 35.144659,415.75922 46.237386,410.86540 L 46.237386,395.93604 C 46.237386,388.88699 40.561631,383.21123 33.512575,383.21123 L 18.343298,383.21123 z "
       style="fill:url(#linearGradient5720);fill-opacity:1.0000000;stroke:none;stroke-width:2.0000000;stroke-miterlimit:4.0000000;stroke-dashoffset:0.0000000;stroke-opacity:1.0000000" />
    <path
       sodipodi:nodetypes="cccccc"
       id="path2092"
       d="M 4.8299100,354.09550 C 4.8299100,354.09550 6.5278590,339.72057 25.441682,339.68513 C 45.417935,340.50465 45.438922,366.18064 45.438922,366.18064 C 40.586037,367.75795 41.933828,369.43899 34.691800,366.94069 C 35.483473,361.24170 34.192342,357.06185 30.766671,354.12556 C 26.497780,356.36443 9.2029560,355.63004 4.8299100,354.09550 z "
       style="fill:#6d2b00;fill-opacity:1.0000000;fill-rule:evenodd;stroke:none;stroke-width:1.5371202px;stroke-linecap:butt;stroke-linejoin:miter;stroke-opacity:1.0000000" />
    <g
       transform="matrix(0.144857,0.000000,0.000000,9.790296e-2,-26.72530,340.1127)"
       id="g2094">
      <path
         id="path2096"
         d="M 353.00000,245.86218 C 353.00000,257.73018 343.59200,267.36218 332.00000,267.36218 C 320.40800,267.36218 311.00000,257.73018 311.00000,245.86218 C 311.00000,233.99418 320.40800,224.36218 332.00000,224.36218 C 343.59200,224.36218 353.00000,233.99418 353.00000,245.86218 z "
         style="fill:#ffffff;fill-opacity:1.0000000;stroke:none;stroke-width:2.0000000;stroke-miterlimit:4.0000000;stroke-dashoffset:0.0000000;stroke-opacity:1.0000000"
         transform="translate(-4.000000,-6.000000)" />
      <path
         id="path2098"
         d="M 353.00000,245.86218 C 353.00000,257.73018 343.59200,267.36218 332.00000,267.36218 C 320.40800,267.36218 311.00000,257.73018 311.00000,245.86218 C 311.00000,233.99418 320.40800,224.36218 332.00000,224.36218 C 343.59200,224.36218 353.00000,233.99418 353.00000,245.86218 z "
         style="fill:#b67870;fill-opacity:1.0000000;stroke:none;stroke-width:2.0000000;stroke-miterlimit:4.0000000;stroke-dashoffset:0.0000000;stroke-opacity:1.0000000"
         transform="matrix(0.571429,0.000000,0.000000,0.837210,129.2857,34.52408)" />
      <path
         id="path2100"
         d="M 353.00000,245.86218 C 353.00000,257.73018 343.59200,267.36218 332.00000,267.36218 C 320.40800,267.36218 311.00000,257.73018 311.00000,245.86218 C 311.00000,233.99418 320.40800,224.36218 332.00000,224.36218 C 343.59200,224.36218 353.00000,233.99418 353.00000,245.86218 z "
         style="fill:#000000;fill-opacity:1.0000000;stroke:none;stroke-width:2.0000000;stroke-miterlimit:4.0000000;stroke-dashoffset:0.0000000;stroke-opacity:1.0000000"
         transform="matrix(0.357143,0.000000,0.000000,0.674419,195.9286,76.04816)" />
    </g>
    <g
       transform="matrix(0.144857,0.000000,0.000000,9.790296e-2,-36.81380,339.7718)"
       id="g2102">
      <path
         id="path2104"
         d="M 353.00000,245.86218 C 353.00000,257.73018 343.59200,267.36218 332.00000,267.36218 C 320.40800,267.36218 311.00000,257.73018 311.00000,245.86218 C 311.00000,233.99418 320.40800,224.36218 332.00000,224.36218 C 343.59200,224.36218 353.00000,233.99418 353.00000,245.86218 z "
         style="fill:#ffffff;fill-opacity:1.0000000;stroke:none;stroke-width:2.0000000;stroke-miterlimit:4.0000000;stroke-dashoffset:0.0000000;stroke-opacity:1.0000000"
         transform="translate(-4.000000,-6.000000)" />
      <path
         id="path2106"
         d="M 353.00000,245.86218 C 353.00000,257.73018 343.59200,267.36218 332.00000,267.36218 C 320.40800,267.36218 311.00000,257.73018 311.00000,245.86218 C 311.00000,233.99418 320.40800,224.36218 332.00000,224.36218 C 343.59200,224.36218 353.00000,233.99418 353.00000,245.86218 z "
         style="fill:#b67870;fill-opacity:1.0000000;stroke:none;stroke-width:2.0000000;stroke-miterlimit:4.0000000;stroke-dashoffset:0.0000000;stroke-opacity:1.0000000"
         transform="matrix(0.571429,0.000000,0.000000,0.837210,129.2857,34.52408)" />
      <path
         id="path2108"
         d="M 353.00000,245.86218 C 353.00000,257.73018 343.59200,267.36218 332.00000,267.36218 C 320.40800,267.36218 311.00000,257.73018 311.00000,245.86218 C 311.00000,233.99418 320.40800,224.36218 332.00000,224.36218 C 343.59200,224.36218 353.00000,233.99418 353.00000,245.86218 z "
         style="fill:#000000;fill-opacity:1.0000000;stroke:none;stroke-width:2.0000000;stroke-miterlimit:4.0000000;stroke-dashoffset:0.0000000;stroke-opacity:1.0000000"
         transform="matrix(0.357143,0.000000,0.000000,0.674419,195.9286,76.04816)" />
    </g>
    <path
       sodipodi:nodetypes="ccc"
       id="path2110"
       d="M 12.818066,376.77903 C 15.738342,376.91795 20.120288,377.11459 24.545890,376.77903 C 19.891892,375.06118 16.625053,374.53294 12.818066,376.77903 z "
       style="fill:url(#linearGradient5722);fill-opacity:1.0000000;fill-rule:evenodd;stroke:none;stroke-width:1.0000000px;stroke-linecap:butt;stroke-linejoin:miter;stroke-opacity:1.0000000" />
    <path
       sodipodi:nodetypes="ccccc"
       id="path2112"
       d="M 32.440844,399.09034 L 33.704434,399.21360 L 35.075790,413.72636 L 31.610604,413.97676 L 32.440844,399.09034 z "
       style="fill:#b30d95;fill-opacity:1.0000000;stroke:none;stroke-width:2.0000000;stroke-miterlimit:4.0000000;stroke-dashoffset:0.0000000;stroke-opacity:1.0000000" />
    <path
       style="fill:#000000;fill-opacity:1.0000000;fill-rule:evenodd;stroke:none;stroke-width:1.0000000px;stroke-linecap:butt;stroke-linejoin:miter;stroke-opacity:1.0000000"
       d="M 14.479613,364.98889 C 13.687713,366.27572 12.534716,368.39131 12.698976,369.36375 C 12.863246,370.33619 14.351353,370.12622 15.141313,370.68683 L 15.472163,370.20894 C 14.777473,369.71593 13.689241,370.20092 13.554181,369.40137 C 13.419131,368.60181 14.235253,366.48651 14.975883,365.28297 L 14.479613,364.98889 z "
       id="path2114"
       sodipodi:nodetypes="ccccccc" />
    <path
       style="fill:#6d2b00;fill-opacity:1.0000000;fill-rule:evenodd;stroke:none;stroke-width:1.0000000px;stroke-linecap:butt;stroke-linejoin:miter;stroke-opacity:1.0000000"
       d="M 16.215497,377.57251 C 17.319494,379.90915 15.547377,379.93087 14.757348,380.30333 C 14.143053,379.84236 12.827770,378.47423 12.419648,377.51845 C 12.291242,382.82517 14.144168,385.72184 15.487671,387.18748 C 16.831174,388.65312 24.770055,389.75235 29.044836,387.18748 C 33.319618,384.62261 42.283717,375.85124 37.407109,368.66970 C 36.739444,369.13441 35.523072,369.03294 34.663121,368.86698 C 34.785258,370.45476 32.644463,375.05713 28.736091,376.76704 C 24.827719,378.47696 22.012900,378.89036 20.983819,380.42297 C 18.972651,380.48245 17.850266,379.67449 18.762204,377.59067 C 18.271161,377.75163 16.756031,377.57001 16.215497,377.57251 z "
       id="path2116"
       sodipodi:nodetypes="ccccccccccc" />
    <path
       style="fill:#6d2b00;fill-opacity:1.0000000;fill-rule:evenodd;stroke:none;stroke-width:1.0000000px;stroke-linecap:butt;stroke-linejoin:miter;stroke-opacity:1.0000000"
       d="M 17.134459,372.20899 C 17.134459,372.20899 10.049403,374.03286 9.6285080,375.29555 C 9.2076140,376.55823 10.680745,378.03136 10.680745,378.03136 C 10.680745,378.03136 15.310583,374.17316 17.274757,374.24331 C 17.134459,373.75227 17.344907,373.12093 17.134459,372.20899 z "
       id="path2118"
       sodipodi:nodetypes="ccccc" />
    <path
       style="fill:#6d2b00;fill-opacity:1.0000000;fill-rule:evenodd;stroke:none;stroke-width:1.0000000px;stroke-linecap:butt;stroke-linejoin:miter;stroke-opacity:1.0000000"
       d="M 17.672983,372.22956 C 17.672983,372.22956 25.081447,372.34502 25.860830,373.42395 C 26.640211,374.50288 25.675280,376.34926 25.675280,376.34926 C 25.675280,376.34926 19.933259,373.47113 18.080035,374.12570 C 18.066998,373.61518 17.745005,373.16269 17.672983,372.22956 z "
       id="path2120"
       sodipodi:nodetypes="ccccc" />
    <path
       style="fill:url(#linearGradient5724);fill-opacity:1.0000000;fill-rule:evenodd;stroke:none;stroke-width:1.0000000px;stroke-linecap:butt;stroke-linejoin:miter;stroke-opacity:1.0000000"
       d="M 6.4465630,336.67768 L 9.0349520,330.07413 L 14.123340,337.04380 L 17.696563,328.30636 L 22.153670,336.85446 C 22.153670,336.85446 25.284952,328.01390 25.284952,328.69046 C 25.284952,329.36702 28.580447,337.91512 28.580447,337.91512 L 32.330447,329.72058 L 34.820562,337.82673 L 39.123340,330.79380 L 40.373340,337.04380 L 40.373340,342.04380 C 40.373340,342.04380 12.873340,343.29380 10.373340,342.04380 C 7.8733400,340.79380 6.3595140,336.82219 6.4465630,336.67768 z "
       id="path2122"
       sodipodi:nodetypes="cccccccccccccc" />
    <path
       style="fill:url(#linearGradient5726);fill-opacity:1.0000000;fill-rule:evenodd;stroke:none;stroke-width:1.0000000px;stroke-linecap:butt;stroke-linejoin:miter;stroke-opacity:1.0000000"
       d="M 7.1550100,348.22429 C 17.231281,350.61077 29.782426,350.69916 40.300639,348.22429 C 40.300639,348.22429 42.687126,331.69567 42.687126,331.69567 L 38.090931,338.23640 L 35.262504,330.81178 L 31.726970,338.05963 L 28.103048,329.75112 L 24.832679,337.97124 L 21.120369,329.92790 L 17.849999,338.67835 L 12.988640,331.07695 L 9.3647180,338.94351 L 3.7962520,332.04922 C 3.7962520,332.04922 6.8898440,347.87073 7.1550100,348.22429 z "
       id="path2124"
       sodipodi:nodetypes="cccccccccccccc" />
    <path
       style="fill:url(#linearGradient5728);fill-opacity:1.0000000;fill-rule:evenodd;stroke:none;stroke-width:1.0000000px;stroke-linecap:butt;stroke-linejoin:miter;stroke-opacity:1.0000000"
       d="M 37.648989,382.78413 C 36.976893,383.29380 34.732174,385.17062 34.732174,385.17062 L 44.123340,392.04380 L 46.623340,389.54380 L 37.648989,382.78413 z "
       id="path2126"
       sodipodi:nodetypes="ccccc" />
    <path
       style="fill:#ff8900;fill-opacity:1.0000000;fill-rule:evenodd;stroke:none;stroke-width:1.0000000px;stroke-linecap:butt;stroke-linejoin:miter;stroke-opacity:1.0000000"
       d="M 23.532686,399.85249 L 16.590973,391.90473 L 33.995558,391.90473 L 23.532686,399.85249 z "
       id="path2128" />
    <path
       style="fill:url(#linearGradient5730);fill-opacity:1.0000000;fill-rule:evenodd;stroke:none;stroke-width:1.0000000px;stroke-linecap:butt;stroke-linejoin:miter;stroke-opacity:1.0000000"
       d="M 21.258337,394.01349 L 18.503950,397.40994 L 22.443290,400.16254 L 18.164746,403.22699 L 21.016513,406.05899 L 23.909989,401.13481 L 26.900397,405.95804 L 29.943290,402.66254 L 24.943290,400.16254 L 29.665562,396.94287 L 26.546843,394.19027 L 23.998377,399.17771 L 21.258337,394.01349 z "
       id="path2130"
       sodipodi:nodetypes="ccccccccccccc" />
    <path
       style="fill:url(#linearGradient5732);fill-opacity:1.0000000;stroke:none;stroke-width:2.0000000;stroke-miterlimit:4.0000000;stroke-dashoffset:0.0000000;stroke-opacity:1.0000000"
       d="M 17.385613,328.91791 L 14.854363,335.10541 L 12.698113,331.69916 L 11.448113,334.41791 L 8.7293632,330.69916 L 6.5106132,336.38666 L 3.5106132,332.66791 C 3.5106132,332.66791 6.5891932,348.50186 6.8543632,348.85541 C 6.8640032,348.85769 6.8759632,348.85313 6.8856132,348.85541 C 4.9401332,351.95085 4.5418632,354.73041 4.5418632,354.73041 C 5.4091932,355.03476 7.0478732,355.28721 8.7293632,355.51166 C 7.7632432,358.11508 7.1981132,360.96725 7.1981132,364.01166 C 7.1981132,368.22907 8.2380832,372.14659 10.010613,375.41791 C 9.7707532,375.59130 9.3765132,375.75771 9.3231132,375.91791 C 8.9022232,377.18059 10.385613,378.66791 10.385613,378.66791 C 10.385613,378.66791 11.173403,378.10535 11.573113,377.79291 C 11.771713,378.06303 11.925793,378.37970 12.135613,378.63666 C 12.139483,381.28770 12.653113,383.24071 13.323113,384.76166 C 13.244243,384.79306 13.151193,384.79124 13.073113,384.82416 L 12.323113,383.19916 L 5.5418632,388.73041 L 7.3856132,390.04291 C 6.2008732,391.97713 5.3231132,394.13073 5.3231132,396.57417 L 5.3231132,411.48042 C 11.335473,414.46043 21.683473,415.40669 31.323113,414.57417 L 31.323113,414.60542 L 34.760613,414.35542 L 34.760613,414.32417 C 38.895133,413.74540 42.812673,412.86369 45.948113,411.48042 L 45.948113,396.57417 C 45.948113,394.79627 45.569943,393.10830 44.916863,391.57416 L 46.323113,390.16791 L 37.354363,383.41791 C 37.117303,383.59768 36.783973,383.88406 36.323113,384.26166 C 35.384293,384.02654 34.395643,383.87020 33.385613,383.85541 C 35.823653,381.32087 38.095373,378.10620 38.448113,374.73041 C 39.370433,372.87945 40.067913,370.87219 40.479363,368.69916 C 41.733653,368.42699 42.606663,367.61488 45.135613,366.79291 C 45.135613,366.79291 45.094983,356.52301 40.010613,348.76166 C 40.036843,348.58002 42.385613,332.32416 42.385613,332.32416 L 39.760613,336.07416 L 38.823113,331.41791 L 36.448113,335.32416 L 34.948113,331.44916 L 33.354363,334.69916 L 32.041863,330.35541 L 29.854363,335.13666 L 27.791863,330.38666 L 26.510613,333.60541 C 25.749723,331.54159 24.979363,329.63819 24.979363,329.32416 C 24.979363,328.85980 23.748423,332.35116 22.823113,334.91791 L 20.823113,330.54291 L 19.729363,333.41791 L 17.385613,328.91791 z "
       id="path2132" />
  </g>
  

  <metadata>
    <rdf:RDF 
     xmlns="http://web.resource.org/cc/"
     xmlns:dc="http://purl.org/dc/elements/1.1/"
     xmlns:rdf="http://www.w3.org/1999/02/22-rdf-syntax-ns#">
      <Work rdf:about="">
        <dc:title>card</dc:title>
        <dc:description></dc:description>
        <dc:subject>
          <rdf:Bag>
            <rdf:li>white</rdf:li>
            <rdf:li>card</rdf:li>
          </rdf:Bag>
        </dc:subject>
        <dc:publisher>
           <Agent>
             <dc:title></dc:title>
           </Agent>
         </dc:publisher>
         <dc:creator>
           <Agent>
             <dc:title>Nicu Buculei</dc:title>
           </Agent>
        </dc:creator>
         <dc:rights>
           <Agent>
             <dc:title>Nicu Buculei</dc:title>
           </Agent>
        </dc:rights>
        <dc:date></dc:date>
        <dc:format>image/svg+xml</dc:format>
        <dc:type rdf:resource="http://purl.org/dc/dcmitype/StillImage" />
        <license rdf:resource="http://web.resource.org/cc/PublicDomain" />
        <dc:language>en</dc:language>
      </Work>

      <License rdf:about="http://web.resource.org/cc/PublicDomain">
         <permits rdf:resource="http://web.resource.org/cc/Reproduction" />
         <permits rdf:resource="http://web.resource.org/cc/Distribution" />
         <permits rdf:resource="http://web.resource.org/cc/DerivativeWorks" />
      </License>

    </rdf:RDF>
  </metadata>
</svg>
