<?xml version="1.0" encoding="UTF-8" standalone="no"?>
<!-- Created with Inkscape (http://www.inkscape.org/) -->
<svg
   xmlns:dc="http://purl.org/dc/elements/1.1/"
   xmlns:cc="http://web.resource.org/cc/"
   xmlns:rdf="http://www.w3.org/1999/02/22-rdf-syntax-ns#"
   xmlns:svg="http://www.w3.org/2000/svg"
   xmlns="http://www.w3.org/2000/svg"
   xmlns:xlink="http://www.w3.org/1999/xlink"
   xmlns:sodipodi="http://inkscape.sourceforge.net/DTD/sodipodi-0.dtd"
   xmlns:inkscape="http://www.inkscape.org/namespaces/inkscape"
   id="svg2"
   height="190.00000"
   preserveAspectRatio="xMinYMin meet"
   viewBox="0 0 140 190"
   y="0.0000000"
   x="0.0000000"
   version="1.0"
   sodipodi:version="0.32"
   inkscape:version="0.41+cvs"
   sodipodi:docname="white_c_3.svg"
   sodipodi:docbase="/home/nicu/Desktop/card_nicu_buculei_01.zip_FILES/cards/white">
  <sodipodi:namedview
     inkscape:current-layer="layer1"
     inkscape:window-y="26"
     inkscape:window-x="0"
     inkscape:cy="94.999969"
     inkscape:cx="70.000000"
     inkscape:zoom="1.0000000"
     id="base"
     pagecolor="#ffffff"
     bordercolor="#666666"
     borderopacity="1.0"
     inkscape:pageopacity="0.0"
     inkscape:pageshadow="2"
     inkscape:window-width="1152"
     inkscape:window-height="791" />
  <defs
     id="defs3">
    <linearGradient
       id="linearGradient2060">
      <stop
         id="stop2062"
         offset="0.0000000"
         style="stop-color:#ebf0d0;stop-opacity:1.0000000;" />
      <stop
         id="stop2064"
         offset="1.0000000"
         style="stop-color:#ffffeb;stop-opacity:1.0000000;" />
    </linearGradient>
    <linearGradient
       gradientTransform="translate(0.000000,-1.000000)"
       gradientUnits="userSpaceOnUse"
       xlink:href="#linearGradient2060"
       id="linearGradient4853"
       y2="128.69501"
       x2="109.00000"
       y1="63.099518"
       x1="2.0000000" />
  </defs>
  <g
     inkscape:label="Layer 1"
     inkscape:groupmode="layer"
     id="layer1">
    <g
       id="g5630">
      <path
         style="fill:#ffffff;fill-opacity:1.0000000;stroke:black;stroke-width:0.70000000;stroke-miterlimit:4.0000000;stroke-dashoffset:0.0000000;stroke-opacity:1.0000000"
         d="M 18.000000,1.9999995 L 121.00000,1.9999995 C 129.86400,1.9999995 137.00000,9.1359995 137.00000,18.000000 L 137.00000,171.00000 C 137.00000,179.86400 129.86400,187.00000 121.00000,187.00000 L 18.000000,187.00000 C 9.1360000,187.00000 2.0000000,179.86400 2.0000000,171.00000 L 2.0000000,18.000000 C 2.0000000,9.1359995 9.1360000,1.9999995 18.000000,1.9999995 z "
         id="rect1306" />
    </g>
    <g
       transform="translate(-448.5000,-231.5000)"
       id="g5495"
       inkscape:groupmode="layer"
       inkscape:label="Layer 1" />
  </g>
  <path
     sodipodi:nodetypes="cscsssccccccssscsc"
     id="path2250"
     style="fill:#000000;fill-opacity:1.0000000;fill-rule:evenodd;stroke:none;stroke-width:1.0000000pt;stroke-linecap:butt;stroke-linejoin:miter;stroke-opacity:1.0000000"
     d="M 69.838790,45.000000 C 68.285640,45.000000 67.025420,46.917780 67.025420,49.281360 C 67.025420,51.294950 69.583790,54.682760 69.484440,56.291660 C 68.662970,56.751450 66.125040,52.508710 64.813380,52.508710 C 63.260220,52.508710 62.000000,54.426490 62.000000,56.790070 C 62.000000,59.153650 63.260220,61.071430 64.813380,61.071430 C 66.160410,61.071430 68.468920,56.832190 69.484440,57.214940 L 67.778360,64.780000 L 71.869560,64.755490 C 71.869560,64.755490 70.077260,57.421030 70.075030,57.247620 L 70.107250,57.247620 L 70.107250,57.255790 C 71.101740,56.879870 73.489130,61.153130 74.826630,61.153130 C 76.379790,61.153130 77.640000,59.235350 77.640000,56.871770 C 77.640000,54.508200 76.379790,52.590420 74.826630,52.590420 C 73.520310,52.590420 71.152420,56.762980 70.112610,56.332520 C 70.127220,54.683930 72.652170,51.292740 72.652170,49.281360 C 72.652170,46.917780 71.391950,45.000000 69.838790,45.000000 z " />
  <path
     sodipodi:nodetypes="cscsssccccccssscsc"
     id="path2254"
     style="fill:#000000;fill-opacity:1.0000000;fill-rule:evenodd;stroke:none;stroke-width:1.0000000pt;stroke-linecap:butt;stroke-linejoin:miter;stroke-opacity:1.0000000"
     d="M 70.198790,86.220000 C 68.645640,86.220000 67.385420,88.137780 67.385420,90.501350 C 67.385420,92.514950 69.943790,95.902750 69.844440,97.511660 C 69.022970,97.971440 66.485040,93.728710 65.173380,93.728710 C 63.620220,93.728710 62.360000,95.646490 62.360000,98.010060 C 62.360000,100.37364 63.620220,102.29142 65.173380,102.29142 C 66.520410,102.29142 68.828920,98.052190 69.844440,98.434930 L 68.138360,106.00000 L 72.229560,105.97549 C 72.229560,105.97549 70.437260,98.641030 70.435030,98.467610 L 70.467250,98.467610 L 70.467250,98.475790 C 71.461740,98.099870 73.849130,102.37312 75.186630,102.37313 C 76.739790,102.37313 78.000000,100.45535 78.000000,98.091770 C 78.000000,95.728190 76.739790,93.810420 75.186630,93.810420 C 73.880310,93.810420 71.512420,97.982980 70.472610,97.552510 C 70.487220,95.903930 73.012170,92.512740 73.012170,90.501350 C 73.012170,88.137780 71.751950,86.220000 70.198790,86.220000 z " />
  <path
     sodipodi:nodetypes="cscsssccccccssscsc"
     id="path2262"
     style="fill:#000000;fill-opacity:1.0000000;fill-rule:evenodd;stroke:none;stroke-width:1.0000000pt;stroke-linecap:butt;stroke-linejoin:miter;stroke-opacity:1.0000000"
     d="M 69.161210,143.00000 C 70.714370,143.00000 71.974590,141.08222 71.974590,138.71865 C 71.974590,136.70505 69.416210,133.31725 69.515570,131.70834 C 70.337030,131.24856 72.874970,135.49129 74.186630,135.49129 C 75.739790,135.49129 77.000000,133.57351 77.000000,131.20994 C 77.000000,128.84635 75.739790,126.92858 74.186630,126.92858 C 72.839590,126.92858 70.531090,131.16781 69.515570,130.78507 L 71.221650,123.22000 L 67.130440,123.24451 C 67.130440,123.24451 68.922750,130.57897 68.924980,130.75239 L 68.892760,130.75239 L 68.892760,130.74421 C 67.898260,131.12013 65.510870,126.84688 64.173380,126.84687 C 62.620220,126.84687 61.360000,128.76465 61.360000,131.12823 C 61.360000,133.49180 62.620220,135.40958 64.173380,135.40958 C 65.479700,135.40958 67.847590,131.23702 68.887390,131.66748 C 68.872780,133.31607 66.347840,136.70726 66.347840,138.71865 C 66.347840,141.08222 67.608060,143.00000 69.161210,143.00000 z " />
  <g
     id="g2352"
     transform="translate(333.5000,184.5000)" />
  <path
     sodipodi:nodetypes="cscsssccccccssscsc"
     id="path908"
     style="fill:#000000;fill-opacity:1.0000000;fill-rule:evenodd;stroke:none;stroke-width:1.0000000pt;stroke-linecap:butt;stroke-linejoin:miter;stroke-opacity:1.0000000"
     d="M 20.527261,48.665000 C 17.860877,48.665000 15.697394,51.928523 15.697394,55.950664 C 15.697394,59.377240 20.089490,65.142330 19.918919,67.880240 C 18.508668,68.662660 14.151660,61.442720 11.899866,61.442720 C 9.2334820,61.442720 7.0700000,64.706240 7.0700000,68.728380 C 7.0700000,72.750530 9.2334820,76.014050 11.899866,76.014050 C 14.212394,76.014050 18.175527,68.800060 19.918919,69.451390 L 16.990005,82.325000 L 24.013589,82.283290 C 24.013589,82.283290 20.936644,69.802100 20.932822,69.507000 L 20.988126,69.507000 L 20.988126,69.520910 C 22.695429,68.881200 26.793987,76.153080 29.090134,76.153090 C 31.756521,76.153090 33.920003,72.889570 33.920000,68.867420 C 33.920000,64.845280 31.756521,61.581760 29.090134,61.581760 C 26.847510,61.581760 22.782426,68.682290 20.997343,67.949760 C 21.022420,65.144330 25.357127,59.373473 25.357127,55.950664 C 25.357127,51.928523 23.193647,48.665000 20.527261,48.665000 z " />
  <path
     sodipodi:nodetypes="cscsssccccccssscsc"
     id="path1794"
     style="fill:#000000;fill-opacity:1.0000000;fill-rule:evenodd;stroke:none;stroke-width:1.0000000pt;stroke-linecap:butt;stroke-linejoin:miter;stroke-opacity:1.0000000"
     d="M 117.41824,139.96250 C 120.08462,139.96250 122.24811,136.69898 122.24811,132.67684 C 122.24811,129.25026 117.85601,123.48517 118.02658,120.74726 C 119.43683,119.96484 123.79384,127.18478 126.04563,127.18478 C 128.71202,127.18478 130.87550,123.92126 130.87550,119.89912 C 130.87550,115.87697 128.71202,112.61345 126.04563,112.61345 C 123.73311,112.61345 119.76997,119.82744 118.02658,119.17611 L 120.95550,106.30250 L 113.93191,106.34421 C 113.93191,106.34421 117.00886,118.82540 117.01268,119.12050 L 116.95737,119.12050 L 116.95737,119.10659 C 115.25007,119.74630 111.15151,112.47442 108.85537,112.47441 C 106.18898,112.47441 104.02550,115.73793 104.02550,119.76008 C 104.02550,123.78222 106.18898,127.04574 108.85537,127.04574 C 111.09799,127.04574 115.16307,119.94521 116.94816,120.67774 C 116.92308,123.48317 112.58837,129.25403 112.58837,132.67684 C 112.58837,136.69898 114.75185,139.96250 117.41824,139.96250 z " />
  <path
     id="text2221"
     style="font-size:37.418446;font-style:normal;font-variant:normal;font-weight:bold;font-stretch:normal;fill:#000000;fill-opacity:1.0000000;stroke:none;stroke-width:1.0000000px;stroke-linecap:butt;stroke-linejoin:miter;stroke-opacity:1.0000000;font-family:Bitstream Vera Sans;text-anchor:start;writing-mode:lr-tb"
     d="M 24.607577,26.062700 C 26.279959,26.585148 27.548102,27.496055 28.412009,28.795424 C 29.286953,30.081424 29.724434,31.722397 29.724455,33.718346 C 29.724434,36.692199 28.783018,38.956070 26.900204,40.509969 C 25.017354,42.050475 22.270634,42.820727 18.660036,42.820729 C 17.386346,42.820727 16.107128,42.693469 14.822378,42.438951 C 13.548691,42.197828 12.286086,41.829446 11.034558,41.333805 L 11.034558,35.366018 C 12.230709,36.089392 13.415785,36.638616 14.589792,37.013690 C 15.774862,37.375379 16.937789,37.556220 18.078573,37.556216 C 19.773113,37.556220 21.068944,37.201235 21.966071,36.491257 C 22.874248,35.781292 23.328343,34.763219 23.328357,33.437036 C 23.328343,32.070684 22.863172,31.039216 21.932845,30.342628 C 21.013566,29.632668 19.651282,29.277683 17.845988,29.277670 L 15.287548,29.277670 L 15.287548,24.294467 L 17.978893,24.294467 C 19.584830,24.294484 20.780982,23.993082 21.567353,23.390256 C 22.353700,22.774074 22.746879,21.843073 22.746894,20.597252 C 22.746879,19.445244 22.364776,18.554430 21.600580,17.924808 C 20.836359,17.295235 19.756499,16.980437 18.360998,16.980411 C 17.330969,16.980437 16.289873,17.121091 15.237709,17.402376 C 14.185531,17.683711 13.138898,18.098977 12.097806,18.648177 L 12.097806,12.981793 C 13.360408,12.553160 14.611937,12.231664 15.852399,12.017302 C 17.092846,11.803002 18.311148,11.695836 19.507311,11.695805 C 22.730266,11.695836 25.139184,12.338829 26.734072,13.624787 C 28.339999,14.897407 29.142971,16.819688 29.142992,19.391638 C 29.142971,21.146497 28.760867,22.586534 27.996678,23.711754 C 27.232450,24.823615 26.102751,25.607263 24.607577,26.062700" />
  <path
     id="text1806"
     style="font-size:37.418446;font-style:normal;font-variant:normal;font-weight:bold;font-stretch:normal;fill:#000000;fill-opacity:1.0000000;stroke:none;stroke-width:1.0000000px;stroke-linecap:butt;stroke-linejoin:miter;stroke-opacity:1.0000000;font-family:Bitstream Vera Sans;text-anchor:start;writing-mode:lr-tb"
     d="M 114.07237,162.93306 C 112.39999,162.41061 111.13185,161.49970 110.26795,160.20033 C 109.39300,158.91433 108.95552,157.27336 108.95550,155.27741 C 108.95552,152.30356 109.89693,150.03969 111.77975,148.48579 C 113.66260,146.94528 116.40932,146.17503 120.01991,146.17503 C 121.29361,146.17503 122.57282,146.30229 123.85757,146.55681 C 125.13126,146.79793 126.39386,147.16631 127.64540,147.66196 L 127.64540,153.62974 C 126.44925,152.90636 125.26417,152.35714 124.09016,151.98206 C 122.90509,151.62038 121.74217,151.43954 120.60138,151.43954 C 118.90684,151.43954 117.61101,151.79452 116.71388,152.50450 C 115.80570,153.21446 115.35161,154.23254 115.35160,155.55872 C 115.35161,156.92507 115.81678,157.95654 116.74711,158.65313 C 117.66638,159.36309 119.02867,159.71807 120.83397,159.71809 L 123.39240,159.71809 L 123.39240,164.70129 L 120.70106,164.70129 C 119.09512,164.70128 117.89897,165.00268 117.11260,165.60551 C 116.32626,166.22168 115.93307,167.15268 115.93305,168.39851 C 115.93307,169.55052 116.31518,170.44133 117.07937,171.07095 C 117.84359,171.70052 118.92346,172.01532 120.31896,172.01535 C 121.34898,172.01532 122.39008,171.87467 123.44224,171.59338 C 124.49442,171.31205 125.54106,170.89678 126.58215,170.34759 L 126.58215,176.01396 C 125.31955,176.44260 124.06802,176.76409 122.82755,176.97846 C 121.58711,177.19276 120.36881,177.29992 119.17264,177.29996 C 115.94969,177.29992 113.54077,176.65693 111.94588,175.37097 C 110.33995,174.09836 109.53698,172.17607 109.53696,169.60412 C 109.53698,167.84926 109.91908,166.40923 110.68327,165.28400 C 111.44750,164.17215 112.57720,163.38850 114.07237,162.93306" />
  

  <metadata>
    <rdf:RDF 
     xmlns="http://web.resource.org/cc/"
     xmlns:dc="http://purl.org/dc/elements/1.1/"
     xmlns:rdf="http://www.w3.org/1999/02/22-rdf-syntax-ns#">
      <Work rdf:about="">
        <dc:title>card</dc:title>
        <dc:description></dc:description>
        <dc:subject>
          <rdf:Bag>
            <rdf:li>white</rdf:li>
            <rdf:li>card</rdf:li>
          </rdf:Bag>
        </dc:subject>
        <dc:publisher>
           <Agent>
             <dc:title></dc:title>
           </Agent>
         </dc:publisher>
         <dc:creator>
           <Agent>
             <dc:title>Nicu Buculei</dc:title>
           </Agent>
        </dc:creator>
         <dc:rights>
           <Agent>
             <dc:title>Nicu Buculei</dc:title>
           </Agent>
        </dc:rights>
        <dc:date></dc:date>
        <dc:format>image/svg+xml</dc:format>
        <dc:type rdf:resource="http://purl.org/dc/dcmitype/StillImage" />
        <license rdf:resource="http://web.resource.org/cc/PublicDomain" />
        <dc:language>en</dc:language>
      </Work>

      <License rdf:about="http://web.resource.org/cc/PublicDomain">
         <permits rdf:resource="http://web.resource.org/cc/Reproduction" />
         <permits rdf:resource="http://web.resource.org/cc/Distribution" />
         <permits rdf:resource="http://web.resource.org/cc/DerivativeWorks" />
      </License>

    </rdf:RDF>
  </metadata>
</svg>
