<?xml version="1.0" encoding="UTF-8" standalone="no"?>
<!-- Created with Inkscape (http://www.inkscape.org/) -->
<svg
   xmlns:dc="http://purl.org/dc/elements/1.1/"
   xmlns:cc="http://web.resource.org/cc/"
   xmlns:rdf="http://www.w3.org/1999/02/22-rdf-syntax-ns#"
   xmlns:svg="http://www.w3.org/2000/svg"
   xmlns="http://www.w3.org/2000/svg"
   xmlns:xlink="http://www.w3.org/1999/xlink"
   xmlns:sodipodi="http://inkscape.sourceforge.net/DTD/sodipodi-0.dtd"
   xmlns:inkscape="http://www.inkscape.org/namespaces/inkscape"
   id="svg2"
   height="190.00000"
   width="140.00000"
   preserveAspectRatio="xMinYMin meet"
   viewBox="0 0 140 190"
   y="0.0000000"
   x="0.0000000"
   version="1.0"
   sodipodi:version="0.32"
   inkscape:version="0.41+cvs"
   sodipodi:docname="white_c_4.svg"
   sodipodi:docbase="/home/nicu/Desktop/card_nicu_buculei_01.zip_FILES/cards/white">
  <sodipodi:namedview
     id="base"
     pagecolor="#ffffff"
     bordercolor="#666666"
     borderopacity="1.0"
     inkscape:pageopacity="0.0"
     inkscape:pageshadow="2"
     inkscape:window-width="1152"
     inkscape:window-height="791"
     inkscape:zoom="1.0000000"
     inkscape:cx="70.000000"
     inkscape:cy="95.000000"
     inkscape:window-x="0"
     inkscape:window-y="26"
     inkscape:current-layer="svg2" />
  <defs
     id="defs3">
    <linearGradient
       id="linearGradient2060">
      <stop
         id="stop2062"
         offset="0.0000000"
         style="stop-color:#ebf0d0;stop-opacity:1.0000000;" />
      <stop
         id="stop2064"
         offset="1.0000000"
         style="stop-color:#ffffeb;stop-opacity:1.0000000;" />
    </linearGradient>
    <linearGradient
       gradientTransform="translate(0.000000,-1.000000)"
       gradientUnits="userSpaceOnUse"
       xlink:href="#linearGradient2060"
       id="linearGradient4853"
       y2="128.69501"
       x2="109.00000"
       y1="63.099518"
       x1="2.0000000" />
  </defs>
  <g
     inkscape:label="Layer 1"
     inkscape:groupmode="layer"
     id="layer1">
    <g
       id="g5630">
      <path
         style="fill:#ffffff;fill-opacity:1.0000000;stroke:black;stroke-width:0.70000000;stroke-miterlimit:4.0000000;stroke-dashoffset:0.0000000;stroke-opacity:1.0000000"
         d="M 18.000000,1.9999995 L 121.00000,1.9999995 C 129.86400,1.9999995 137.00000,9.1359995 137.00000,18.000000 L 137.00000,171.00000 C 137.00000,179.86400 129.86400,187.00000 121.00000,187.00000 L 18.000000,187.00000 C 9.1360000,187.00000 2.0000000,179.86400 2.0000000,171.00000 L 2.0000000,18.000000 C 2.0000000,9.1359995 9.1360000,1.9999995 18.000000,1.9999995 z "
         id="rect1306" />
    </g>
    <g
       transform="translate(-448.5000,-231.5000)"
       id="g5495"
       inkscape:groupmode="layer"
       inkscape:label="Layer 1" />
  </g>
  <g
     id="g1729"
     style="stroke-opacity:1.0000000;stroke:none"
     transform="matrix(0.593136,0.000000,0.000000,0.238935,-103.0530,9.255993)" />
  <g
     id="g2352"
     transform="translate(333.5000,184.5000)" />
  <path
     sodipodi:nodetypes="cscsssccccccssscsc"
     id="path2248"
     style="fill:#000000;fill-opacity:1.0000000;fill-rule:evenodd;stroke:none;stroke-width:1.0000000pt;stroke-linecap:butt;stroke-linejoin:miter;stroke-opacity:1.0000000"
     d="M 87.198800,45.000000 C 85.645640,45.000000 84.385420,46.917780 84.385420,49.281360 C 84.385420,51.294960 86.943800,54.682760 86.844440,56.291670 C 86.022980,56.751450 83.485040,52.508720 82.173380,52.508720 C 80.620220,52.508720 79.360000,54.426500 79.360000,56.790070 C 79.360000,59.153650 80.620220,61.071430 82.173380,61.071430 C 83.520420,61.071430 85.828920,56.832190 86.844440,57.214940 L 85.138360,64.780000 L 89.229570,64.755490 C 89.229570,64.755490 87.437260,57.421030 87.435030,57.247620 L 87.467250,57.247620 L 87.467250,57.255790 C 88.461740,56.879870 90.849140,61.153130 92.186630,61.153140 C 93.739790,61.153140 95.000010,59.235360 95.000000,56.871780 C 95.000000,54.508200 93.739790,52.590420 92.186630,52.590420 C 90.880310,52.590420 88.512420,56.762990 87.472620,56.332520 C 87.487220,54.683930 90.012170,51.292740 90.012170,49.281360 C 90.012170,46.917780 88.751950,45.000000 87.198800,45.000000 z " />
  <path
     sodipodi:nodetypes="cscsssccccccssscsc"
     id="path2260"
     style="fill:#000000;fill-opacity:1.0000000;fill-rule:evenodd;stroke:none;stroke-width:1.0000000pt;stroke-linecap:butt;stroke-linejoin:miter;stroke-opacity:1.0000000"
     d="M 53.161210,142.00000 C 54.714370,142.00000 55.974590,140.08222 55.974590,137.71865 C 55.974590,135.70505 53.416210,132.31725 53.515570,130.70834 C 54.337030,130.24856 56.874970,134.49129 58.186630,134.49129 C 59.739790,134.49129 61.000000,132.57351 61.000000,130.20994 C 61.000000,127.84636 59.739790,125.92858 58.186630,125.92858 C 56.839590,125.92858 54.531090,130.16782 53.515570,129.78507 L 55.221650,122.22000 L 51.130440,122.24452 C 51.130440,122.24452 52.922750,129.57898 52.924970,129.75239 L 52.892760,129.75239 L 52.892760,129.74421 C 51.898260,130.12013 49.510870,125.84688 48.173380,125.84687 C 46.620220,125.84687 45.360000,127.76465 45.360000,130.12823 C 45.360000,132.49181 46.620220,134.40959 48.173380,134.40959 C 49.479700,134.40959 51.847590,130.23702 52.887390,130.66749 C 52.872780,132.31607 50.347840,135.70727 50.347840,137.71865 C 50.347840,140.08222 51.608050,142.00000 53.161210,142.00000 z " />
  <path
     sodipodi:nodetypes="cscsssccccccssscsc"
     id="path908"
     style="fill:#000000;fill-opacity:1.0000000;fill-rule:evenodd;stroke:none;stroke-width:1.0000000pt;stroke-linecap:butt;stroke-linejoin:miter;stroke-opacity:1.0000000"
     d="M 20.527261,48.665000 C 17.860877,48.665000 15.697394,51.928523 15.697394,55.950664 C 15.697394,59.377240 20.089490,65.142330 19.918919,67.880240 C 18.508668,68.662660 14.151660,61.442720 11.899866,61.442720 C 9.2334820,61.442720 7.0700000,64.706240 7.0700000,68.728380 C 7.0700000,72.750530 9.2334820,76.014050 11.899866,76.014050 C 14.212394,76.014050 18.175527,68.800060 19.918919,69.451390 L 16.990005,82.325000 L 24.013589,82.283290 C 24.013589,82.283290 20.936644,69.802100 20.932822,69.507000 L 20.988126,69.507000 L 20.988126,69.520910 C 22.695429,68.881200 26.793987,76.153080 29.090134,76.153090 C 31.756521,76.153090 33.920003,72.889570 33.920000,68.867420 C 33.920000,64.845280 31.756521,61.581760 29.090134,61.581760 C 26.847510,61.581760 22.782426,68.682290 20.997343,67.949760 C 21.022420,65.144330 25.357127,59.373473 25.357127,55.950664 C 25.357127,51.928523 23.193647,48.665000 20.527261,48.665000 z " />
  <path
     id="text2358"
     style="font-size:37.418446;font-style:normal;font-variant:normal;font-weight:bold;font-stretch:normal;fill:#000000;fill-opacity:1.0000000;stroke:none;stroke-width:1.0000000px;stroke-linecap:butt;stroke-linejoin:miter;stroke-opacity:1.0000000;font-family:Bitstream Vera Sans;text-anchor:start;writing-mode:lr-tb"
     d="M 21.284569,18.607990 L 14.273781,31.166464 L 21.284569,31.166464 L 21.284569,18.607990 M 20.221321,12.238332 L 27.331788,12.238332 L 27.331788,31.166464 L 30.870409,31.166464 L 30.870409,36.772566 L 27.331788,36.772566 L 27.331788,42.238015 L 21.284569,42.238015 L 21.284569,36.772566 L 10.286603,36.772566 L 10.286603,30.141692 L 20.221321,12.238332" />
  <path
     sodipodi:nodetypes="cscsssccccccssscsc"
     id="path2167"
     style="fill:#000000;fill-opacity:1.0000000;fill-rule:evenodd;stroke:none;stroke-width:1.0000000pt;stroke-linecap:butt;stroke-linejoin:miter;stroke-opacity:1.0000000"
     d="M 117.41824,139.96250 C 120.08462,139.96250 122.24811,136.69898 122.24811,132.67684 C 122.24811,129.25026 117.85601,123.48517 118.02658,120.74726 C 119.43683,119.96484 123.79384,127.18478 126.04563,127.18478 C 128.71202,127.18478 130.87550,123.92126 130.87550,119.89912 C 130.87550,115.87697 128.71202,112.61345 126.04563,112.61345 C 123.73311,112.61345 119.76997,119.82744 118.02658,119.17611 L 120.95550,106.30250 L 113.93191,106.34421 C 113.93191,106.34421 117.00886,118.82540 117.01268,119.12050 L 116.95737,119.12050 L 116.95737,119.10659 C 115.25007,119.74630 111.15151,112.47442 108.85537,112.47441 C 106.18898,112.47441 104.02550,115.73793 104.02550,119.76008 C 104.02550,123.78222 106.18898,127.04574 108.85537,127.04574 C 111.09799,127.04574 115.16307,119.94521 116.94816,120.67774 C 116.92308,123.48317 112.58837,129.25403 112.58837,132.67684 C 112.58837,136.69898 114.75185,139.96250 117.41824,139.96250 z " />
  <path
     id="text2179"
     style="font-size:37.418446;font-style:normal;font-variant:normal;font-weight:bold;font-stretch:normal;fill:#000000;fill-opacity:1.0000000;stroke:none;stroke-width:1.0000000px;stroke-linecap:butt;stroke-linejoin:miter;stroke-opacity:1.0000000;font-family:Bitstream Vera Sans;text-anchor:start;writing-mode:lr-tb"
     d="M 117.39543,170.53028 L 124.40622,157.97180 L 117.39543,157.97180 L 117.39543,170.53028 M 118.45868,176.89994 L 111.34821,176.89994 L 111.34821,157.97180 L 107.80958,157.97180 L 107.80958,152.36570 L 111.34821,152.36570 L 111.34821,146.90025 L 117.39543,146.90025 L 117.39543,152.36570 L 128.39339,152.36570 L 128.39339,158.99657 L 118.45868,176.89994" />
  <path
     sodipodi:nodetypes="cscsssccccccssscsc"
     id="path2242"
     style="fill:#000000;fill-opacity:1.0000000;fill-rule:evenodd;stroke:none;stroke-width:1.0000000pt;stroke-linecap:butt;stroke-linejoin:miter;stroke-opacity:1.0000000"
     d="M 51.198790,45.000000 C 49.645640,45.000000 48.385420,46.917780 48.385420,49.281360 C 48.385420,51.294950 50.943790,54.682760 50.844430,56.291660 C 50.022970,56.751450 47.485030,52.508710 46.173370,52.508710 C 44.620220,52.508710 43.360000,54.426490 43.360000,56.790070 C 43.360000,59.153650 44.620220,61.071430 46.173370,61.071430 C 47.520410,61.071430 49.828920,56.832190 50.844430,57.214940 L 49.138360,64.780000 L 53.229560,64.755490 C 53.229560,64.755490 51.437260,57.421030 51.435030,57.247620 L 51.467240,57.247620 L 51.467240,57.255790 C 52.461740,56.879870 54.849130,61.153130 56.186630,61.153130 C 57.739780,61.153130 59.000000,59.235350 59.000000,56.871770 C 59.000000,54.508200 57.739780,52.590420 56.186630,52.590420 C 54.880310,52.590420 52.512410,56.762980 51.472610,56.332520 C 51.487220,54.683930 54.012170,51.292740 54.012170,49.281360 C 54.012170,46.917780 52.751950,45.000000 51.198790,45.000000 z " />
  <path
     sodipodi:nodetypes="cscsssccccccssscsc"
     id="path2264"
     style="fill:#000000;fill-opacity:1.0000000;fill-rule:evenodd;stroke:none;stroke-width:1.0000000pt;stroke-linecap:butt;stroke-linejoin:miter;stroke-opacity:1.0000000"
     d="M 87.801210,141.78000 C 89.354360,141.78000 90.614580,139.86222 90.614580,137.49864 C 90.614580,135.48505 88.056210,132.09724 88.155570,130.48833 C 88.977030,130.02855 91.514970,134.27128 92.826630,134.27128 C 94.379780,134.27128 95.640000,132.35351 95.640000,129.98993 C 95.640000,127.62635 94.379780,125.70857 92.826630,125.70857 C 91.479590,125.70857 89.171080,129.94781 88.155570,129.56506 L 89.861640,122.00000 L 85.770440,122.02451 C 85.770440,122.02451 87.562740,129.35897 87.564970,129.53238 L 87.532760,129.53238 L 87.532760,129.52421 C 86.538260,129.90013 84.150870,125.62687 82.813370,125.62687 C 81.260220,125.62687 80.000000,127.54465 80.000000,129.90823 C 80.000000,132.27180 81.260220,134.18958 82.813370,134.18958 C 84.119690,134.18958 86.487590,130.01702 87.527390,130.44748 C 87.512780,132.09607 84.987830,135.48726 84.987830,137.49864 C 84.987830,139.86222 86.248050,141.78000 87.801210,141.78000 z " />
  

  <metadata>
    <rdf:RDF 
     xmlns="http://web.resource.org/cc/"
     xmlns:dc="http://purl.org/dc/elements/1.1/"
     xmlns:rdf="http://www.w3.org/1999/02/22-rdf-syntax-ns#">
      <Work rdf:about="">
        <dc:title>card</dc:title>
        <dc:description></dc:description>
        <dc:subject>
          <rdf:Bag>
            <rdf:li>white</rdf:li>
            <rdf:li>card</rdf:li>
          </rdf:Bag>
        </dc:subject>
        <dc:publisher>
           <Agent>
             <dc:title></dc:title>
           </Agent>
         </dc:publisher>
         <dc:creator>
           <Agent>
             <dc:title>Nicu Buculei</dc:title>
           </Agent>
        </dc:creator>
         <dc:rights>
           <Agent>
             <dc:title>Nicu Buculei</dc:title>
           </Agent>
        </dc:rights>
        <dc:date></dc:date>
        <dc:format>image/svg+xml</dc:format>
        <dc:type rdf:resource="http://purl.org/dc/dcmitype/StillImage" />
        <license rdf:resource="http://web.resource.org/cc/PublicDomain" />
        <dc:language>en</dc:language>
      </Work>

      <License rdf:about="http://web.resource.org/cc/PublicDomain">
         <permits rdf:resource="http://web.resource.org/cc/Reproduction" />
         <permits rdf:resource="http://web.resource.org/cc/Distribution" />
         <permits rdf:resource="http://web.resource.org/cc/DerivativeWorks" />
      </License>

    </rdf:RDF>
  </metadata>
</svg>
