<?xml version="1.0" encoding="UTF-8" standalone="no"?>
<!-- Created with Inkscape (http://www.inkscape.org/) -->
<svg
   xmlns:dc="http://purl.org/dc/elements/1.1/"
   xmlns:cc="http://web.resource.org/cc/"
   xmlns:rdf="http://www.w3.org/1999/02/22-rdf-syntax-ns#"
   xmlns:svg="http://www.w3.org/2000/svg"
   xmlns="http://www.w3.org/2000/svg"
   xmlns:xlink="http://www.w3.org/1999/xlink"
   xmlns:sodipodi="http://inkscape.sourceforge.net/DTD/sodipodi-0.dtd"
   xmlns:inkscape="http://www.inkscape.org/namespaces/inkscape"
   id="svg2"
   height="190.00000"
   preserveAspectRatio="xMinYMin meet"
   viewBox="0 0 140 190"
   y="0.0000000"
   x="0.0000000"
   version="1.0"
   sodipodi:version="0.32"
   inkscape:version="0.41+cvs"
   sodipodi:docname="white_c_5.svg"
   sodipodi:docbase="/home/nicu/Desktop/card_nicu_buculei_01.zip_FILES/cards/white">
  <sodipodi:namedview
     id="base"
     pagecolor="#ffffff"
     bordercolor="#666666"
     borderopacity="1.0"
     inkscape:pageopacity="0.0"
     inkscape:pageshadow="2"
     inkscape:window-width="1152"
     inkscape:window-height="791"
     inkscape:zoom="1.0000000"
     inkscape:cx="70.000000"
     inkscape:cy="95.000000"
     inkscape:window-x="0"
     inkscape:window-y="26"
     inkscape:current-layer="svg2" />
  <defs
     id="defs3">
    <linearGradient
       id="linearGradient2060">
      <stop
         id="stop2062"
         offset="0.0000000"
         style="stop-color:#ebf0d0;stop-opacity:1.0000000;" />
      <stop
         id="stop2064"
         offset="1.0000000"
         style="stop-color:#ffffeb;stop-opacity:1.0000000;" />
    </linearGradient>
    <linearGradient
       gradientTransform="translate(0.000000,-1.000000)"
       gradientUnits="userSpaceOnUse"
       xlink:href="#linearGradient2060"
       id="linearGradient4853"
       y2="128.69501"
       x2="109.00000"
       y1="63.099518"
       x1="2.0000000" />
  </defs>
  <g
     inkscape:label="Layer 1"
     inkscape:groupmode="layer"
     id="layer1">
    <g
       id="g5630">
      <path
         style="fill:#ffffff;fill-opacity:1.0000000;stroke:black;stroke-width:0.70000000;stroke-miterlimit:4.0000000;stroke-dashoffset:0.0000000;stroke-opacity:1.0000000"
         d="M 18.000000,1.9999995 L 121.00000,1.9999995 C 129.86400,1.9999995 137.00000,9.1359995 137.00000,18.000000 L 137.00000,171.00000 C 137.00000,179.86400 129.86400,187.00000 121.00000,187.00000 L 18.000000,187.00000 C 9.1360000,187.00000 2.0000000,179.86400 2.0000000,171.00000 L 2.0000000,18.000000 C 2.0000000,9.1359995 9.1360000,1.9999995 18.000000,1.9999995 z "
         id="rect1306" />
    </g>
    <g
       transform="translate(-448.5000,-231.5000)"
       id="g5495"
       inkscape:groupmode="layer"
       inkscape:label="Layer 1" />
  </g>
  <g
     id="g2352"
     transform="translate(333.5000,184.5000)" />
  <g
     id="g3925"
     transform="translate(329.5000,183.5000)">
    <path
       id="text2531"
       style="font-size:37.418446;font-style:normal;font-variant:normal;font-weight:bold;font-stretch:normal;fill:#000000;fill-opacity:1.0000000;stroke:none;stroke-width:1.0000000px;stroke-linecap:butt;stroke-linejoin:miter;stroke-opacity:1.0000000;font-family:Bitstream Vera Sans;text-anchor:start;writing-mode:lr-tb"
       transform="scale(0.909282,1.099768)"
       d="M -348.77701,-155.72523 L -331.29193,-155.72523 L -331.29193,-150.55461 L -343.16790,-150.55461 L -343.16790,-146.33408 C -342.63197,-146.48022 -342.09603,-146.58985 -341.56008,-146.66295 C -341.01197,-146.74820 -340.44557,-146.79083 -339.86090,-146.79085 C -336.53564,-146.79083 -333.94729,-145.95646 -332.09584,-144.28776 C -330.24443,-142.63120 -329.31871,-140.31691 -329.31869,-137.34488 C -329.31871,-134.39720 -330.32969,-132.08900 -332.35163,-130.42028 C -334.36143,-128.75155 -337.15685,-127.91719 -340.73789,-127.91719 C -342.28483,-127.91719 -343.81956,-128.06944 -345.34212,-128.37395 C -346.85250,-128.66629 -348.35679,-129.11696 -349.85499,-129.72599 L -349.85499,-135.26202 C -348.36897,-134.40938 -346.96213,-133.76990 -345.63445,-133.34359 C -344.29460,-132.91727 -343.03392,-132.70411 -341.85241,-132.70412 C -340.14715,-132.70411 -338.80730,-133.11825 -337.83285,-133.94653 C -336.84625,-134.78697 -336.35294,-135.91976 -336.35292,-137.34488 C -336.35294,-138.78217 -336.84625,-139.91495 -337.83285,-140.74323 C -338.80730,-141.57149 -340.14715,-141.98563 -341.85241,-141.98564 C -342.86340,-141.98563 -343.94137,-141.85165 -345.08633,-141.58369 C -346.23130,-141.32789 -347.46153,-140.92593 -348.77701,-140.37782 L -348.77701,-155.72523" />
    <path
       id="text2637"
       style="font-size:37.418446;font-style:normal;font-variant:normal;font-weight:bold;font-stretch:normal;fill:#000000;fill-opacity:1.0000000;stroke:none;stroke-width:1.0000000px;stroke-linecap:butt;stroke-linejoin:miter;stroke-opacity:1.0000000;font-family:Bitstream Vera Sans;text-anchor:start;writing-mode:lr-tb"
       transform="scale(-0.909282,-1.099768)"
       d="M 223.45481,5.9103408 L 240.93990,5.9103408 L 240.93990,11.080956 L 229.06393,11.080956 L 229.06393,15.301494 C 229.59986,15.155346 230.13580,15.045722 230.67175,14.972621 C 231.21986,14.887375 231.78625,14.844744 232.37093,14.844725 C 235.69618,14.844744 238.28453,15.679106 240.13599,17.347815 C 241.98740,19.004375 242.91311,21.318664 242.91314,24.290691 C 242.91311,27.238373 241.90213,29.546573 239.88020,31.215295 C 237.87040,32.884022 235.07498,33.718384 231.49393,33.718385 C 229.94700,33.718384 228.41226,33.566128 226.88971,33.261617 C 225.37932,32.969285 223.87504,32.518608 222.37684,31.909583 L 222.37684,26.373553 C 223.86286,27.226193 225.26970,27.865668 226.59738,28.291979 C 227.93722,28.718301 229.19790,28.931459 230.37942,28.931455 C 232.08467,28.931459 233.42453,28.517323 234.39898,27.689045 C 235.38558,26.848598 235.87889,25.715815 235.87891,24.290691 C 235.87889,22.853404 235.38558,21.720620 234.39898,20.892336 C 233.42453,20.064076 232.08467,19.649940 230.37942,19.649926 C 229.36843,19.649940 228.29046,19.783925 227.14550,20.051882 C 226.00053,20.307685 224.77030,20.709641 223.45481,21.257750 L 223.45481,5.9103408" />
  </g>
  <path
     sodipodi:nodetypes="cscsssccccccssscsc"
     id="path908"
     style="fill:#000000;fill-opacity:1.0000000;fill-rule:evenodd;stroke:none;stroke-width:1.0000000pt;stroke-linecap:butt;stroke-linejoin:miter;stroke-opacity:1.0000000"
     d="M 21.457261,48.002500 C 18.790877,48.002500 16.627394,51.266023 16.627394,55.288164 C 16.627394,58.714740 21.019490,64.479830 20.848919,67.217740 C 19.438668,68.000160 15.081660,60.780220 12.829866,60.780220 C 10.163482,60.780220 8.0000000,64.043740 8.0000000,68.065880 C 8.0000000,72.088030 10.163482,75.351550 12.829866,75.351550 C 15.142394,75.351550 19.105527,68.137560 20.848919,68.788890 L 17.920005,81.662500 L 24.943589,81.620790 C 24.943589,81.620790 21.866644,69.139600 21.862822,68.844500 L 21.918126,68.844500 L 21.918126,68.858410 C 23.625429,68.218700 27.723987,75.490580 30.020134,75.490590 C 32.686521,75.490590 34.850003,72.227070 34.850000,68.204920 C 34.850000,64.182780 32.686521,60.919260 30.020134,60.919260 C 27.777510,60.919260 23.712426,68.019790 21.927343,67.287260 C 21.952420,64.481830 26.287127,58.710973 26.287127,55.288164 C 26.287127,51.266023 24.123647,48.002500 21.457261,48.002500 z " />
  <path
     sodipodi:nodetypes="cscsssccccccssscsc"
     id="path2623"
     style="fill:#000000;fill-opacity:1.0000000;fill-rule:evenodd;stroke:none;stroke-width:1.0000000pt;stroke-linecap:butt;stroke-linejoin:miter;stroke-opacity:1.0000000"
     d="M 117.41824,139.96250 C 120.08462,139.96250 122.24811,136.69898 122.24811,132.67684 C 122.24811,129.25026 117.85601,123.48517 118.02658,120.74726 C 119.43683,119.96484 123.79384,127.18478 126.04563,127.18478 C 128.71202,127.18478 130.87550,123.92126 130.87550,119.89912 C 130.87550,115.87697 128.71202,112.61345 126.04563,112.61345 C 123.73311,112.61345 119.76997,119.82744 118.02658,119.17611 L 120.95550,106.30250 L 113.93191,106.34421 C 113.93191,106.34421 117.00886,118.82540 117.01268,119.12050 L 116.95737,119.12050 L 116.95737,119.10659 C 115.25007,119.74630 111.15151,112.47442 108.85537,112.47441 C 106.18898,112.47441 104.02550,115.73793 104.02550,119.76008 C 104.02550,123.78222 106.18898,127.04574 108.85537,127.04574 C 111.09799,127.04574 115.16307,119.94521 116.94816,120.67774 C 116.92308,123.48317 112.58837,129.25403 112.58837,132.67684 C 112.58837,136.69898 114.75185,139.96250 117.41824,139.96250 z " />
  <path
     sodipodi:nodetypes="cscsssccccccssscsc"
     id="path2242"
     style="fill:#000000;fill-opacity:1.0000000;fill-rule:evenodd;stroke:none;stroke-width:1.0000000pt;stroke-linecap:butt;stroke-linejoin:miter;stroke-opacity:1.0000000"
     d="M 51.198790,45.000000 C 49.645640,45.000000 48.385420,46.917780 48.385420,49.281360 C 48.385420,51.294950 50.943790,54.682760 50.844430,56.291660 C 50.022970,56.751450 47.485030,52.508710 46.173370,52.508710 C 44.620220,52.508710 43.360000,54.426490 43.360000,56.790070 C 43.360000,59.153650 44.620220,61.071430 46.173370,61.071430 C 47.520410,61.071430 49.828920,56.832190 50.844430,57.214940 L 49.138360,64.780000 L 53.229560,64.755490 C 53.229560,64.755490 51.437260,57.421030 51.435030,57.247620 L 51.467240,57.247620 L 51.467240,57.255790 C 52.461740,56.879870 54.849130,61.153130 56.186630,61.153130 C 57.739780,61.153130 59.000000,59.235350 59.000000,56.871770 C 59.000000,54.508200 57.739780,52.590420 56.186630,52.590420 C 54.880310,52.590420 52.512410,56.762980 51.472610,56.332520 C 51.487220,54.683930 54.012170,51.292740 54.012170,49.281360 C 54.012170,46.917780 52.751950,45.000000 51.198790,45.000000 z " />
  <path
     sodipodi:nodetypes="cscsssccccccssscsc"
     id="path2250"
     style="fill:#000000;fill-opacity:1.0000000;fill-rule:evenodd;stroke:none;stroke-width:1.0000000pt;stroke-linecap:butt;stroke-linejoin:miter;stroke-opacity:1.0000000"
     d="M 70.198790,82.000000 C 68.645640,82.000000 67.385420,83.917780 67.385420,86.281360 C 67.385420,88.294950 69.943790,91.682760 69.844440,93.291660 C 69.022970,93.751450 66.485040,89.508710 65.173380,89.508710 C 63.620220,89.508710 62.360000,91.426490 62.360000,93.790070 C 62.360000,96.153650 63.620220,98.071430 65.173380,98.071430 C 66.520410,98.071430 68.828920,93.832190 69.844440,94.214940 L 68.138360,101.78000 L 72.229560,101.75549 C 72.229560,101.75549 70.437260,94.421030 70.435030,94.247620 L 70.467250,94.247620 L 70.467250,94.255790 C 71.461740,93.879870 73.849130,98.153130 75.186630,98.153130 C 76.739790,98.153130 78.000000,96.235350 78.000000,93.871770 C 78.000000,91.508200 76.739790,89.590420 75.186630,89.590420 C 73.880310,89.590420 71.512420,93.762980 70.472610,93.332520 C 70.487220,91.683930 73.012170,88.292740 73.012170,86.281360 C 73.012170,83.917780 71.751950,82.000000 70.198790,82.000000 z " />
  <path
     sodipodi:nodetypes="cscsssccccccssscsc"
     id="path2248"
     style="fill:#000000;fill-opacity:1.0000000;fill-rule:evenodd;stroke:none;stroke-width:1.0000000pt;stroke-linecap:butt;stroke-linejoin:miter;stroke-opacity:1.0000000"
     d="M 87.198800,45.000000 C 85.645640,45.000000 84.385420,46.917780 84.385420,49.281360 C 84.385420,51.294960 86.943800,54.682760 86.844440,56.291670 C 86.022980,56.751450 83.485040,52.508720 82.173380,52.508720 C 80.620220,52.508720 79.360000,54.426500 79.360000,56.790070 C 79.360000,59.153650 80.620220,61.071430 82.173380,61.071430 C 83.520420,61.071430 85.828920,56.832190 86.844440,57.214940 L 85.138360,64.780000 L 89.229570,64.755490 C 89.229570,64.755490 87.437260,57.421030 87.435030,57.247620 L 87.467250,57.247620 L 87.467250,57.255790 C 88.461740,56.879870 90.849140,61.153130 92.186630,61.153140 C 93.739790,61.153140 95.000010,59.235360 95.000000,56.871780 C 95.000000,54.508200 93.739790,52.590420 92.186630,52.590420 C 90.880310,52.590420 88.512420,56.762990 87.472620,56.332520 C 87.487220,54.683930 90.012170,51.292740 90.012170,49.281360 C 90.012170,46.917780 88.751950,45.000000 87.198800,45.000000 z " />
  <path
     sodipodi:nodetypes="cscsssccccccssscsc"
     id="path2264"
     style="fill:#000000;fill-opacity:1.0000000;fill-rule:evenodd;stroke:none;stroke-width:1.0000000pt;stroke-linecap:butt;stroke-linejoin:miter;stroke-opacity:1.0000000"
     d="M 88.161210,141.78000 C 89.714360,141.78000 90.974580,139.86222 90.974580,137.49864 C 90.974580,135.48505 88.416210,132.09724 88.515570,130.48833 C 89.337030,130.02855 91.874970,134.27128 93.186630,134.27128 C 94.739780,134.27128 96.000000,132.35351 96.000000,129.98993 C 96.000000,127.62635 94.739780,125.70857 93.186630,125.70857 C 91.839590,125.70857 89.531080,129.94781 88.515570,129.56506 L 90.221640,122.00000 L 86.130440,122.02451 C 86.130440,122.02451 87.922740,129.35897 87.924970,129.53238 L 87.892760,129.53238 L 87.892760,129.52421 C 86.898260,129.90013 84.510870,125.62687 83.173370,125.62687 C 81.620220,125.62687 80.360000,127.54465 80.360000,129.90823 C 80.360000,132.27180 81.620220,134.18958 83.173370,134.18958 C 84.479690,134.18958 86.847590,130.01702 87.887390,130.44748 C 87.872780,132.09607 85.347830,135.48726 85.347830,137.49864 C 85.347830,139.86222 86.608050,141.78000 88.161210,141.78000 z " />
  <path
     sodipodi:nodetypes="cscsssccccccssscsc"
     id="path2260"
     style="fill:#000000;fill-opacity:1.0000000;fill-rule:evenodd;stroke:none;stroke-width:1.0000000pt;stroke-linecap:butt;stroke-linejoin:miter;stroke-opacity:1.0000000"
     d="M 53.161210,141.78000 C 54.714370,141.78000 55.974590,139.86222 55.974590,137.49865 C 55.974590,135.48505 53.416210,132.09725 53.515570,130.48834 C 54.337030,130.02856 56.874970,134.27129 58.186630,134.27129 C 59.739790,134.27129 61.000000,132.35351 61.000000,129.98994 C 61.000000,127.62636 59.739790,125.70858 58.186630,125.70858 C 56.839590,125.70858 54.531090,129.94782 53.515570,129.56507 L 55.221650,122.00000 L 51.130440,122.02452 C 51.130440,122.02452 52.922750,129.35898 52.924970,129.53239 L 52.892760,129.53239 L 52.892760,129.52421 C 51.898260,129.90013 49.510870,125.62688 48.173380,125.62687 C 46.620220,125.62687 45.360000,127.54465 45.360000,129.90823 C 45.360000,132.27181 46.620220,134.18959 48.173380,134.18959 C 49.479700,134.18959 51.847590,130.01702 52.887390,130.44749 C 52.872780,132.09607 50.347840,135.48727 50.347840,137.49865 C 50.347840,139.86222 51.608050,141.78000 53.161210,141.78000 z " />
  

  <metadata>
    <rdf:RDF 
     xmlns="http://web.resource.org/cc/"
     xmlns:dc="http://purl.org/dc/elements/1.1/"
     xmlns:rdf="http://www.w3.org/1999/02/22-rdf-syntax-ns#">
      <Work rdf:about="">
        <dc:title>card</dc:title>
        <dc:description></dc:description>
        <dc:subject>
          <rdf:Bag>
            <rdf:li>white</rdf:li>
            <rdf:li>card</rdf:li>
          </rdf:Bag>
        </dc:subject>
        <dc:publisher>
           <Agent>
             <dc:title></dc:title>
           </Agent>
         </dc:publisher>
         <dc:creator>
           <Agent>
             <dc:title>Nicu Buculei</dc:title>
           </Agent>
        </dc:creator>
         <dc:rights>
           <Agent>
             <dc:title>Nicu Buculei</dc:title>
           </Agent>
        </dc:rights>
        <dc:date></dc:date>
        <dc:format>image/svg+xml</dc:format>
        <dc:type rdf:resource="http://purl.org/dc/dcmitype/StillImage" />
        <license rdf:resource="http://web.resource.org/cc/PublicDomain" />
        <dc:language>en</dc:language>
      </Work>

      <License rdf:about="http://web.resource.org/cc/PublicDomain">
         <permits rdf:resource="http://web.resource.org/cc/Reproduction" />
         <permits rdf:resource="http://web.resource.org/cc/Distribution" />
         <permits rdf:resource="http://web.resource.org/cc/DerivativeWorks" />
      </License>

    </rdf:RDF>
  </metadata>
</svg>
