<?xml version="1.0" encoding="UTF-8" standalone="no"?>
<!-- Created with Inkscape (http://www.inkscape.org/) -->
<svg
   xmlns:dc="http://purl.org/dc/elements/1.1/"
   xmlns:cc="http://web.resource.org/cc/"
   xmlns:rdf="http://www.w3.org/1999/02/22-rdf-syntax-ns#"
   xmlns:svg="http://www.w3.org/2000/svg"
   xmlns="http://www.w3.org/2000/svg"
   xmlns:xlink="http://www.w3.org/1999/xlink"
   xmlns:sodipodi="http://inkscape.sourceforge.net/DTD/sodipodi-0.dtd"
   xmlns:inkscape="http://www.inkscape.org/namespaces/inkscape"
   id="svg2"
 
   preserveAspectRatio="xMinYMin meet"
   viewBox="0 0 140 190"
   y="0.0000000"
   x="0.0000000"
   version="1.0"
   sodipodi:version="0.32"
   inkscape:version="0.41+cvs"
   sodipodi:docname="white_c_6.svg"
   sodipodi:docbase="/home/nicu/Desktop/card_nicu_buculei_01.zip_FILES/cards/white">
  <sodipodi:namedview
     id="base"
     pagecolor="#ffffff"
     bordercolor="#666666"
     borderopacity="1.0"
     inkscape:pageopacity="0.0"
     inkscape:pageshadow="2"
     inkscape:window-width="1152"
     inkscape:window-height="791"
     inkscape:zoom="1.0000000"
     inkscape:cx="70.000000"
     inkscape:cy="95.000000"
     inkscape:window-x="0"
     inkscape:window-y="26"
     inkscape:current-layer="svg2" />
  <defs
     id="defs3">
    <linearGradient
       id="linearGradient2060">
      <stop
         id="stop2062"
         offset="0.0000000"
         style="stop-color:#ebf0d0;stop-opacity:1.0000000;" />
      <stop
         id="stop2064"
         offset="1.0000000"
         style="stop-color:#ffffeb;stop-opacity:1.0000000;" />
    </linearGradient>
    <linearGradient
       gradientTransform="translate(0.000000,-1.000000)"
       gradientUnits="userSpaceOnUse"
       xlink:href="#linearGradient2060"
       id="linearGradient4853"
       y2="128.69501"
       x2="109.00000"
       y1="63.099518"
       x1="2.0000000" />
  </defs>
  <g
     inkscape:label="Layer 1"
     inkscape:groupmode="layer"
     id="layer1">
    <g
       id="g5630">
      <path
         style="fill:#ffffff;fill-opacity:1.0000000;stroke:black;stroke-width:0.70000000;stroke-miterlimit:4.0000000;stroke-dashoffset:0.0000000;stroke-opacity:1.0000000"
         d="M 18.000000,1.9999995 L 121.00000,1.9999995 C 129.86400,1.9999995 137.00000,9.1359995 137.00000,18.000000 L 137.00000,171.00000 C 137.00000,179.86400 129.86400,187.00000 121.00000,187.00000 L 18.000000,187.00000 C 9.1360000,187.00000 2.0000000,179.86400 2.0000000,171.00000 L 2.0000000,18.000000 C 2.0000000,9.1359995 9.1360000,1.9999995 18.000000,1.9999995 z "
         id="rect1306" />
    </g>
    <g
       transform="translate(-448.5000,-231.5000)"
       id="g5495"
       inkscape:groupmode="layer"
       inkscape:label="Layer 1" />
  </g>
  <g
     id="g2352"
     transform="translate(333.5000,184.5000)" />
  <g
     id="g3925"
     transform="translate(329.5000,183.5000)" />
  <path
     id="text2666"
     style="font-size:37.418446;font-style:normal;font-variant:normal;font-weight:bold;font-stretch:normal;fill:#000000;fill-opacity:1.0000000;stroke:none;stroke-width:1.0000000px;stroke-linecap:butt;stroke-linejoin:miter;stroke-opacity:1.0000000;font-family:Bitstream Vera Sans;text-anchor:start;writing-mode:lr-tb"
     d="M 21.068686,27.429128 C 19.950041,27.429139 19.108310,27.871202 18.543473,28.755305 C 17.989684,29.626036 17.712799,30.938818 17.712808,32.693640 C 17.712799,34.448485 17.989684,35.767965 18.543473,36.652068 C 19.108310,37.522799 19.950041,37.958153 21.068686,37.958153 C 22.198368,37.958153 23.040109,37.522799 23.593898,36.652068 C 24.158726,35.767965 24.441158,34.448485 24.441167,32.693640 C 24.441158,30.938818 24.158726,29.626036 23.593898,28.755305 C 23.040109,27.871202 22.198368,27.429139 21.068686,27.429128 M 28.976584,13.022046 L 28.976584,18.567868 C 27.924390,17.965085 26.933136,17.523023 26.002813,17.241691 C 25.072454,16.947008 24.164263,16.799661 23.278241,16.799639 C 21.373250,16.799661 19.889129,17.442652 18.825896,18.728621 C 17.762636,20.001229 17.142406,21.896723 16.965214,24.415093 C 17.696186,23.758718 18.488080,23.269783 19.340904,22.948266 C 20.193702,22.613387 21.124043,22.445947 22.131927,22.445925 C 24.668206,22.445947 26.711626,23.343457 28.262216,25.138465 C 29.823835,26.933507 30.604662,29.284448 30.604681,32.191299 C 30.604662,35.406273 29.735234,37.984943 27.996405,39.927320 C 26.257531,41.856303 23.926141,42.820788 21.002226,42.820788 C 17.779249,42.820788 15.281733,41.508017 13.509661,38.882453 C 11.748654,36.243505 10.868151,32.506108 10.868151,27.670252 C 10.868151,22.713862 11.898167,18.822410 13.958219,15.995896 C 16.029327,13.156031 18.864650,11.736087 22.464197,11.736054 C 23.604955,11.736087 24.712506,11.843249 25.786841,12.057550 C 26.861148,12.271916 27.924390,12.593412 28.976584,13.022046" />
  <path
     id="text3033"
     style="font-size:37.418446;font-style:normal;font-variant:normal;font-weight:bold;font-stretch:normal;fill:#000000;fill-opacity:1.0000000;stroke:none;stroke-width:1.0000000px;stroke-linecap:butt;stroke-linejoin:miter;stroke-opacity:1.0000000;font-family:Bitstream Vera Sans;text-anchor:start;writing-mode:lr-tb"
     d="M 117.85152,161.90096 C 118.97015,161.90094 119.81189,161.45888 120.37673,160.57478 C 120.93052,159.70405 121.20740,158.39127 121.20739,156.63644 C 121.20740,154.88160 120.93052,153.56212 120.37673,152.67801 C 119.81189,151.80729 118.97015,151.37193 117.85152,151.37193 C 116.72183,151.37193 115.88009,151.80729 115.32630,152.67801 C 114.76147,153.56212 114.47904,154.88160 114.47903,156.63644 C 114.47904,158.39127 114.76147,159.70405 115.32630,160.57478 C 115.88009,161.45888 116.72183,161.90094 117.85152,161.90096 M 109.94362,176.30804 L 109.94362,170.76222 C 110.99580,171.36500 111.98707,171.80706 112.91739,172.08839 C 113.84774,172.38307 114.75593,172.53043 115.64195,172.53045 C 117.54695,172.53043 119.03107,171.88743 120.09431,170.60147 C 121.15757,169.32885 121.77779,167.43336 121.95499,164.91499 C 121.22402,165.57136 120.43211,166.06031 119.57930,166.38182 C 118.72649,166.71669 117.79615,166.88414 116.78827,166.88416 C 114.25200,166.88414 112.20857,165.98663 110.65799,164.19162 C 109.09636,162.39658 108.31554,160.04564 108.31551,157.13878 C 108.31554,153.92381 109.18497,151.34514 110.92380,149.40276 C 112.66266,147.47378 114.99405,146.50929 117.91797,146.50929 C 121.14094,146.50929 123.63847,147.82207 125.41054,150.44763 C 127.17155,153.08658 128.05205,156.82398 128.05205,161.65984 C 128.05205,166.61623 127.02203,170.50768 124.96198,173.33419 C 122.89088,176.17405 120.05555,177.59400 116.45600,177.59403 C 115.31525,177.59400 114.20770,177.48683 113.13336,177.27253 C 112.05905,177.05817 110.99580,176.73667 109.94362,176.30804" />
  <path
     sodipodi:nodetypes="cscsssccccccssscsc"
     id="path908"
     style="fill:#000000;fill-opacity:1.0000000;fill-rule:evenodd;stroke:none;stroke-width:1.0000000pt;stroke-linecap:butt;stroke-linejoin:miter;stroke-opacity:1.0000000"
     d="M 20.527260,48.665000 C 17.860880,48.665000 15.697390,51.928520 15.697390,55.950660 C 15.697390,59.377240 20.089490,65.142330 19.918920,67.880240 C 18.508670,68.662660 14.151660,61.442720 11.899870,61.442720 C 9.2334800,61.442720 7.0700000,64.706240 7.0700000,68.728380 C 7.0700000,72.750530 9.2334800,76.014050 11.899870,76.014050 C 14.212390,76.014050 18.175530,68.800060 19.918920,69.451390 L 16.990000,82.325000 L 24.013590,82.283290 C 24.013590,82.283290 20.936640,69.802100 20.932820,69.507000 L 20.988130,69.507000 L 20.988130,69.520910 C 22.695430,68.881200 26.793990,76.153080 29.090130,76.153090 C 31.756520,76.153090 33.920000,72.889570 33.920000,68.867420 C 33.920000,64.845280 31.756520,61.581760 29.090130,61.581760 C 26.847510,61.581760 22.782430,68.682290 20.997340,67.949760 C 21.022420,65.144330 25.357130,59.373470 25.357130,55.950660 C 25.357130,51.928520 23.193650,48.665000 20.527260,48.665000 z " />
  <path
     sodipodi:nodetypes="cscsssccccccssscsc"
     id="path3043"
     style="fill:#000000;fill-opacity:1.0000000;fill-rule:evenodd;stroke:none;stroke-width:1.0000000pt;stroke-linecap:butt;stroke-linejoin:miter;stroke-opacity:1.0000000"
     d="M 117.82274,139.96250 C 120.48912,139.96250 122.65261,136.69898 122.65261,132.67684 C 122.65261,129.25026 118.26051,123.48517 118.43108,120.74726 C 119.84133,119.96484 124.19834,127.18478 126.45013,127.18478 C 129.11652,127.18478 131.28000,123.92126 131.28000,119.89912 C 131.28000,115.87697 129.11652,112.61345 126.45013,112.61345 C 124.13761,112.61345 120.17447,119.82744 118.43108,119.17611 L 121.35999,106.30250 L 114.33641,106.34421 C 114.33641,106.34421 117.41336,118.82540 117.41718,119.12050 L 117.36187,119.12050 L 117.36187,119.10659 C 115.65457,119.74630 111.55601,112.47442 109.25987,112.47441 C 106.59348,112.47441 104.43000,115.73793 104.43000,119.76008 C 104.43000,123.78222 106.59348,127.04574 109.25987,127.04574 C 111.50249,127.04574 115.56757,119.94521 117.35266,120.67774 C 117.32758,123.48317 112.99287,129.25403 112.99287,132.67684 C 112.99287,136.69898 115.15635,139.96250 117.82274,139.96250 z " />
  <path
     sodipodi:nodetypes="cscsssccccccssscsc"
     id="path2242"
     style="fill:#000000;fill-opacity:1.0000000;fill-rule:evenodd;stroke:none;stroke-width:1.0000000pt;stroke-linecap:butt;stroke-linejoin:miter;stroke-opacity:1.0000000"
     d="M 51.198790,45.000000 C 49.645640,45.000000 48.385420,46.917780 48.385420,49.281350 C 48.385420,51.294950 50.943790,54.682750 50.844440,56.291660 C 50.022970,56.751440 47.485030,52.508710 46.173370,52.508710 C 44.620220,52.508710 43.360000,54.426490 43.360000,56.790060 C 43.360000,59.153640 44.620220,61.071420 46.173370,61.071420 C 47.520410,61.071420 49.828920,56.832180 50.844440,57.214930 L 49.138360,64.780000 L 53.229560,64.755480 C 53.229560,64.755480 51.437260,57.421020 51.435030,57.247610 L 51.467240,57.247610 L 51.467240,57.255790 C 52.461740,56.879860 54.849130,61.153120 56.186630,61.153130 C 57.739780,61.153130 59.000000,59.235350 59.000000,56.871770 C 59.000000,54.508190 57.739780,52.590410 56.186630,52.590410 C 54.880310,52.590410 52.512420,56.762980 51.472610,56.332510 C 51.487220,54.683930 54.012170,51.292730 54.012170,49.281350 C 54.012170,46.917780 52.751950,45.000000 51.198790,45.000000 z " />
  <path
     sodipodi:nodetypes="cscsssccccccssscsc"
     id="path2248"
     style="fill:#000000;fill-opacity:1.0000000;fill-rule:evenodd;stroke:none;stroke-width:1.0000000pt;stroke-linecap:butt;stroke-linejoin:miter;stroke-opacity:1.0000000"
     d="M 87.198800,45.000000 C 85.645640,45.000000 84.385420,46.917780 84.385420,49.281350 C 84.385420,51.294950 86.943800,54.682760 86.844440,56.291660 C 86.022980,56.751450 83.485040,52.508710 82.173380,52.508710 C 80.620220,52.508710 79.360000,54.426490 79.360000,56.790060 C 79.360000,59.153650 80.620220,61.071430 82.173380,61.071430 C 83.520420,61.071430 85.828920,56.832190 86.844440,57.214930 L 85.138360,64.780000 L 89.229570,64.755490 C 89.229570,64.755490 87.437260,57.421030 87.435030,57.247620 L 87.467250,57.247620 L 87.467250,57.255790 C 88.461740,56.879870 90.849140,61.153130 92.186630,61.153140 C 93.739790,61.153140 95.000010,59.235350 95.000000,56.871770 C 95.000000,54.508200 93.739790,52.590420 92.186630,52.590420 C 90.880310,52.590420 88.512420,56.762980 87.472620,56.332520 C 87.487220,54.683930 90.012170,51.292740 90.012170,49.281350 C 90.012170,46.917780 88.751950,45.000000 87.198800,45.000000 z " />
  <path
     sodipodi:nodetypes="cscsssccccccssscsc"
     id="path2254"
     style="fill:#000000;fill-opacity:1.0000000;fill-rule:evenodd;stroke:none;stroke-width:1.0000000pt;stroke-linecap:butt;stroke-linejoin:miter;stroke-opacity:1.0000000"
     d="M 51.198790,81.000000 C 49.645640,81.000000 48.385420,82.917780 48.385420,85.281360 C 48.385420,87.294960 50.943790,90.682760 50.844440,92.291670 C 50.022970,92.751450 47.485040,88.508720 46.173380,88.508720 C 44.620220,88.508720 43.360000,90.426500 43.360000,92.790070 C 43.360000,95.153650 44.620220,97.071430 46.173380,97.071430 C 47.520410,97.071430 49.828920,92.832200 50.844440,93.214940 L 49.138360,100.78001 L 53.229560,100.75549 C 53.229560,100.75549 51.437260,93.421040 51.435030,93.247610 L 51.467250,93.247610 L 51.467250,93.255800 C 52.461740,92.879880 54.849130,97.153130 56.186630,97.153140 C 57.739790,97.153140 59.000000,95.235360 59.000000,92.871780 C 59.000000,90.508190 57.739790,88.590420 56.186630,88.590420 C 54.880310,88.590420 52.512420,92.762990 51.472610,92.332510 C 51.487220,90.683940 54.012170,87.292740 54.012170,85.281360 C 54.012170,82.917780 52.751950,81.000000 51.198790,81.000000 z " />
  <path
     sodipodi:nodetypes="cscsssccccccssscsc"
     id="path2252"
     style="fill:#000000;fill-opacity:1.0000000;fill-rule:evenodd;stroke:none;stroke-width:1.0000000pt;stroke-linecap:butt;stroke-linejoin:miter;stroke-opacity:1.0000000"
     d="M 86.801210,101.00000 C 88.354360,101.00000 89.614580,99.082220 89.614580,96.718650 C 89.614580,94.705050 87.056200,91.317250 87.155560,89.708340 C 87.977020,89.248560 90.514960,93.491290 91.826630,93.491290 C 93.379780,93.491290 94.639990,91.573510 94.639990,89.209940 C 94.639990,86.846360 93.379780,84.928590 91.826630,84.928590 C 90.479580,84.928590 88.171080,89.167820 87.155560,88.785070 L 88.861650,81.220010 L 84.770430,81.244520 C 84.770430,81.244520 86.562740,88.578980 86.564960,88.752390 L 86.532760,88.752390 L 86.532760,88.744220 C 85.538250,89.120140 83.150870,84.846880 81.813380,84.846870 C 80.260210,84.846870 79.000000,86.764650 79.000000,89.128230 C 79.000000,91.491820 80.260210,93.409600 81.813380,93.409600 C 83.119700,93.409600 85.487580,89.237020 86.527390,89.667500 C 86.512770,91.316070 83.987830,94.707270 83.987830,96.718650 C 83.987830,99.082220 85.248040,101.00000 86.801210,101.00000 z " />
  <path
     sodipodi:nodetypes="cscsssccccccssscsc"
     id="path2264"
     style="fill:#000000;fill-opacity:1.0000000;fill-rule:evenodd;stroke:none;stroke-width:1.0000000pt;stroke-linecap:butt;stroke-linejoin:miter;stroke-opacity:1.0000000"
     d="M 88.161210,142.00000 C 89.714360,142.00000 90.974580,140.08223 90.974580,137.71864 C 90.974580,135.70506 88.416210,132.31725 88.515570,130.70834 C 89.337030,130.24856 91.874970,134.49129 93.186630,134.49129 C 94.739780,134.49129 96.000000,132.57351 96.000000,130.20993 C 96.000000,127.84636 94.739780,125.92857 93.186630,125.92857 C 91.839590,125.92857 89.531080,130.16782 88.515570,129.78507 L 90.221640,122.22001 L 86.130440,122.24452 C 86.130440,122.24452 87.922740,129.57898 87.924970,129.75239 L 87.892760,129.75239 L 87.892760,129.74421 C 86.898260,130.12014 84.510870,125.84688 83.173370,125.84688 C 81.620220,125.84688 80.360000,127.76466 80.360000,130.12824 C 80.360000,132.49180 81.620220,134.40958 83.173370,134.40958 C 84.479690,134.40958 86.847590,130.23703 87.887390,130.66748 C 87.872780,132.31608 85.347830,135.70727 85.347830,137.71864 C 85.347830,140.08223 86.608050,142.00000 88.161210,142.00000 z " />
  <path
     sodipodi:nodetypes="cscsssccccccssscsc"
     id="path2260"
     style="fill:#000000;fill-opacity:1.0000000;fill-rule:evenodd;stroke:none;stroke-width:1.0000000pt;stroke-linecap:butt;stroke-linejoin:miter;stroke-opacity:1.0000000"
     d="M 52.801210,141.77999 C 54.354370,141.77999 55.614590,139.86222 55.614590,137.49865 C 55.614590,135.48505 53.056210,132.09724 53.155570,130.48834 C 53.977030,130.02855 56.514970,134.27129 57.826630,134.27129 C 59.379790,134.27129 60.640000,132.35350 60.640000,129.98994 C 60.640000,127.62635 59.379790,125.70857 57.826630,125.70857 C 56.479590,125.70857 54.171090,129.94781 53.155570,129.56507 L 54.861650,122.00000 L 50.770440,122.02452 C 50.770440,122.02452 52.562750,129.35897 52.564970,129.53239 L 52.532760,129.53239 L 52.532760,129.52420 C 51.538260,129.90013 49.150870,125.62687 47.813380,125.62687 C 46.260220,125.62687 45.000000,127.54465 45.000000,129.90823 C 45.000000,132.27181 46.260220,134.18958 47.813380,134.18958 C 49.119700,134.18958 51.487590,130.01702 52.527390,130.44749 C 52.512780,132.09607 49.987840,135.48726 49.987840,137.49865 C 49.987840,139.86222 51.248050,141.77999 52.801210,141.77999 z " />
  

  <metadata>
    <rdf:RDF 
     xmlns="http://web.resource.org/cc/"
     xmlns:dc="http://purl.org/dc/elements/1.1/"
     xmlns:rdf="http://www.w3.org/1999/02/22-rdf-syntax-ns#">
      <Work rdf:about="">
        <dc:title>card</dc:title>
        <dc:description></dc:description>
        <dc:subject>
          <rdf:Bag>
            <rdf:li>white</rdf:li>
            <rdf:li>card</rdf:li>
          </rdf:Bag>
        </dc:subject>
        <dc:publisher>
           <Agent>
             <dc:title></dc:title>
           </Agent>
         </dc:publisher>
         <dc:creator>
           <Agent>
             <dc:title>Nicu Buculei</dc:title>
           </Agent>
        </dc:creator>
         <dc:rights>
           <Agent>
             <dc:title>Nicu Buculei</dc:title>
           </Agent>
        </dc:rights>
        <dc:date></dc:date>
        <dc:format>image/svg+xml</dc:format>
        <dc:type rdf:resource="http://purl.org/dc/dcmitype/StillImage" />
        <license rdf:resource="http://web.resource.org/cc/PublicDomain" />
        <dc:language>en</dc:language>
      </Work>

      <License rdf:about="http://web.resource.org/cc/PublicDomain">
         <permits rdf:resource="http://web.resource.org/cc/Reproduction" />
         <permits rdf:resource="http://web.resource.org/cc/Distribution" />
         <permits rdf:resource="http://web.resource.org/cc/DerivativeWorks" />
      </License>

    </rdf:RDF>
  </metadata>
</svg>
