<?xml version="1.0" encoding="UTF-8" standalone="no"?>
<!-- Created with Inkscape (http://www.inkscape.org/) -->
<svg
   xmlns:dc="http://purl.org/dc/elements/1.1/"
   xmlns:cc="http://web.resource.org/cc/"
   xmlns:rdf="http://www.w3.org/1999/02/22-rdf-syntax-ns#"
   xmlns:svg="http://www.w3.org/2000/svg"
   xmlns="http://www.w3.org/2000/svg"
   xmlns:xlink="http://www.w3.org/1999/xlink"
   xmlns:sodipodi="http://inkscape.sourceforge.net/DTD/sodipodi-0.dtd"
   xmlns:inkscape="http://www.inkscape.org/namespaces/inkscape"
   id="svg2"
   height="190.00000"
   preserveAspectRatio="xMinYMin meet"
   viewBox="0 0 140 190"
   y="0.0000000"
   x="0.0000000"
   version="1.0"
   sodipodi:version="0.32"
   inkscape:version="0.41+cvs"
   sodipodi:docname="white_c_7.svg"
   sodipodi:docbase="/home/nicu/Desktop/card_nicu_buculei_01.zip_FILES/cards/white">
  <sodipodi:namedview
     id="base"
     pagecolor="#ffffff"
     bordercolor="#666666"
     borderopacity="1.0"
     inkscape:pageopacity="0.0"
     inkscape:pageshadow="2"
     inkscape:window-width="1152"
     inkscape:window-height="791"
     inkscape:zoom="1.0000000"
     inkscape:cx="70.000000"
     inkscape:cy="94.999969"
     inkscape:window-x="0"
     inkscape:window-y="26"
     inkscape:current-layer="svg2" />
  <defs
     id="defs3">
    <linearGradient
       id="linearGradient2060">
      <stop
         id="stop2062"
         offset="0.0000000"
         style="stop-color:#ebf0d0;stop-opacity:1.0000000;" />
      <stop
         id="stop2064"
         offset="1.0000000"
         style="stop-color:#ffffeb;stop-opacity:1.0000000;" />
    </linearGradient>
    <linearGradient
       gradientTransform="translate(0.000000,-1.000000)"
       gradientUnits="userSpaceOnUse"
       xlink:href="#linearGradient2060"
       id="linearGradient4853"
       y2="128.69501"
       x2="109.00000"
       y1="63.099518"
       x1="2.0000000" />
  </defs>
  <g
     inkscape:label="Layer 1"
     inkscape:groupmode="layer"
     id="layer1">
    <g
       id="g5630">
      <path
         style="fill:#ffffff;fill-opacity:1.0000000;stroke:black;stroke-width:0.70000000;stroke-miterlimit:4.0000000;stroke-dashoffset:0.0000000;stroke-opacity:1.0000000"
         d="M 18.000000,1.9999995 L 121.00000,1.9999995 C 129.86400,1.9999995 137.00000,9.1359995 137.00000,18.000000 L 137.00000,171.00000 C 137.00000,179.86400 129.86400,187.00000 121.00000,187.00000 L 18.000000,187.00000 C 9.1360000,187.00000 2.0000000,179.86400 2.0000000,171.00000 L 2.0000000,18.000000 C 2.0000000,9.1359995 9.1360000,1.9999995 18.000000,1.9999995 z "
         id="rect1306" />
    </g>
    <g
       transform="translate(-448.5000,-231.5000)"
       id="g5495"
       inkscape:groupmode="layer"
       inkscape:label="Layer 1" />
  </g>
  <g
     id="g2352"
     transform="translate(333.5000,184.5000)" />
  <path
     id="text2850"
     style="font-size:37.418446;font-style:normal;font-variant:normal;font-weight:bold;font-stretch:normal;fill:#000000;fill-opacity:1.0000000;stroke:none;stroke-width:1.0000000px;stroke-linecap:butt;stroke-linejoin:miter;stroke-opacity:1.0000000;font-family:Bitstream Vera Sans;text-anchor:start;writing-mode:lr-tb"
     d="M 11.274673,11.998181 L 29.964573,11.998181 L 29.964573,16.358486 L 20.295669,41.997861 L 14.065696,41.997861 L 23.219592,17.684652 L 11.274673,17.684652 L 11.274673,11.998181" />
  <path
     id="text3451"
     style="font-size:37.418446;font-style:normal;font-variant:normal;font-weight:bold;font-stretch:normal;fill:#000000;fill-opacity:1.0000000;stroke:none;stroke-width:1.0000000px;stroke-linecap:butt;stroke-linejoin:miter;stroke-opacity:1.0000000;font-family:Bitstream Vera Sans;text-anchor:start;writing-mode:lr-tb"
     d="M 127.49552,177.00000 L 108.80561,177.00000 L 108.80561,172.63969 L 118.47452,147.00031 L 124.70449,147.00031 L 115.55060,171.31352 L 127.49552,171.31352 L 127.49552,177.00000" />
  <path
     sodipodi:nodetypes="cscsssccccccssscsc"
     id="path908"
     style="fill:#000000;fill-opacity:1.0000000;fill-rule:evenodd;stroke:none;stroke-width:1.0000000pt;stroke-linecap:butt;stroke-linejoin:miter;stroke-opacity:1.0000000"
     d="M 20.527260,48.665000 C 17.860880,48.665000 15.697390,51.928520 15.697390,55.950660 C 15.697390,59.377240 20.089490,65.142330 19.918920,67.880240 C 18.508670,68.662660 14.151660,61.442720 11.899870,61.442720 C 9.2334800,61.442720 7.0700000,64.706240 7.0700000,68.728380 C 7.0700000,72.750530 9.2334800,76.014050 11.899870,76.014050 C 14.212390,76.014050 18.175530,68.800060 19.918920,69.451390 L 16.990000,82.325000 L 24.013590,82.283290 C 24.013590,82.283290 20.936640,69.802100 20.932820,69.507000 L 20.988130,69.507000 L 20.988130,69.520910 C 22.695430,68.881200 26.793990,76.153080 29.090130,76.153090 C 31.756520,76.153090 33.920000,72.889570 33.920000,68.867420 C 33.920000,64.845280 31.756520,61.581760 29.090130,61.581760 C 26.847510,61.581760 22.782430,68.682290 20.997340,67.949760 C 21.022420,65.144330 25.357130,59.373470 25.357130,55.950660 C 25.357130,51.928520 23.193650,48.665000 20.527260,48.665000 z " />
  <path
     sodipodi:nodetypes="cscsssccccccssscsc"
     id="path2242"
     style="fill:#000000;fill-opacity:1.0000000;fill-rule:evenodd;stroke:none;stroke-width:1.0000000pt;stroke-linecap:butt;stroke-linejoin:miter;stroke-opacity:1.0000000"
     d="M 51.198790,45.000000 C 49.645640,45.000000 48.385420,46.917780 48.385420,49.281350 C 48.385420,51.294950 50.943790,54.682750 50.844430,56.291660 C 50.022970,56.751440 47.485030,52.508710 46.173370,52.508710 C 44.620220,52.508710 43.360000,54.426490 43.360000,56.790060 C 43.360000,59.153640 44.620220,61.071420 46.173370,61.071420 C 47.520410,61.071420 49.828920,56.832180 50.844430,57.214930 L 49.138360,64.779990 L 53.229560,64.755480 C 53.229560,64.755480 51.437260,57.421020 51.435030,57.247610 L 51.467240,57.247610 L 51.467240,57.255790 C 52.461740,56.879860 54.849130,61.153120 56.186630,61.153130 C 57.739780,61.153130 59.000000,59.235350 59.000000,56.871770 C 59.000000,54.508190 57.739780,52.590410 56.186630,52.590410 C 54.880310,52.590410 52.512410,56.762980 51.472610,56.332510 C 51.487220,54.683930 54.012170,51.292730 54.012170,49.281350 C 54.012170,46.917780 52.751950,45.000000 51.198790,45.000000 z " />
  <path
     sodipodi:nodetypes="cscsssccccccssscsc"
     id="path2250"
     style="fill:#000000;fill-opacity:1.0000000;fill-rule:evenodd;stroke:none;stroke-width:1.0000000pt;stroke-linecap:butt;stroke-linejoin:miter;stroke-opacity:1.0000000"
     d="M 69.838790,60.220000 C 68.285640,60.220000 67.025420,62.137780 67.025420,64.501350 C 67.025420,66.514950 69.583790,69.902750 69.484440,71.511660 C 68.662970,71.971440 66.125040,67.728710 64.813380,67.728710 C 63.260220,67.728710 62.000000,69.646490 62.000000,72.010060 C 62.000000,74.373640 63.260220,76.291420 64.813380,76.291420 C 66.160410,76.291420 68.468920,72.052180 69.484440,72.434930 L 67.778360,80.000000 L 71.869560,79.975480 C 71.869560,79.975480 70.077260,72.641020 70.075030,72.467610 L 70.107250,72.467610 L 70.107250,72.475790 C 71.101740,72.099870 73.489130,76.373120 74.826630,76.373130 C 76.379790,76.373130 77.640000,74.455350 77.640000,72.091770 C 77.640000,69.728190 76.379790,67.810410 74.826630,67.810410 C 73.520310,67.810410 71.152420,71.982980 70.112610,71.552510 C 70.127220,69.903930 72.652170,66.512730 72.652170,64.501350 C 72.652170,62.137780 71.391950,60.220000 69.838790,60.220000 z " />
  <path
     sodipodi:nodetypes="cscsssccccccssscsc"
     id="path2248"
     style="fill:#000000;fill-opacity:1.0000000;fill-rule:evenodd;stroke:none;stroke-width:1.0000000pt;stroke-linecap:butt;stroke-linejoin:miter;stroke-opacity:1.0000000"
     d="M 87.198800,45.000000 C 85.645640,45.000000 84.385420,46.917780 84.385420,49.281350 C 84.385420,51.294950 86.943800,54.682760 86.844440,56.291660 C 86.022980,56.751450 83.485040,52.508710 82.173380,52.508710 C 80.620220,52.508710 79.360000,54.426490 79.360000,56.790060 C 79.360000,59.153650 80.620220,61.071430 82.173380,61.071430 C 83.520420,61.071430 85.828920,56.832190 86.844440,57.214930 L 85.138360,64.780000 L 89.229570,64.755480 C 89.229570,64.755480 87.437260,57.421030 87.435030,57.247620 L 87.467250,57.247620 L 87.467250,57.255790 C 88.461740,56.879870 90.849140,61.153130 92.186630,61.153130 C 93.739790,61.153130 95.000010,59.235350 95.000000,56.871770 C 95.000000,54.508200 93.739790,52.590420 92.186630,52.590420 C 90.880310,52.590420 88.512420,56.762980 87.472620,56.332520 C 87.487220,54.683930 90.012170,51.292740 90.012170,49.281350 C 90.012170,46.917780 88.751950,45.000000 87.198800,45.000000 z " />
  <path
     sodipodi:nodetypes="cscsssccccccssscsc"
     id="path2252"
     style="fill:#000000;fill-opacity:1.0000000;fill-rule:evenodd;stroke:none;stroke-width:1.0000000pt;stroke-linecap:butt;stroke-linejoin:miter;stroke-opacity:1.0000000"
     d="M 70.198790,83.000000 C 68.645630,83.000000 67.385410,84.917780 67.385410,87.281350 C 67.385410,89.294950 69.943790,92.682750 69.844430,94.291660 C 69.022970,94.751440 66.485030,90.508710 65.173370,90.508710 C 63.620210,90.508710 62.360000,92.426490 62.360000,94.790060 C 62.360000,97.153640 63.620210,99.071420 65.173370,99.071420 C 66.520410,99.071420 68.828910,94.832180 69.844430,95.214930 L 68.138350,102.77999 L 72.229560,102.75548 C 72.229560,102.75548 70.437250,95.421020 70.435030,95.247610 L 70.467240,95.247610 L 70.467240,95.255790 C 71.461740,94.879860 73.849130,99.153120 75.186620,99.153130 C 76.739780,99.153130 78.000000,97.235350 78.000000,94.871770 C 78.000000,92.508190 76.739780,90.590410 75.186620,90.590410 C 73.880300,90.590410 71.512410,94.762980 70.472610,94.332510 C 70.487220,92.683930 73.012160,89.292730 73.012160,87.281350 C 73.012160,84.917780 71.751950,83.000000 70.198790,83.000000 z " />
  <path
     sodipodi:nodetypes="cscsssccccccssscsc"
     id="path2262"
     style="fill:#000000;fill-opacity:1.0000000;fill-rule:evenodd;stroke:none;stroke-width:1.0000000pt;stroke-linecap:butt;stroke-linejoin:miter;stroke-opacity:1.0000000"
     d="M 70.161210,126.78000 C 71.714370,126.78000 72.974590,124.86222 72.974590,122.49865 C 72.974590,120.48505 70.416210,117.09725 70.515570,115.48834 C 71.337030,115.02856 73.874970,119.27129 75.186630,119.27129 C 76.739790,119.27129 78.000000,117.35351 78.000000,114.98994 C 78.000000,112.62635 76.739790,110.70858 75.186630,110.70858 C 73.839590,110.70858 71.531090,114.94781 70.515570,114.56507 L 72.221650,107.00000 L 68.130440,107.02451 C 68.130440,107.02451 69.922750,114.35897 69.924980,114.53239 L 69.892760,114.53239 L 69.892760,114.52421 C 68.898260,114.90013 66.510870,110.62688 65.173380,110.62687 C 63.620220,110.62687 62.360000,112.54465 62.360000,114.90823 C 62.360000,117.27180 63.620220,119.18958 65.173380,119.18958 C 66.479700,119.18958 68.847590,115.01702 69.887390,115.44748 C 69.872780,117.09607 67.347840,120.48726 67.347840,122.49865 C 67.347840,124.86222 68.608060,126.78000 70.161210,126.78000 z " />
  <path
     sodipodi:nodetypes="cscsssccccccssscsc"
     id="path2264"
     style="fill:#000000;fill-opacity:1.0000000;fill-rule:evenodd;stroke:none;stroke-width:1.0000000pt;stroke-linecap:butt;stroke-linejoin:miter;stroke-opacity:1.0000000"
     d="M 88.161210,141.78000 C 89.714360,141.78000 90.974580,139.86222 90.974580,137.49864 C 90.974580,135.48505 88.416210,132.09724 88.515570,130.48833 C 89.337030,130.02855 91.874970,134.27128 93.186630,134.27128 C 94.739780,134.27128 96.000000,132.35351 96.000000,129.98992 C 96.000000,127.62635 94.739780,125.70857 93.186630,125.70857 C 91.839590,125.70857 89.531080,129.94781 88.515570,129.56506 L 90.221640,122.00000 L 86.130440,122.02451 C 86.130440,122.02451 87.922740,129.35897 87.924970,129.53238 L 87.892760,129.53238 L 87.892760,129.52421 C 86.898260,129.90013 84.510870,125.62687 83.173370,125.62687 C 81.620220,125.62687 80.360000,127.54465 80.360000,129.90823 C 80.360000,132.27180 81.620220,134.18958 83.173370,134.18958 C 84.479690,134.18958 86.847590,130.01702 87.887390,130.44748 C 87.872780,132.09607 85.347830,135.48726 85.347830,137.49864 C 85.347830,139.86222 86.608050,141.78000 88.161210,141.78000 z " />
  <path
     sodipodi:nodetypes="cscsssccccccssscsc"
     id="path2260"
     style="fill:#000000;fill-opacity:1.0000000;fill-rule:evenodd;stroke:none;stroke-width:1.0000000pt;stroke-linecap:butt;stroke-linejoin:miter;stroke-opacity:1.0000000"
     d="M 52.801210,141.78000 C 54.354370,141.78000 55.614590,139.86222 55.614590,137.49865 C 55.614590,135.48505 53.056210,132.09725 53.155570,130.48834 C 53.977030,130.02856 56.514970,134.27129 57.826630,134.27129 C 59.379790,134.27129 60.640000,132.35351 60.640000,129.98994 C 60.640000,127.62636 59.379790,125.70858 57.826630,125.70858 C 56.479590,125.70858 54.171090,129.94782 53.155570,129.56507 L 54.861650,122.00000 L 50.770440,122.02452 C 50.770440,122.02452 52.562750,129.35898 52.564970,129.53239 L 52.532760,129.53239 L 52.532760,129.52421 C 51.538260,129.90013 49.150870,125.62688 47.813380,125.62687 C 46.260220,125.62687 45.000000,127.54465 45.000000,129.90823 C 45.000000,132.27181 46.260220,134.18959 47.813380,134.18959 C 49.119700,134.18959 51.487590,130.01702 52.527390,130.44749 C 52.512780,132.09607 49.987840,135.48727 49.987840,137.49865 C 49.987840,139.86222 51.248050,141.78000 52.801210,141.78000 z " />
  <path
     sodipodi:nodetypes="cscsssccccccssscsc"
     id="path3464"
     style="fill:#000000;fill-opacity:1.0000000;fill-rule:evenodd;stroke:none;stroke-width:1.0000000pt;stroke-linecap:butt;stroke-linejoin:miter;stroke-opacity:1.0000000"
     d="M 117.54274,139.96250 C 120.20912,139.96250 122.37261,136.69898 122.37261,132.67684 C 122.37261,129.25026 117.98051,123.48517 118.15108,120.74726 C 119.56133,119.96484 123.91834,127.18478 126.17013,127.18478 C 128.83652,127.18478 131.00000,123.92126 131.00000,119.89912 C 131.00000,115.87697 128.83652,112.61345 126.17013,112.61345 C 123.85761,112.61345 119.89447,119.82744 118.15108,119.17611 L 121.08000,106.30250 L 114.05641,106.34421 C 114.05641,106.34421 117.13336,118.82540 117.13718,119.12050 L 117.08187,119.12050 L 117.08187,119.10659 C 115.37457,119.74630 111.27601,112.47442 108.97987,112.47441 C 106.31348,112.47441 104.15000,115.73793 104.15000,119.76008 C 104.15000,123.78222 106.31348,127.04574 108.97987,127.04574 C 111.22249,127.04574 115.28757,119.94521 117.07266,120.67774 C 117.04758,123.48317 112.71287,129.25403 112.71287,132.67684 C 112.71287,136.69898 114.87635,139.96250 117.54274,139.96250 z " />
  

  <metadata>
    <rdf:RDF 
     xmlns="http://web.resource.org/cc/"
     xmlns:dc="http://purl.org/dc/elements/1.1/"
     xmlns:rdf="http://www.w3.org/1999/02/22-rdf-syntax-ns#">
      <Work rdf:about="">
        <dc:title>card</dc:title>
        <dc:description></dc:description>
        <dc:subject>
          <rdf:Bag>
            <rdf:li>white</rdf:li>
            <rdf:li>card</rdf:li>
          </rdf:Bag>
        </dc:subject>
        <dc:publisher>
           <Agent>
             <dc:title></dc:title>
           </Agent>
         </dc:publisher>
         <dc:creator>
           <Agent>
             <dc:title>Nicu Buculei</dc:title>
           </Agent>
        </dc:creator>
         <dc:rights>
           <Agent>
             <dc:title>Nicu Buculei</dc:title>
           </Agent>
        </dc:rights>
        <dc:date></dc:date>
        <dc:format>image/svg+xml</dc:format>
        <dc:type rdf:resource="http://purl.org/dc/dcmitype/StillImage" />
        <license rdf:resource="http://web.resource.org/cc/PublicDomain" />
        <dc:language>en</dc:language>
      </Work>

      <License rdf:about="http://web.resource.org/cc/PublicDomain">
         <permits rdf:resource="http://web.resource.org/cc/Reproduction" />
         <permits rdf:resource="http://web.resource.org/cc/Distribution" />
         <permits rdf:resource="http://web.resource.org/cc/DerivativeWorks" />
      </License>

    </rdf:RDF>
  </metadata>
</svg>
