<?xml version="1.0" encoding="UTF-8" standalone="no"?>
<!-- Created with Inkscape (http://www.inkscape.org/) -->
<svg
   xmlns:dc="http://purl.org/dc/elements/1.1/"
   xmlns:cc="http://web.resource.org/cc/"
   xmlns:rdf="http://www.w3.org/1999/02/22-rdf-syntax-ns#"
   xmlns:svg="http://www.w3.org/2000/svg"
   xmlns="http://www.w3.org/2000/svg"
   xmlns:xlink="http://www.w3.org/1999/xlink"
   xmlns:sodipodi="http://inkscape.sourceforge.net/DTD/sodipodi-0.dtd"
   xmlns:inkscape="http://www.inkscape.org/namespaces/inkscape"
   id="svg2"
   height="190.00000"
   width="140.00000"
   preserveAspectRatio="xMinYMin meet"
   viewBox="0 0 140 190"  
   y="0.0000000"
   x="0.0000000"
   version="1.0"
   sodipodi:version="0.32"
   inkscape:version="0.41+cvs"
   sodipodi:docname="white_c_8.svg"
   sodipodi:docbase="/home/nicu/Desktop/card_nicu_buculei_01.zip_FILES/cards/white">
  <sodipodi:namedview
     id="base"
     pagecolor="#ffffff"
     bordercolor="#666666"
     borderopacity="1.0"
     inkscape:pageopacity="0.0"
     inkscape:pageshadow="2"
     inkscape:window-width="1152"
     inkscape:window-height="791"
     inkscape:zoom="1.0000000"
     inkscape:cx="70.000000"
     inkscape:cy="94.999969"
     inkscape:window-x="0"
     inkscape:window-y="26"
     inkscape:current-layer="svg2" />
  <defs
     id="defs3">
    <linearGradient
       id="linearGradient2060">
      <stop
         id="stop2062"
         offset="0.0000000"
         style="stop-color:#ebf0d0;stop-opacity:1.0000000;" />
      <stop
         id="stop2064"
         offset="1.0000000"
         style="stop-color:#ffffeb;stop-opacity:1.0000000;" />
    </linearGradient>
    <linearGradient
       gradientTransform="translate(0.000000,-1.000000)"
       gradientUnits="userSpaceOnUse"
       xlink:href="#linearGradient2060"
       id="linearGradient4853"
       y2="128.69501"
       x2="109.00000"
       y1="63.099518"
       x1="2.0000000" />
  </defs>
  <g
     inkscape:label="Layer 1"
     inkscape:groupmode="layer"
     id="layer1">
    <g
       id="g5630">
      <path
         style="fill:#ffffff;fill-opacity:1.0000000;stroke:black;stroke-width:0.70000000;stroke-miterlimit:4.0000000;stroke-dashoffset:0.0000000;stroke-opacity:1.0000000"
         d="M 18.000000,1.9999995 L 121.00000,1.9999995 C 129.86400,1.9999995 137.00000,9.1359995 137.00000,18.000000 L 137.00000,171.00000 C 137.00000,179.86400 129.86400,187.00000 121.00000,187.00000 L 18.000000,187.00000 C 9.1360000,187.00000 2.0000000,179.86400 2.0000000,171.00000 L 2.0000000,18.000000 C 2.0000000,9.1359995 9.1360000,1.9999995 18.000000,1.9999995 z "
         id="rect1306" />
    </g>
    <g
       transform="translate(-448.5000,-231.5000)"
       id="g5495"
       inkscape:groupmode="layer"
       inkscape:label="Layer 1" />
  </g>
  <g
     id="g5581"
     transform="translate(351.5000,184.5000)">
    <path
       id="text1488"
       style="font-size:37.418446;font-style:normal;font-variant:normal;font-weight:bold;font-stretch:normal;fill:#000000;fill-opacity:1.0000000;stroke:none;stroke-width:1.0000000px;stroke-linecap:butt;stroke-linejoin:miter;stroke-opacity:1.0000000;font-family:Bitstream Vera Sans;text-anchor:start;writing-mode:lr-tb"
       transform="scale(0.909282,1.099768)"
       d="M -363.90944,-141.56117 C -365.22494,-141.56116 -366.23592,-141.20183 -366.94238,-140.48320 C -367.64885,-139.76454 -368.00209,-138.73529 -368.00208,-137.39544 C -368.00209,-136.05558 -367.64885,-135.02633 -366.94238,-134.30769 C -366.23592,-133.60122 -365.22494,-133.24798 -363.90944,-133.24799 C -362.60614,-133.24798 -361.60734,-133.60122 -360.91304,-134.30769 C -360.21877,-135.02633 -359.87162,-136.05558 -359.87160,-137.39544 C -359.87162,-138.74747 -360.21877,-139.77672 -360.91304,-140.48320 C -361.60734,-141.20183 -362.60614,-141.56116 -363.90944,-141.56117 M -369.04351,-143.88155 C -370.70006,-144.38093 -371.94856,-145.14830 -372.78901,-146.18366 C -373.62946,-147.21898 -374.04969,-148.51011 -374.04969,-150.05706 C -374.04969,-152.35914 -373.19097,-154.11313 -371.47352,-155.31902 C -369.75607,-156.52486 -367.23472,-157.12780 -363.90944,-157.12783 C -360.60854,-157.12780 -358.09936,-156.52486 -356.38190,-155.31902 C -354.66447,-154.12531 -353.80575,-152.37132 -353.80572,-150.05706 C -353.80575,-148.51011 -354.23206,-147.21898 -355.08467,-146.18366 C -355.92515,-145.14830 -357.17365,-144.38093 -358.83017,-143.88155 C -356.97876,-143.36996 -355.58410,-142.53559 -354.64618,-141.37846 C -353.69612,-140.23348 -353.22108,-138.78401 -353.22106,-137.03003 C -353.22108,-134.32596 -354.12244,-132.27964 -355.92513,-130.89106 C -357.71568,-129.51467 -360.37711,-128.82647 -363.90944,-128.82647 C -367.45397,-128.82647 -370.13367,-129.51467 -371.94855,-130.89106 C -373.75127,-132.27964 -374.65262,-134.32596 -374.65262,-137.03003 C -374.65262,-138.78401 -374.18368,-140.23348 -373.24578,-141.37846 C -372.29570,-142.53559 -370.89495,-143.36996 -369.04351,-143.88155 M -367.39914,-149.34450 C -367.39915,-148.26041 -367.10073,-147.42605 -366.50388,-146.84141 C -365.89487,-146.25673 -365.03005,-145.96440 -363.90944,-145.96441 C -362.81321,-145.96440 -361.96666,-146.25673 -361.36980,-146.84141 C -360.77298,-147.42605 -360.47456,-148.26041 -360.47454,-149.34450 C -360.47456,-150.42854 -360.77298,-151.25681 -361.36980,-151.82932 C -361.96666,-152.41396 -362.81321,-152.70629 -363.90944,-152.70631 C -365.03005,-152.70629 -365.89487,-152.41396 -366.50388,-151.82932 C -367.10073,-151.24463 -367.39915,-150.41636 -367.39914,-149.34450" />
    <path
       id="text3657"
       style="font-size:37.418446;font-style:normal;font-variant:normal;font-weight:bold;font-stretch:normal;fill:#000000;fill-opacity:1.0000000;stroke:none;stroke-width:1.0000000px;stroke-linecap:butt;stroke-linejoin:miter;stroke-opacity:1.0000000;font-family:Bitstream Vera Sans;text-anchor:start;writing-mode:lr-tb"
       transform="scale(-0.909282,-1.099768)"
       d="M 256.76709,21.958894 C 255.45159,21.958906 254.44061,22.318230 253.73415,23.036866 C 253.02768,23.755525 252.67444,24.784775 252.67445,26.124619 C 252.67444,27.464479 253.02768,28.493729 253.73415,29.212372 C 254.44061,29.918844 255.45159,30.272078 256.76709,30.272074 C 258.07039,30.272078 259.06919,29.918844 259.76349,29.212372 C 260.45776,28.493729 260.80491,27.464479 260.80492,26.124619 C 260.80491,24.772595 260.45776,23.743345 259.76349,23.036866 C 259.06919,22.318230 258.07039,21.958906 256.76709,21.958894 M 251.63302,19.638512 C 249.97647,19.139127 248.72797,18.371757 247.88752,17.336400 C 247.04706,16.301077 246.62684,15.009947 246.62684,13.463006 C 246.62684,11.160918 247.48556,9.4069301 249.20301,8.2010375 C 250.92045,6.9951968 253.44181,6.3922634 256.76709,6.3922357 C 260.06799,6.3922634 262.57717,6.9951968 264.29463,8.2010375 C 266.01206,9.3947496 266.87078,11.148738 266.87080,13.463006 C 266.87078,15.009947 266.44447,16.301077 265.59185,17.336400 C 264.75138,18.371757 263.50288,19.139127 261.84636,19.638512 C 263.69777,20.150106 265.09243,20.984468 266.03035,22.141601 C 266.98041,23.286577 267.45544,24.736053 267.45547,26.490034 C 267.45544,29.194106 266.55409,31.240425 264.75140,32.628997 C 262.96085,34.005392 260.29942,34.693589 256.76709,34.693589 C 253.22256,34.693589 250.54286,34.005392 248.72797,32.628997 C 246.92526,31.240425 246.02390,29.194106 246.02391,26.490034 C 246.02390,24.736053 246.49285,23.286577 247.43075,22.141601 C 248.38083,20.984468 249.78158,20.150106 251.63302,19.638512 M 253.27739,14.175565 C 253.27738,15.259647 253.57580,16.094009 254.17265,16.678654 C 254.78166,17.263334 255.64648,17.555665 256.76709,17.555649 C 257.86332,17.555665 258.70987,17.263334 259.30672,16.678654 C 259.90355,16.094009 260.20197,15.259647 260.20199,14.175565 C 260.20197,13.091523 259.90355,12.263251 259.30672,11.690746 C 258.70987,11.106106 257.86332,10.813775 256.76709,10.813751 C 255.64648,10.813775 254.78166,11.106106 254.17265,11.690746 C 253.57580,12.275431 253.27738,13.103703 253.27739,14.175565" />
  </g>
  <path
     sodipodi:nodetypes="cscsssccccccssscsc"
     id="path908"
     style="fill:#000000;fill-opacity:1.0000000;fill-rule:evenodd;stroke:none;stroke-width:1.0000000pt;stroke-linecap:butt;stroke-linejoin:miter;stroke-opacity:1.0000000"
     d="M 20.527261,48.665000 C 17.860877,48.665000 15.697394,51.928523 15.697394,55.950664 C 15.697394,59.377240 20.089490,65.142330 19.918919,67.880240 C 18.508668,68.662660 14.151660,61.442720 11.899866,61.442720 C 9.2334820,61.442720 7.0700000,64.706240 7.0700000,68.728380 C 7.0700000,72.750530 9.2334820,76.014050 11.899866,76.014050 C 14.212394,76.014050 18.175527,68.800060 19.918919,69.451390 L 16.990005,82.325000 L 24.013589,82.283290 C 24.013589,82.283290 20.936644,69.802100 20.932822,69.507000 L 20.988126,69.507000 L 20.988126,69.520910 C 22.695429,68.881200 26.793987,76.153080 29.090134,76.153090 C 31.756521,76.153090 33.920003,72.889570 33.920000,68.867420 C 33.920000,64.845280 31.756521,61.581760 29.090134,61.581760 C 26.847510,61.581760 22.782426,68.682290 20.997343,67.949760 C 21.022420,65.144330 25.357127,59.373473 25.357127,55.950664 C 25.357127,51.928523 23.193647,48.665000 20.527261,48.665000 z " />
  <path
     sodipodi:nodetypes="cscsssccccccssscsc"
     id="path3647"
     style="fill:#000000;fill-opacity:1.0000000;fill-rule:evenodd;stroke:none;stroke-width:1.0000000pt;stroke-linecap:butt;stroke-linejoin:miter;stroke-opacity:1.0000000"
     d="M 117.41824,139.96250 C 120.08462,139.96250 122.24811,136.69898 122.24811,132.67684 C 122.24811,129.25026 117.85601,123.48517 118.02658,120.74726 C 119.43683,119.96484 123.79384,127.18478 126.04563,127.18478 C 128.71202,127.18478 130.87550,123.92126 130.87550,119.89912 C 130.87550,115.87697 128.71202,112.61345 126.04563,112.61345 C 123.73311,112.61345 119.76997,119.82744 118.02658,119.17611 L 120.95550,106.30250 L 113.93191,106.34421 C 113.93191,106.34421 117.00886,118.82540 117.01268,119.12050 L 116.95737,119.12050 L 116.95737,119.10659 C 115.25007,119.74630 111.15151,112.47442 108.85537,112.47441 C 106.18898,112.47441 104.02550,115.73793 104.02550,119.76008 C 104.02550,123.78222 106.18898,127.04574 108.85537,127.04574 C 111.09799,127.04574 115.16307,119.94521 116.94816,120.67774 C 116.92308,123.48317 112.58837,129.25403 112.58837,132.67684 C 112.58837,136.69898 114.75185,139.96250 117.41824,139.96250 z " />
  <path
     sodipodi:nodetypes="cscsssccccccssscsc"
     id="path2242"
     style="fill:#000000;fill-opacity:1.0000000;fill-rule:evenodd;stroke:none;stroke-width:1.0000000pt;stroke-linecap:butt;stroke-linejoin:miter;stroke-opacity:1.0000000"
     d="M 49.198790,36.000000 C 47.645640,36.000000 46.385420,37.917780 46.385420,40.281356 C 46.385420,42.294953 48.943790,45.682757 48.844430,47.291665 C 48.022970,47.751447 45.485030,43.508714 44.173370,43.508714 C 42.620220,43.508714 41.360000,45.426492 41.360000,47.790067 C 41.360000,50.153648 42.620220,52.071426 44.173370,52.071426 C 45.520410,52.071426 47.828920,47.832189 48.844430,48.214937 L 47.138360,55.780000 L 51.229560,55.755489 C 51.229560,55.755489 49.437260,48.421029 49.435030,48.247616 L 49.467240,48.247616 L 49.467240,48.255790 C 50.461740,47.879870 52.849130,52.153126 54.186630,52.153132 C 55.739780,52.153132 57.000000,50.235353 57.000000,47.871773 C 57.000000,45.508198 55.739780,43.590419 54.186630,43.590419 C 52.880310,43.590419 50.512410,47.762983 49.472610,47.332518 C 49.487220,45.683932 52.012170,42.292739 52.012170,40.281356 C 52.012170,37.917780 50.751950,36.000000 49.198790,36.000000 z " />
  <path
     sodipodi:nodetypes="cscsssccccccssscsc"
     id="path2248"
     style="fill:#000000;fill-opacity:1.0000000;fill-rule:evenodd;stroke:none;stroke-width:1.0000000pt;stroke-linecap:butt;stroke-linejoin:miter;stroke-opacity:1.0000000"
     d="M 90.198800,36.220003 C 88.645640,36.220003 87.385420,38.137783 87.385420,40.501359 C 87.385420,42.514956 89.943800,45.902760 89.844440,47.511668 C 89.022980,47.971450 86.485040,43.728717 85.173380,43.728717 C 83.620220,43.728717 82.360000,45.646495 82.360000,48.010070 C 82.360000,50.373650 83.620220,52.291430 85.173380,52.291430 C 86.520420,52.291430 88.828920,48.052192 89.844440,48.434940 L 88.138360,56.000000 L 92.229570,55.975490 C 92.229570,55.975490 90.437260,48.641030 90.435030,48.467620 L 90.467250,48.467620 L 90.467250,48.475790 C 91.461740,48.099873 93.849140,52.373130 95.186630,52.373140 C 96.739790,52.373140 98.000010,50.455360 98.000000,48.091776 C 98.000000,45.728201 96.739790,43.810422 95.186630,43.810422 C 93.880310,43.810422 91.512420,47.982986 90.472620,47.552521 C 90.487220,45.903935 93.012170,42.512742 93.012170,40.501359 C 93.012170,38.137783 91.751950,36.220003 90.198800,36.220003 z " />
  <path
     sodipodi:nodetypes="cscsssccccccssscsc"
     id="path2254"
     style="fill:#000000;fill-opacity:1.0000000;fill-rule:evenodd;stroke:none;stroke-width:1.0000000pt;stroke-linecap:butt;stroke-linejoin:miter;stroke-opacity:1.0000000"
     d="M 48.838790,71.220000 C 47.285640,71.220000 46.025420,73.137780 46.025420,75.501350 C 46.025420,77.514950 48.583790,80.902750 48.484440,82.511660 C 47.662970,82.971440 45.125040,78.728710 43.813380,78.728710 C 42.260220,78.728710 41.000000,80.646490 41.000000,83.010060 C 41.000000,85.373640 42.260220,87.291420 43.813380,87.291420 C 45.160410,87.291420 47.468920,83.052190 48.484440,83.434930 L 46.778360,91.000000 L 50.869560,90.975490 C 50.869560,90.975490 49.077260,83.641030 49.075030,83.467610 L 49.107250,83.467610 L 49.107250,83.475790 C 50.101740,83.099870 52.489130,87.373120 53.826630,87.373130 C 55.379790,87.373130 56.640000,85.455350 56.640000,83.091770 C 56.640000,80.728190 55.379790,78.810420 53.826630,78.810420 C 52.520310,78.810420 50.152420,82.982980 49.112610,82.552510 C 49.127220,80.903930 51.652170,77.512740 51.652170,75.501350 C 51.652170,73.137780 50.391950,71.220000 48.838790,71.220000 z " />
  <path
     sodipodi:nodetypes="cscsssccccccssscsc"
     id="path2252"
     style="fill:#000000;fill-opacity:1.0000000;fill-rule:evenodd;stroke:none;stroke-width:1.0000000pt;stroke-linecap:butt;stroke-linejoin:miter;stroke-opacity:1.0000000"
     d="M 88.198790,70.000000 C 86.645630,70.000000 85.385410,71.917780 85.385410,74.281360 C 85.385410,76.294950 87.943790,79.682760 87.844430,81.291660 C 87.022970,81.751450 84.485030,77.508710 83.173370,77.508710 C 81.620210,77.508710 80.360000,79.426490 80.360000,81.790070 C 80.360000,84.153650 81.620210,86.071430 83.173370,86.071430 C 84.520410,86.071430 86.828910,81.832190 87.844430,82.214940 L 86.138350,89.779990 L 90.229560,89.755480 C 90.229560,89.755480 88.437250,82.421030 88.435030,82.247620 L 88.467240,82.247620 L 88.467240,82.255790 C 89.461740,81.879870 91.849130,86.153130 93.186620,86.153130 C 94.739780,86.153130 96.000000,84.235350 96.000000,81.871770 C 96.000000,79.508200 94.739780,77.590420 93.186620,77.590420 C 91.880300,77.590420 89.512410,81.762980 88.472610,81.332520 C 88.487220,79.683930 91.012160,76.292740 91.012160,74.281360 C 91.012160,71.917780 89.751950,70.000000 88.198790,70.000000 z " />
  <path
     sodipodi:nodetypes="cscsssccccccssscsc"
     id="path2258"
     style="fill:#000000;fill-opacity:1.0000000;fill-rule:evenodd;stroke:none;stroke-width:1.0000000pt;stroke-linecap:butt;stroke-linejoin:miter;stroke-opacity:1.0000000"
     d="M 48.161210,119.00000 C 49.714360,119.00000 50.974580,117.08222 50.974580,114.71864 C 50.974580,112.70505 48.416210,109.31724 48.515560,107.70834 C 49.337030,107.24855 51.874970,111.49129 53.186630,111.49129 C 54.739780,111.49129 56.000000,109.57351 56.000000,107.20993 C 56.000000,104.84635 54.739780,102.92857 53.186630,102.92857 C 51.839590,102.92857 49.531080,107.16781 48.515560,106.78506 L 50.221640,99.220000 L 46.130440,99.244510 C 46.130440,99.244510 47.922740,106.57897 47.924970,106.75238 L 47.892760,106.75238 L 47.892760,106.74421 C 46.898260,107.12013 44.510870,102.84687 43.173370,102.84687 C 41.620220,102.84687 40.360000,104.76465 40.360000,107.12823 C 40.360000,109.49180 41.620220,111.40958 43.173370,111.40958 C 44.479690,111.40958 46.847580,107.23702 47.887390,107.66748 C 47.872780,109.31607 45.347830,112.70726 45.347830,114.71864 C 45.347830,117.08222 46.608050,119.00000 48.161210,119.00000 z " />
  <path
     sodipodi:nodetypes="cscsssccccccssscsc"
     id="path2256"
     style="fill:#000000;fill-opacity:1.0000000;fill-rule:evenodd;stroke:none;stroke-width:1.0000000pt;stroke-linecap:butt;stroke-linejoin:miter;stroke-opacity:1.0000000"
     d="M 89.801210,119.78000 C 91.354360,119.78000 92.614580,117.86222 92.614580,115.49864 C 92.614580,113.48505 90.056210,110.09724 90.155560,108.48833 C 90.977030,108.02855 93.514970,112.27128 94.826630,112.27128 C 96.379780,112.27128 97.640000,110.35351 97.640000,107.98993 C 97.640000,105.62635 96.379780,103.70857 94.826630,103.70857 C 93.479590,103.70857 91.171080,107.94781 90.155560,107.56506 L 91.861640,100.00000 L 87.770440,100.02451 C 87.770440,100.02451 89.562740,107.35897 89.564970,107.53238 L 89.532760,107.53238 L 89.532760,107.52421 C 88.538260,107.90013 86.150870,103.62687 84.813370,103.62687 C 83.260220,103.62687 82.000000,105.54465 82.000000,107.90823 C 82.000000,110.27180 83.260220,112.18958 84.813370,112.18958 C 86.119690,112.18958 88.487580,108.01702 89.527390,108.44748 C 89.512780,110.09607 86.987830,113.48726 86.987830,115.49864 C 86.987830,117.86222 88.248050,119.78000 89.801210,119.78000 z " />
  <path
     sodipodi:nodetypes="cscsssccccccssscsc"
     id="path2264"
     style="fill:#000000;fill-opacity:1.0000000;fill-rule:evenodd;stroke:none;stroke-width:1.0000000pt;stroke-linecap:butt;stroke-linejoin:miter;stroke-opacity:1.0000000"
     d="M 90.161210,149.78000 C 91.714360,149.78000 92.974580,147.86222 92.974580,145.49864 C 92.974580,143.48505 90.416210,140.09724 90.515570,138.48833 C 91.337030,138.02855 93.874970,142.27128 95.186630,142.27128 C 96.739780,142.27128 98.000000,140.35351 98.000000,137.98993 C 98.000000,135.62635 96.739780,133.70857 95.186630,133.70857 C 93.839590,133.70857 91.531080,137.94781 90.515570,137.56506 L 92.221640,130.00000 L 88.130440,130.02451 C 88.130440,130.02451 89.922740,137.35897 89.924970,137.53238 L 89.892760,137.53238 L 89.892760,137.52421 C 88.898260,137.90013 86.510870,133.62687 85.173370,133.62687 C 83.620220,133.62687 82.360000,135.54465 82.360000,137.90823 C 82.360000,140.27180 83.620220,142.18958 85.173370,142.18958 C 86.479690,142.18958 88.847590,138.01702 89.887390,138.44748 C 89.872780,140.09607 87.347830,143.48726 87.347830,145.49864 C 87.347830,147.86222 88.608050,149.78000 90.161210,149.78000 z " />
  <path
     sodipodi:nodetypes="cscsssccccccssscsc"
     id="path2260"
     style="fill:#000000;fill-opacity:1.0000000;fill-rule:evenodd;stroke:none;stroke-width:1.0000000pt;stroke-linecap:butt;stroke-linejoin:miter;stroke-opacity:1.0000000"
     d="M 49.161210,149.78000 C 50.714370,149.78000 51.974590,147.86222 51.974590,145.49865 C 51.974590,143.48505 49.416210,140.09725 49.515570,138.48834 C 50.337030,138.02856 52.874970,142.27129 54.186630,142.27129 C 55.739790,142.27129 57.000000,140.35351 57.000000,137.98994 C 57.000000,135.62636 55.739790,133.70858 54.186630,133.70858 C 52.839590,133.70858 50.531090,137.94782 49.515570,137.56507 L 51.221650,130.00000 L 47.130440,130.02452 C 47.130440,130.02452 48.922750,137.35898 48.924970,137.53239 L 48.892760,137.53239 L 48.892760,137.52421 C 47.898260,137.90013 45.510870,133.62688 44.173380,133.62687 C 42.620220,133.62687 41.360000,135.54465 41.360000,137.90823 C 41.360000,140.27181 42.620220,142.18959 44.173380,142.18959 C 45.479700,142.18959 47.847590,138.01702 48.887390,138.44749 C 48.872780,140.09607 46.347840,143.48727 46.347840,145.49865 C 46.347840,147.86222 47.608050,149.78000 49.161210,149.78000 z " />
  

  <metadata>
    <rdf:RDF 
     xmlns="http://web.resource.org/cc/"
     xmlns:dc="http://purl.org/dc/elements/1.1/"
     xmlns:rdf="http://www.w3.org/1999/02/22-rdf-syntax-ns#">
      <Work rdf:about="">
        <dc:title>card</dc:title>
        <dc:description></dc:description>
        <dc:subject>
          <rdf:Bag>
            <rdf:li>white</rdf:li>
            <rdf:li>card</rdf:li>
          </rdf:Bag>
        </dc:subject>
        <dc:publisher>
           <Agent>
             <dc:title></dc:title>
           </Agent>
         </dc:publisher>
         <dc:creator>
           <Agent>
             <dc:title>Nicu Buculei</dc:title>
           </Agent>
        </dc:creator>
         <dc:rights>
           <Agent>
             <dc:title>Nicu Buculei</dc:title>
           </Agent>
        </dc:rights>
        <dc:date></dc:date>
        <dc:format>image/svg+xml</dc:format>
        <dc:type rdf:resource="http://purl.org/dc/dcmitype/StillImage" />
        <license rdf:resource="http://web.resource.org/cc/PublicDomain" />
        <dc:language>en</dc:language>
      </Work>

      <License rdf:about="http://web.resource.org/cc/PublicDomain">
         <permits rdf:resource="http://web.resource.org/cc/Reproduction" />
         <permits rdf:resource="http://web.resource.org/cc/Distribution" />
         <permits rdf:resource="http://web.resource.org/cc/DerivativeWorks" />
      </License>

    </rdf:RDF>
  </metadata>
</svg>
