<?xml version="1.0" encoding="UTF-8" standalone="no"?>
<!-- Created with Inkscape (http://www.inkscape.org/) -->
<svg
   xmlns:dc="http://purl.org/dc/elements/1.1/"
   xmlns:cc="http://web.resource.org/cc/"
   xmlns:rdf="http://www.w3.org/1999/02/22-rdf-syntax-ns#"
   xmlns:svg="http://www.w3.org/2000/svg"
   xmlns="http://www.w3.org/2000/svg"
   xmlns:xlink="http://www.w3.org/1999/xlink"
   xmlns:sodipodi="http://inkscape.sourceforge.net/DTD/sodipodi-0.dtd"
   xmlns:inkscape="http://www.inkscape.org/namespaces/inkscape"
   id="svg2"
   height="190.00000"
   preserveAspectRatio="xMinYMin meet"
   viewBox="0 0 140 190"
   y="0.0000000"
   x="0.0000000"
   version="1.0"
   sodipodi:version="0.32"
   inkscape:version="0.41+cvs"
   sodipodi:docname="white_c_9.svg"
   sodipodi:docbase="/home/nicu/Desktop/card_nicu_buculei_01.zip_FILES/cards/white">
  <sodipodi:namedview
     id="base"
     pagecolor="#ffffff"
     bordercolor="#666666"
     borderopacity="1.0"
     inkscape:pageopacity="0.0"
     inkscape:pageshadow="2"
     inkscape:window-width="1152"
     inkscape:window-height="791"
     inkscape:zoom="1.0000000"
     inkscape:cx="70.000000"
     inkscape:cy="94.999969"
     inkscape:window-x="0"
     inkscape:window-y="26"
     inkscape:current-layer="svg2" />
  <defs
     id="defs3">
    <linearGradient
       id="linearGradient2060">
      <stop
         id="stop2062"
         offset="0.0000000"
         style="stop-color:#ebf0d0;stop-opacity:1.0000000;" />
      <stop
         id="stop2064"
         offset="1.0000000"
         style="stop-color:#ffffeb;stop-opacity:1.0000000;" />
    </linearGradient>
    <linearGradient
       gradientTransform="translate(0.000000,-1.000000)"
       gradientUnits="userSpaceOnUse"
       xlink:href="#linearGradient2060"
       id="linearGradient4853"
       y2="128.69501"
       x2="109.00000"
       y1="63.099518"
       x1="2.0000000" />
  </defs>
  <g
     inkscape:label="Layer 1"
     inkscape:groupmode="layer"
     id="layer1">
    <g
       id="g5630">
      <path
         style="fill:#ffffff;fill-opacity:1.0000000;stroke:black;stroke-width:0.70000000;stroke-miterlimit:4.0000000;stroke-dashoffset:0.0000000;stroke-opacity:1.0000000"
         d="M 18.000000,1.9999995 L 121.00000,1.9999995 C 129.86400,1.9999995 137.00000,9.1359995 137.00000,18.000000 L 137.00000,171.00000 C 137.00000,179.86400 129.86400,187.00000 121.00000,187.00000 L 18.000000,187.00000 C 9.1360000,187.00000 2.0000000,179.86400 2.0000000,171.00000 L 2.0000000,18.000000 C 2.0000000,9.1359995 9.1360000,1.9999995 18.000000,1.9999995 z "
         id="rect1306" />
    </g>
    <g
       transform="translate(-448.5000,-231.5000)"
       id="g5495"
       inkscape:groupmode="layer"
       inkscape:label="Layer 1" />
  </g>
  <g
     id="g5581"
     transform="translate(351.5000,184.5000)" />
  <path
     id="text1768"
     style="font-size:37.418446;font-style:normal;font-variant:normal;font-weight:bold;font-stretch:normal;fill:#0c0c0c;fill-opacity:1.0000000;stroke:none;stroke-width:1.0000000px;stroke-linecap:butt;stroke-linejoin:miter;stroke-opacity:1.0000000;font-family:Bitstream Vera Sans;text-anchor:start;writing-mode:lr-tb"
     d="M 12.094195,41.838972 L 12.094195,36.293150 C 13.113136,36.869175 14.087777,37.304529 15.018127,37.599234 C 15.948459,37.880544 16.867725,38.021204 17.775925,38.021193 C 19.680898,38.021204 21.165010,37.384901 22.228270,36.112304 C 23.291503,34.826323 23.917270,32.924143 24.105565,30.405740 C 23.352415,31.075531 22.549447,31.577873 21.696649,31.912752 C 20.843825,32.247653 19.919021,32.415104 18.922239,32.415093 C 16.385942,32.415104 14.336975,31.524292 12.775338,29.742646 C 11.224767,27.947637 10.449476,25.589999 10.449486,22.669719 C 10.449476,19.441372 11.313367,16.856004 13.041148,14.913605 C 14.779996,12.971261 17.105848,12.000067 20.018706,12.000034 C 23.252740,12.000067 25.755802,13.319546 27.527893,15.958472 C 29.299956,18.597443 30.185988,22.328142 30.186015,27.150580 C 30.185988,32.107004 29.150434,36.005154 27.079335,38.845029 C 25.008200,41.671532 22.167339,43.084778 18.556744,43.084778 C 17.393809,43.084778 16.280720,42.977606 15.217478,42.763272 C 14.154228,42.562344 13.113136,42.254244 12.094195,41.838972 M 19.985481,27.391705 C 21.104097,27.391716 21.945829,26.956361 22.510693,26.085620 C 23.075530,25.201528 23.357953,23.882048 23.357971,22.127192 C 23.357953,20.385776 23.075530,19.072993 22.510693,18.188857 C 21.945829,17.304764 21.104097,16.862702 19.985481,16.862680 C 18.866845,16.862702 18.025114,17.304764 17.460268,18.188857 C 16.895413,19.072993 16.612990,20.385776 16.612999,22.127192 C 16.612990,23.882048 16.895413,25.201528 17.460268,26.085620 C 18.025114,26.956361 18.866845,27.391716 19.985481,27.391705" />
  <path
     id="text3931"
     style="font-size:37.418446;font-style:normal;font-variant:normal;font-weight:bold;font-stretch:normal;fill:#0c0c0c;fill-opacity:1.0000000;stroke:none;stroke-width:1.0000000px;stroke-linecap:butt;stroke-linejoin:miter;stroke-opacity:1.0000000;font-family:Bitstream Vera Sans;text-anchor:start;writing-mode:lr-tb"
     d="M 126.51601,147.59110 L 126.51601,153.13692 C 125.49707,152.56090 124.52243,152.12554 123.59209,151.83084 C 122.66175,151.54952 121.74248,151.40887 120.83428,151.40887 C 118.92931,151.40887 117.44520,152.04517 116.38194,153.31776 C 115.31871,154.60374 114.69294,156.50593 114.50464,159.02433 C 115.25779,158.35454 116.06076,157.85220 116.91356,157.51732 C 117.76638,157.18241 118.69119,157.01497 119.68797,157.01498 C 122.22427,157.01497 124.27323,157.90578 125.83487,159.68742 C 127.38544,161.48243 128.16073,163.84007 128.16072,166.76035 C 128.16073,169.98870 127.29684,172.57406 125.56906,174.51647 C 123.83021,176.45882 121.50436,177.43000 118.59150,177.43003 C 115.35747,177.43000 112.85442,176.11053 111.08232,173.47160 C 109.31025,170.83262 108.42422,167.10192 108.42419,162.27949 C 108.42422,157.32307 109.45977,153.42492 111.53087,150.58504 C 113.60201,147.75854 116.44287,146.34530 120.05346,146.34530 C 121.21640,146.34530 122.32949,146.45246 123.39273,146.66679 C 124.45598,146.86773 125.49707,147.17583 126.51601,147.59110 M 118.62473,162.03837 C 117.50611,162.03835 116.66438,162.47371 116.09952,163.34445 C 115.53468,164.22855 115.25226,165.54802 115.25224,167.30288 C 115.25226,169.04430 115.53468,170.35708 116.09952,171.24122 C 116.66438,172.12531 117.50611,172.56737 118.62473,172.56739 C 119.74336,172.56737 120.58509,172.12531 121.14994,171.24122 C 121.71480,170.35708 121.99722,169.04430 121.99722,167.30288 C 121.99722,165.54802 121.71480,164.22855 121.14994,163.34445 C 120.58509,162.47371 119.74336,162.03835 118.62473,162.03837" />
  <path
     sodipodi:nodetypes="cscsssccccccssscsc"
     id="path908"
     style="fill:#000000;fill-opacity:1.0000000;fill-rule:evenodd;stroke:none;stroke-width:1.0000000pt;stroke-linecap:butt;stroke-linejoin:miter;stroke-opacity:1.0000000"
     d="M 20.527260,48.665000 C 17.860880,48.665000 15.697390,51.928520 15.697390,55.950660 C 15.697390,59.377240 20.089490,65.142330 19.918920,67.880240 C 18.508670,68.662660 14.151660,61.442720 11.899870,61.442720 C 9.2334800,61.442720 7.0700000,64.706240 7.0700000,68.728380 C 7.0700000,72.750530 9.2334800,76.014050 11.899870,76.014050 C 14.212390,76.014050 18.175530,68.800060 19.918920,69.451390 L 16.990000,82.325000 L 24.013590,82.283290 C 24.013590,82.283290 20.936640,69.802100 20.932820,69.507000 L 20.988130,69.507000 L 20.988130,69.520910 C 22.695430,68.881200 26.793990,76.153080 29.090130,76.153090 C 31.756520,76.153090 33.920000,72.889570 33.920000,68.867420 C 33.920000,64.845280 31.756520,61.581760 29.090130,61.581760 C 26.847510,61.581760 22.782430,68.682290 20.997340,67.949760 C 21.022420,65.144330 25.357130,59.373470 25.357130,55.950660 C 25.357130,51.928520 23.193650,48.665000 20.527260,48.665000 z " />
  <path
     sodipodi:nodetypes="cscsssccccccssscsc"
     id="path3921"
     style="fill:#000000;fill-opacity:1.0000000;fill-rule:evenodd;stroke:none;stroke-width:1.0000000pt;stroke-linecap:butt;stroke-linejoin:miter;stroke-opacity:1.0000000"
     d="M 117.91274,139.96250 C 120.57912,139.96250 122.74261,136.69898 122.74261,132.67684 C 122.74261,129.25026 118.35051,123.48517 118.52108,120.74726 C 119.93133,119.96484 124.28834,127.18478 126.54013,127.18478 C 129.20652,127.18478 131.37000,123.92126 131.37000,119.89912 C 131.37000,115.87697 129.20652,112.61345 126.54013,112.61345 C 124.22761,112.61345 120.26447,119.82744 118.52108,119.17611 L 121.45000,106.30250 L 114.42641,106.34421 C 114.42641,106.34421 117.50336,118.82540 117.50718,119.12050 L 117.45187,119.12050 L 117.45187,119.10659 C 115.74457,119.74630 111.64601,112.47442 109.34987,112.47441 C 106.68348,112.47441 104.52000,115.73793 104.52000,119.76008 C 104.52000,123.78222 106.68348,127.04574 109.34987,127.04574 C 111.59249,127.04574 115.65757,119.94521 117.44266,120.67774 C 117.41758,123.48317 113.08287,129.25403 113.08287,132.67684 C 113.08287,136.69898 115.24635,139.96250 117.91274,139.96250 z " />
  <path
     sodipodi:nodetypes="cscsssccccccssscsc"
     id="path2242"
     style="fill:#000000;fill-opacity:1.0000000;fill-rule:evenodd;stroke:none;stroke-width:1.0000000pt;stroke-linecap:butt;stroke-linejoin:miter;stroke-opacity:1.0000000"
     d="M 49.198740,36.000000 C 47.645590,36.000000 46.385370,37.917780 46.385370,40.281350 C 46.385370,42.294950 48.943740,45.682750 48.844390,47.291660 C 48.022920,47.751440 45.484980,43.508710 44.173320,43.508710 C 42.620170,43.508710 41.359950,45.426490 41.359950,47.790060 C 41.359950,50.153640 42.620170,52.071420 44.173320,52.071420 C 45.520360,52.071420 47.828870,47.832180 48.844390,48.214930 L 47.138310,55.780000 L 51.229510,55.755480 C 51.229510,55.755480 49.437210,48.421020 49.434980,48.247610 L 49.467190,48.247610 L 49.467190,48.255790 C 50.461690,47.879860 52.849080,52.153120 54.186580,52.153130 C 55.739730,52.153130 56.999950,50.235350 56.999950,47.871770 C 56.999950,45.508190 55.739730,43.590410 54.186580,43.590410 C 52.880260,43.590410 50.512370,47.762980 49.472560,47.332510 C 49.487170,45.683930 52.012120,42.292730 52.012120,40.281350 C 52.012120,37.917780 50.751900,36.000000 49.198740,36.000000 z " />
  <path
     sodipodi:nodetypes="cscsssccccccssscsc"
     id="path2250"
     style="fill:#000000;fill-opacity:1.0000000;fill-rule:evenodd;stroke:none;stroke-width:1.0000000pt;stroke-linecap:butt;stroke-linejoin:miter;stroke-opacity:1.0000000"
     d="M 69.198790,85.000000 C 67.645640,85.000000 66.385420,86.917780 66.385420,89.281350 C 66.385420,91.294950 68.943790,94.682750 68.844440,96.291660 C 68.022970,96.751440 65.485040,92.508710 64.173380,92.508710 C 62.620220,92.508710 61.360000,94.426490 61.360000,96.790060 C 61.360000,99.153640 62.620220,101.07142 64.173380,101.07142 C 65.520410,101.07142 67.828920,96.832180 68.844440,97.214930 L 67.138360,104.78000 L 71.229560,104.75548 C 71.229560,104.75548 69.437260,97.421020 69.435030,97.247610 L 69.467250,97.247610 L 69.467250,97.255790 C 70.461740,96.879870 72.849130,101.15312 74.186630,101.15313 C 75.739790,101.15313 77.000000,99.235350 77.000000,96.871770 C 77.000000,94.508190 75.739790,92.590410 74.186630,92.590410 C 72.880310,92.590410 70.512420,96.762980 69.472610,96.332510 C 69.487220,94.683930 72.012170,91.292730 72.012170,89.281350 C 72.012170,86.917780 70.751950,85.000000 69.198790,85.000000 z " />
  <path
     sodipodi:nodetypes="cscsssccccccssscsc"
     id="path2248"
     style="fill:#000000;fill-opacity:1.0000000;fill-rule:evenodd;stroke:none;stroke-width:1.0000000pt;stroke-linecap:butt;stroke-linejoin:miter;stroke-opacity:1.0000000"
     d="M 90.198750,36.220000 C 88.645590,36.220000 87.385370,38.137780 87.385370,40.501350 C 87.385370,42.514950 89.943750,45.902760 89.844390,47.511660 C 89.022930,47.971450 86.484990,43.728710 85.173330,43.728710 C 83.620170,43.728710 82.359950,45.646490 82.359950,48.010060 C 82.359950,50.373650 83.620170,52.291430 85.173330,52.291430 C 86.520370,52.291430 88.828870,48.052190 89.844390,48.434930 L 88.138310,56.000000 L 92.229520,55.975490 C 92.229520,55.975490 90.437210,48.641030 90.434980,48.467620 L 90.467200,48.467620 L 90.467200,48.475790 C 91.461690,48.099870 93.849090,52.373130 95.186580,52.373140 C 96.739740,52.373140 97.999960,50.455350 97.999950,48.091770 C 97.999950,45.728200 96.739740,43.810420 95.186580,43.810420 C 93.880260,43.810420 91.512370,47.982980 90.472570,47.552520 C 90.487170,45.903930 93.012120,42.512740 93.012120,40.501350 C 93.012120,38.137780 91.751900,36.220000 90.198750,36.220000 z " />
  <path
     sodipodi:nodetypes="cscsssccccccssscsc"
     id="path2254"
     style="fill:#000000;fill-opacity:1.0000000;fill-rule:evenodd;stroke:none;stroke-width:1.0000000pt;stroke-linecap:butt;stroke-linejoin:miter;stroke-opacity:1.0000000"
     d="M 48.838740,71.219990 C 47.285590,71.219990 46.025370,73.137770 46.025370,75.501350 C 46.025370,77.514950 48.583740,80.902750 48.484390,82.511660 C 47.662920,82.971440 45.124990,78.728710 43.813330,78.728710 C 42.260170,78.728710 40.999950,80.646490 40.999950,83.010060 C 40.999950,85.373640 42.260170,87.291420 43.813330,87.291420 C 45.160360,87.291420 47.468870,83.052190 48.484390,83.434930 L 46.778310,91.000000 L 50.869510,90.975480 C 50.869510,90.975480 49.077210,83.641030 49.074980,83.467600 L 49.107200,83.467600 L 49.107200,83.475790 C 50.101690,83.099870 52.489080,87.373120 53.826580,87.373130 C 55.379740,87.373130 56.639950,85.455350 56.639950,83.091770 C 56.639950,80.728180 55.379740,78.810410 53.826580,78.810410 C 52.520260,78.810410 50.152370,82.982980 49.112560,82.552500 C 49.127170,80.903930 51.652120,77.512730 51.652120,75.501350 C 51.652120,73.137770 50.391900,71.219990 48.838740,71.219990 z " />
  <path
     sodipodi:nodetypes="cscsssccccccssscsc"
     id="path2252"
     style="fill:#000000;fill-opacity:1.0000000;fill-rule:evenodd;stroke:none;stroke-width:1.0000000pt;stroke-linecap:butt;stroke-linejoin:miter;stroke-opacity:1.0000000"
     d="M 88.198740,70.000000 C 86.645580,70.000000 85.385360,71.917780 85.385360,74.281350 C 85.385360,76.294950 87.943740,79.682750 87.844380,81.291660 C 87.022920,81.751440 84.484980,77.508710 83.173320,77.508710 C 81.620160,77.508710 80.359950,79.426490 80.359950,81.790060 C 80.359950,84.153640 81.620160,86.071420 83.173320,86.071420 C 84.520360,86.071420 86.828860,81.832180 87.844380,82.214930 L 86.138300,89.779990 L 90.229510,89.755480 C 90.229510,89.755480 88.437200,82.421020 88.434980,82.247610 L 88.467190,82.247610 L 88.467190,82.255790 C 89.461690,81.879860 91.849080,86.153120 93.186570,86.153130 C 94.739730,86.153130 95.999950,84.235350 95.999950,81.871770 C 95.999950,79.508190 94.739730,77.590410 93.186570,77.590410 C 91.880250,77.590410 89.512360,81.762980 88.472560,81.332510 C 88.487170,79.683930 91.012110,76.292730 91.012110,74.281350 C 91.012110,71.917780 89.751900,70.000000 88.198740,70.000000 z " />
  <path
     sodipodi:nodetypes="cscsssccccccssscsc"
     id="path2258"
     style="fill:#000000;fill-opacity:1.0000000;fill-rule:evenodd;stroke:none;stroke-width:1.0000000pt;stroke-linecap:butt;stroke-linejoin:miter;stroke-opacity:1.0000000"
     d="M 48.161160,119.00000 C 49.714310,119.00000 50.974530,117.08222 50.974530,114.71864 C 50.974530,112.70505 48.416160,109.31724 48.515510,107.70834 C 49.336980,107.24855 51.874920,111.49129 53.186580,111.49129 C 54.739730,111.49129 55.999950,109.57351 55.999950,107.20992 C 55.999950,104.84635 54.739730,102.92856 53.186580,102.92856 C 51.839540,102.92856 49.531030,107.16781 48.515510,106.78505 L 50.221590,99.220000 L 46.130390,99.244510 C 46.130390,99.244510 47.922690,106.57897 47.924920,106.75238 L 47.892710,106.75238 L 47.892710,106.74421 C 46.898210,107.12013 44.510820,102.84687 43.173320,102.84687 C 41.620170,102.84687 40.359950,104.76465 40.359950,107.12823 C 40.359950,109.49180 41.620170,111.40958 43.173320,111.40958 C 44.479640,111.40958 46.847530,107.23702 47.887340,107.66748 C 47.872730,109.31607 45.347780,112.70726 45.347780,114.71864 C 45.347780,117.08222 46.608000,119.00000 48.161160,119.00000 z " />
  <path
     sodipodi:nodetypes="cscsssccccccssscsc"
     id="path2256"
     style="fill:#000000;fill-opacity:1.0000000;fill-rule:evenodd;stroke:none;stroke-width:1.0000000pt;stroke-linecap:butt;stroke-linejoin:miter;stroke-opacity:1.0000000"
     d="M 89.801160,119.78000 C 91.354310,119.78000 92.614530,117.86221 92.614530,115.49864 C 92.614530,113.48505 90.056160,110.09724 90.155510,108.48833 C 90.976980,108.02855 93.514920,112.27128 94.826580,112.27128 C 96.379730,112.27128 97.639950,110.35351 97.639950,107.98993 C 97.639950,105.62635 96.379730,103.70857 94.826580,103.70857 C 93.479540,103.70857 91.171030,107.94781 90.155510,107.56506 L 91.861590,100.00000 L 87.770390,100.02451 C 87.770390,100.02451 89.562690,107.35897 89.564920,107.53238 L 89.532710,107.53238 L 89.532710,107.52420 C 88.538210,107.90013 86.150820,103.62687 84.813320,103.62687 C 83.260170,103.62687 81.999950,105.54465 81.999950,107.90823 C 81.999950,110.27179 83.260170,112.18958 84.813320,112.18958 C 86.119640,112.18958 88.487530,108.01702 89.527340,108.44747 C 89.512730,110.09607 86.987780,113.48726 86.987780,115.49864 C 86.987780,117.86221 88.248000,119.78000 89.801160,119.78000 z " />
  <path
     sodipodi:nodetypes="cscsssccccccssscsc"
     id="path2264"
     style="fill:#000000;fill-opacity:1.0000000;fill-rule:evenodd;stroke:none;stroke-width:1.0000000pt;stroke-linecap:butt;stroke-linejoin:miter;stroke-opacity:1.0000000"
     d="M 90.161160,149.78000 C 91.714310,149.78000 92.974530,147.86222 92.974530,145.49864 C 92.974530,143.48505 90.416160,140.09724 90.515520,138.48833 C 91.336980,138.02855 93.874920,142.27128 95.186580,142.27128 C 96.739730,142.27128 97.999950,140.35351 97.999950,137.98992 C 97.999950,135.62635 96.739730,133.70857 95.186580,133.70857 C 93.839540,133.70857 91.531030,137.94781 90.515520,137.56506 L 92.221590,130.00000 L 88.130390,130.02451 C 88.130390,130.02451 89.922690,137.35897 89.924920,137.53238 L 89.892710,137.53238 L 89.892710,137.52421 C 88.898210,137.90013 86.510820,133.62687 85.173320,133.62687 C 83.620170,133.62687 82.359950,135.54465 82.359950,137.90823 C 82.359950,140.27180 83.620170,142.18958 85.173320,142.18958 C 86.479640,142.18958 88.847540,138.01702 89.887340,138.44748 C 89.872730,140.09607 87.347780,143.48726 87.347780,145.49864 C 87.347780,147.86222 88.608000,149.78000 90.161160,149.78000 z " />
  <path
     sodipodi:nodetypes="cscsssccccccssscsc"
     id="path2260"
     style="fill:#000000;fill-opacity:1.0000000;fill-rule:evenodd;stroke:none;stroke-width:1.0000000pt;stroke-linecap:butt;stroke-linejoin:miter;stroke-opacity:1.0000000"
     d="M 49.161160,149.78000 C 50.714320,149.78000 51.974540,147.86222 51.974540,145.49865 C 51.974540,143.48505 49.416160,140.09725 49.515520,138.48834 C 50.336980,138.02856 52.874920,142.27129 54.186580,142.27129 C 55.739740,142.27129 56.999950,140.35351 56.999950,137.98994 C 56.999950,135.62636 55.739740,133.70858 54.186580,133.70858 C 52.839540,133.70858 50.531040,137.94782 49.515520,137.56507 L 51.221600,130.00000 L 47.130390,130.02452 C 47.130390,130.02452 48.922700,137.35898 48.924920,137.53239 L 48.892710,137.53239 L 48.892710,137.52421 C 47.898210,137.90013 45.510820,133.62688 44.173330,133.62687 C 42.620170,133.62687 41.359950,135.54465 41.359950,137.90823 C 41.359950,140.27181 42.620170,142.18959 44.173330,142.18959 C 45.479650,142.18959 47.847540,138.01702 48.887340,138.44749 C 48.872730,140.09607 46.347790,143.48727 46.347790,145.49865 C 46.347790,147.86222 47.608000,149.78000 49.161160,149.78000 z " />
  

  <metadata>
    <rdf:RDF 
     xmlns="http://web.resource.org/cc/"
     xmlns:dc="http://purl.org/dc/elements/1.1/"
     xmlns:rdf="http://www.w3.org/1999/02/22-rdf-syntax-ns#">
      <Work rdf:about="">
        <dc:title>card</dc:title>
        <dc:description></dc:description>
        <dc:subject>
          <rdf:Bag>
            <rdf:li>white</rdf:li>
            <rdf:li>card</rdf:li>
          </rdf:Bag>
        </dc:subject>
        <dc:publisher>
           <Agent>
             <dc:title></dc:title>
           </Agent>
         </dc:publisher>
         <dc:creator>
           <Agent>
             <dc:title>Nicu Buculei</dc:title>
           </Agent>
        </dc:creator>
         <dc:rights>
           <Agent>
             <dc:title>Nicu Buculei</dc:title>
           </Agent>
        </dc:rights>
        <dc:date></dc:date>
        <dc:format>image/svg+xml</dc:format>
        <dc:type rdf:resource="http://purl.org/dc/dcmitype/StillImage" />
        <license rdf:resource="http://web.resource.org/cc/PublicDomain" />
        <dc:language>en</dc:language>
      </Work>

      <License rdf:about="http://web.resource.org/cc/PublicDomain">
         <permits rdf:resource="http://web.resource.org/cc/Reproduction" />
         <permits rdf:resource="http://web.resource.org/cc/Distribution" />
         <permits rdf:resource="http://web.resource.org/cc/DerivativeWorks" />
      </License>

    </rdf:RDF>
  </metadata>
</svg>
