<?xml version="1.0" encoding="UTF-8" standalone="no"?>
<!-- Created with Inkscape (http://www.inkscape.org/) -->
<svg
   xmlns:dc="http://purl.org/dc/elements/1.1/"
   xmlns:cc="http://web.resource.org/cc/"
   xmlns:rdf="http://www.w3.org/1999/02/22-rdf-syntax-ns#"
   xmlns:svg="http://www.w3.org/2000/svg"
   xmlns="http://www.w3.org/2000/svg"
   xmlns:xlink="http://www.w3.org/1999/xlink"
   xmlns:sodipodi="http://inkscape.sourceforge.net/DTD/sodipodi-0.dtd"
   xmlns:inkscape="http://www.inkscape.org/namespaces/inkscape"
   sodipodi:docbase="/home/nicu/Desktop/simple"
   sodipodi:docname="d_5.svg"
   inkscape:version="0.41"
   sodipodi:version="0.32"
   version="1.0"
   x="0.0000000"
   y="0.0000000"
   preserveAspectRatio="xMinYMin meet"
   viewBox="0 0 140 190"
   height="190.00000"
   id="svg2">
  
  <sodipodi:namedview
     inkscape:current-layer="svg2"
     inkscape:window-y="26"
     inkscape:window-x="0"
     inkscape:cy="95.000001"
     inkscape:cx="70.000003"
     inkscape:zoom="1.9105263"
     inkscape:window-height="791"
     inkscape:window-width="1152"
     inkscape:pageshadow="2"
     inkscape:pageopacity="0.0"
     borderopacity="1.0"
     bordercolor="#666666"
     pagecolor="#ffffff"
     id="base" />
  <defs
     id="defs3">
    <linearGradient
       id="linearGradient2060">
      <stop
         style="stop-color:#ebf0d0;stop-opacity:1.0000000;"
         offset="0.0000000"
         id="stop2062" />
      <stop
         style="stop-color:#ffffeb;stop-opacity:1.0000000;"
         offset="1.0000000"
         id="stop2064" />
    </linearGradient>
    <linearGradient
       x1="2.0000000"
       y1="63.099518"
       x2="109.00000"
       y2="128.69501"
       id="linearGradient4853"
       xlink:href="#linearGradient2060"
       gradientUnits="userSpaceOnUse"
       gradientTransform="translate(0.000000,-1.000000)" />
  </defs>
  <g
     id="layer1"
     inkscape:groupmode="layer"
     inkscape:label="Layer 1">
    <g
       id="g5630">
      <path
         id="rect1306"
         d="M 18.000000,1.9999995 L 121.00000,1.9999995 C 129.86400,1.9999995 137.00000,9.1359995 137.00000,18.000000 L 137.00000,171.00000 C 137.00000,179.86400 129.86400,187.00000 121.00000,187.00000 L 18.000000,187.00000 C 9.1360000,187.00000 2.0000000,179.86400 2.0000000,171.00000 L 2.0000000,18.000000 C 2.0000000,9.1359995 9.1360000,1.9999995 18.000000,1.9999995 z "
         style="fill:#ffffff;fill-opacity:1.0000000;stroke:black;stroke-width:0.70000000;stroke-miterlimit:4.0000000;stroke-dashoffset:0.0000000;stroke-opacity:1.0000000" />
    </g>
    <g
       inkscape:label="Layer 1"
       inkscape:groupmode="layer"
       id="g5495"
       transform="translate(-448.5000,-231.5000)" />
  </g>
  <g
     transform="translate(333.5000,184.5000)"
     id="g2352" />
  <g
     transform="translate(329.5000,183.5000)"
     id="g3925">
    <path
       d="M -348.77701,-155.72523 L -331.29193,-155.72523 L -331.29193,-150.55461 L -343.16790,-150.55461 L -343.16790,-146.33408 C -342.63197,-146.48022 -342.09603,-146.58985 -341.56008,-146.66295 C -341.01197,-146.74820 -340.44557,-146.79083 -339.86090,-146.79085 C -336.53564,-146.79083 -333.94729,-145.95646 -332.09584,-144.28776 C -330.24443,-142.63120 -329.31871,-140.31691 -329.31869,-137.34488 C -329.31871,-134.39720 -330.32969,-132.08900 -332.35163,-130.42028 C -334.36143,-128.75155 -337.15685,-127.91719 -340.73789,-127.91719 C -342.28483,-127.91719 -343.81956,-128.06944 -345.34212,-128.37395 C -346.85250,-128.66629 -348.35679,-129.11696 -349.85499,-129.72599 L -349.85499,-135.26202 C -348.36897,-134.40938 -346.96213,-133.76990 -345.63445,-133.34359 C -344.29460,-132.91727 -343.03392,-132.70411 -341.85241,-132.70412 C -340.14715,-132.70411 -338.80730,-133.11825 -337.83285,-133.94653 C -336.84625,-134.78697 -336.35294,-135.91976 -336.35292,-137.34488 C -336.35294,-138.78217 -336.84625,-139.91495 -337.83285,-140.74323 C -338.80730,-141.57149 -340.14715,-141.98563 -341.85241,-141.98564 C -342.86340,-141.98563 -343.94137,-141.85165 -345.08633,-141.58369 C -346.23130,-141.32789 -347.46153,-140.92593 -348.77701,-140.37782 L -348.77701,-155.72523"
       transform="scale(0.909282,1.099768)"
       style="font-size:37.418446;font-style:normal;font-variant:normal;font-weight:bold;font-stretch:normal;fill:#ff0000;fill-opacity:1.0000000;stroke:none;stroke-width:1.0000000px;stroke-linecap:butt;stroke-linejoin:miter;stroke-opacity:1.0000000;font-family:Bitstream Vera Sans;text-anchor:start;writing-mode:lr-tb"
       id="text2531" />
    <path
       d="M 223.45481,5.9103408 L 240.93990,5.9103408 L 240.93990,11.080956 L 229.06393,11.080956 L 229.06393,15.301494 C 229.59986,15.155346 230.13580,15.045722 230.67175,14.972621 C 231.21986,14.887375 231.78625,14.844744 232.37093,14.844725 C 235.69618,14.844744 238.28453,15.679106 240.13599,17.347815 C 241.98740,19.004375 242.91311,21.318664 242.91314,24.290691 C 242.91311,27.238373 241.90213,29.546573 239.88020,31.215295 C 237.87040,32.884022 235.07498,33.718384 231.49393,33.718385 C 229.94700,33.718384 228.41226,33.566128 226.88971,33.261617 C 225.37932,32.969285 223.87504,32.518608 222.37684,31.909583 L 222.37684,26.373553 C 223.86286,27.226193 225.26970,27.865668 226.59738,28.291979 C 227.93722,28.718301 229.19790,28.931459 230.37942,28.931455 C 232.08467,28.931459 233.42453,28.517323 234.39898,27.689045 C 235.38558,26.848598 235.87889,25.715815 235.87891,24.290691 C 235.87889,22.853404 235.38558,21.720620 234.39898,20.892336 C 233.42453,20.064076 232.08467,19.649940 230.37942,19.649926 C 229.36843,19.649940 228.29046,19.783925 227.14550,20.051882 C 226.00053,20.307685 224.77030,20.709641 223.45481,21.257750 L 223.45481,5.9103408"
       transform="scale(-0.909282,-1.099768)"
       style="font-size:37.418446;font-style:normal;font-variant:normal;font-weight:bold;font-stretch:normal;fill:#ff0000;fill-opacity:1.0000000;stroke:none;stroke-width:1.0000000px;stroke-linecap:butt;stroke-linejoin:miter;stroke-opacity:1.0000000;font-family:Bitstream Vera Sans;text-anchor:start;writing-mode:lr-tb"
       id="text2540" />
  </g>
  <path
     d="M 20.409550,48.665000 C 16.283710,56.910480 13.275310,61.163050 7.0700000,65.704560 C 12.942390,70.191570 17.082700,74.829030 20.530180,82.325000 C 23.609430,75.203780 27.376590,69.895050 33.920000,65.481900 C 27.338020,62.132990 23.527370,56.828250 20.409550,48.665000 z "
     style="fill:#ff0000;fill-opacity:1.0000000;fill-rule:evenodd;stroke:none;stroke-width:1.0000000pt;stroke-linecap:butt;stroke-linejoin:round;stroke-opacity:1.0000000"
     id="path1608" />
  <path
     d="M 51.130230,45.000000 C 48.726940,49.845380 46.974560,52.344370 43.360000,55.013150 C 46.780640,57.649900 49.192350,60.375060 51.200490,64.780000 C 52.994140,60.595280 55.188490,57.475650 59.000000,54.882300 C 55.166030,52.914340 52.946340,49.797060 51.130230,45.000000 z "
     style="fill:#ff0000;fill-opacity:1.0000000;fill-rule:evenodd;stroke:none;stroke-width:1.0000000pt;stroke-linecap:butt;stroke-linejoin:round;stroke-opacity:1.0000000"
     id="path1498" />
  <path
     d="M 87.130230,45.000000 C 84.726950,49.845380 82.974570,52.344370 79.360000,55.013150 C 82.780650,57.649900 85.192360,60.375060 87.200500,64.780000 C 88.994150,60.595280 91.188500,57.475650 95.000000,54.882300 C 91.166030,52.914340 88.946350,49.797060 87.130230,45.000000 z "
     style="fill:#ff0000;fill-opacity:1.0000000;fill-rule:evenodd;stroke:none;stroke-width:1.0000000pt;stroke-linecap:butt;stroke-linejoin:round;stroke-opacity:1.0000000"
     id="path1500" />
  <path
     d="M 53.130230,122.22000 C 50.726940,127.06538 48.974560,129.56437 45.360000,132.23315 C 48.780640,134.86990 51.192350,137.59506 53.200490,142.00000 C 54.994140,137.81528 57.188490,134.69565 61.000000,132.10230 C 57.166030,130.13434 54.946340,127.01706 53.130230,122.22000 z "
     style="fill:#ff0000;fill-opacity:1.0000000;fill-rule:evenodd;stroke:none;stroke-width:1.0000000pt;stroke-linecap:butt;stroke-linejoin:round;stroke-opacity:1.0000000"
     id="path1512" />
  <path
     d="M 88.130230,122.00000 C 85.726950,126.84539 83.974570,129.34437 80.360000,132.01315 C 83.780650,134.64990 86.192360,137.37506 88.200500,141.78000 C 89.994150,137.59528 92.188500,134.47565 96.000000,131.88230 C 92.166030,129.91434 89.946350,126.79707 88.130230,122.00000 z "
     style="fill:#ff0000;fill-opacity:1.0000000;fill-rule:evenodd;stroke:none;stroke-width:1.0000000pt;stroke-linecap:butt;stroke-linejoin:round;stroke-opacity:1.0000000"
     id="path1516" />
  <path
     d="M 118.33956,106.34000 C 114.21371,114.58548 111.20531,118.83805 105.00000,123.37956 C 110.87239,127.86657 115.01271,132.50403 118.46019,140.00000 C 121.53944,132.87878 125.30659,127.57005 131.85000,123.15690 C 125.26803,119.80799 121.45738,114.50325 118.33956,106.34000 z "
     style="fill:#ff0000;fill-opacity:1.0000000;fill-rule:evenodd;stroke:none;stroke-width:1.0000000pt;stroke-linecap:butt;stroke-linejoin:round;stroke-opacity:1.0000000"
     id="path1518" />
  <path
     d="M 69.770230,82.219998 C 67.366940,87.065378 65.614560,89.564370 62.000000,92.233150 C 65.420640,94.869900 67.832350,97.595060 69.840490,102.00000 C 71.634140,97.815280 73.828500,94.695650 77.640000,92.102300 C 73.806030,90.134340 71.586340,87.017058 69.770230,82.219998 z "
     style="fill:#ff0000;fill-opacity:1.0000000;fill-rule:evenodd;stroke:none;stroke-width:1.0000000pt;stroke-linecap:butt;stroke-linejoin:round;stroke-opacity:1.0000000"
     id="path1502" />

  

  <metadata>
    <rdf:RDF 
     xmlns="http://web.resource.org/cc/"
     xmlns:dc="http://purl.org/dc/elements/1.1/"
     xmlns:rdf="http://www.w3.org/1999/02/22-rdf-syntax-ns#">
      <Work rdf:about="">
        <dc:title>card</dc:title>
        <dc:description></dc:description>
        <dc:subject>
          <rdf:Bag>
            <rdf:li>white</rdf:li>
            <rdf:li>card</rdf:li>
          </rdf:Bag>
        </dc:subject>
        <dc:publisher>
           <Agent>
             <dc:title></dc:title>
           </Agent>
         </dc:publisher>
         <dc:creator>
           <Agent>
             <dc:title>Nicu Buculei</dc:title>
           </Agent>
        </dc:creator>
         <dc:rights>
           <Agent>
             <dc:title>Nicu Buculei</dc:title>
           </Agent>
        </dc:rights>
        <dc:date></dc:date>
        <dc:format>image/svg+xml</dc:format>
        <dc:type rdf:resource="http://purl.org/dc/dcmitype/StillImage" />
        <license rdf:resource="http://web.resource.org/cc/PublicDomain" />
        <dc:language>en</dc:language>
      </Work>

      <License rdf:about="http://web.resource.org/cc/PublicDomain">
         <permits rdf:resource="http://web.resource.org/cc/Reproduction" />
         <permits rdf:resource="http://web.resource.org/cc/Distribution" />
         <permits rdf:resource="http://web.resource.org/cc/DerivativeWorks" />
      </License>

    </rdf:RDF>
  </metadata>
</svg>
