<?xml version="1.0" encoding="UTF-8" standalone="no"?>
<!-- Created with Inkscape (http://www.inkscape.org/) -->
<svg
   xmlns:dc="http://purl.org/dc/elements/1.1/"
   xmlns:cc="http://web.resource.org/cc/"
   xmlns:rdf="http://www.w3.org/1999/02/22-rdf-syntax-ns#"
   xmlns:svg="http://www.w3.org/2000/svg"
   xmlns="http://www.w3.org/2000/svg"
   xmlns:xlink="http://www.w3.org/1999/xlink"
   xmlns:sodipodi="http://inkscape.sourceforge.net/DTD/sodipodi-0.dtd"
   xmlns:inkscape="http://www.inkscape.org/namespaces/inkscape"
   sodipodi:docbase="/home/nicu/Desktop/simple"
   sodipodi:docname="d_8.svg"
   inkscape:version="0.41"
   sodipodi:version="0.32"
   version="1.0"
   x="0.0000000"
   y="0.0000000"
   preserveAspectRatio="xMinYMin meet"
   viewBox="0 0 140 190"  
   width="140.00000"
   height="190.00000"
   id="svg2">
  
  <sodipodi:namedview
     inkscape:current-layer="svg2"
     inkscape:window-y="26"
     inkscape:window-x="0"
     inkscape:cy="95.000001"
     inkscape:cx="70.000003"
     inkscape:zoom="1.9105263"
     inkscape:window-height="791"
     inkscape:window-width="1152"
     inkscape:pageshadow="2"
     inkscape:pageopacity="0.0"
     borderopacity="1.0"
     bordercolor="#666666"
     pagecolor="#ffffff"
     id="base" />
  <defs
     id="defs3">
    <linearGradient
       id="linearGradient2060">
      <stop
         style="stop-color:#ebf0d0;stop-opacity:1.0000000;"
         offset="0.0000000"
         id="stop2062" />
      <stop
         style="stop-color:#ffffeb;stop-opacity:1.0000000;"
         offset="1.0000000"
         id="stop2064" />
    </linearGradient>
    <linearGradient
       x1="2.0000000"
       y1="63.099518"
       x2="109.00000"
       y2="128.69501"
       id="linearGradient4853"
       xlink:href="#linearGradient2060"
       gradientUnits="userSpaceOnUse"
       gradientTransform="translate(0.000000,-1.000000)" />
  </defs>
  <g
     id="layer1"
     inkscape:groupmode="layer"
     inkscape:label="Layer 1">
    <g
       id="g5630">
      <path
         id="rect1306"
         d="M 18.000000,1.9999995 L 121.00000,1.9999995 C 129.86400,1.9999995 137.00000,9.1359995 137.00000,18.000000 L 137.00000,171.00000 C 137.00000,179.86400 129.86400,187.00000 121.00000,187.00000 L 18.000000,187.00000 C 9.1360000,187.00000 2.0000000,179.86400 2.0000000,171.00000 L 2.0000000,18.000000 C 2.0000000,9.1359995 9.1360000,1.9999995 18.000000,1.9999995 z "
         style="fill:#ffffff;fill-opacity:1.0000000;stroke:black;stroke-width:0.70000000;stroke-miterlimit:4.0000000;stroke-dashoffset:0.0000000;stroke-opacity:1.0000000" />
    </g>
    <g
       inkscape:label="Layer 1"
       inkscape:groupmode="layer"
       id="g5495"
       transform="translate(-448.5000,-231.5000)" />
  </g>
  <g
     transform="translate(351.5000,184.5000)"
     id="g5581">
    <path
       d="M -363.90944,-141.56117 C -365.22494,-141.56116 -366.23592,-141.20183 -366.94238,-140.48320 C -367.64885,-139.76454 -368.00209,-138.73529 -368.00208,-137.39544 C -368.00209,-136.05558 -367.64885,-135.02633 -366.94238,-134.30769 C -366.23592,-133.60122 -365.22494,-133.24798 -363.90944,-133.24799 C -362.60614,-133.24798 -361.60734,-133.60122 -360.91304,-134.30769 C -360.21877,-135.02633 -359.87162,-136.05558 -359.87160,-137.39544 C -359.87162,-138.74747 -360.21877,-139.77672 -360.91304,-140.48320 C -361.60734,-141.20183 -362.60614,-141.56116 -363.90944,-141.56117 M -369.04351,-143.88155 C -370.70006,-144.38093 -371.94856,-145.14830 -372.78901,-146.18366 C -373.62946,-147.21898 -374.04969,-148.51011 -374.04969,-150.05706 C -374.04969,-152.35914 -373.19097,-154.11313 -371.47352,-155.31902 C -369.75607,-156.52486 -367.23472,-157.12780 -363.90944,-157.12783 C -360.60854,-157.12780 -358.09936,-156.52486 -356.38190,-155.31902 C -354.66447,-154.12531 -353.80575,-152.37132 -353.80572,-150.05706 C -353.80575,-148.51011 -354.23206,-147.21898 -355.08467,-146.18366 C -355.92515,-145.14830 -357.17365,-144.38093 -358.83017,-143.88155 C -356.97876,-143.36996 -355.58410,-142.53559 -354.64618,-141.37846 C -353.69612,-140.23348 -353.22108,-138.78401 -353.22106,-137.03003 C -353.22108,-134.32596 -354.12244,-132.27964 -355.92513,-130.89106 C -357.71568,-129.51467 -360.37711,-128.82647 -363.90944,-128.82647 C -367.45397,-128.82647 -370.13367,-129.51467 -371.94855,-130.89106 C -373.75127,-132.27964 -374.65262,-134.32596 -374.65262,-137.03003 C -374.65262,-138.78401 -374.18368,-140.23348 -373.24578,-141.37846 C -372.29570,-142.53559 -370.89495,-143.36996 -369.04351,-143.88155 M -367.39914,-149.34450 C -367.39915,-148.26041 -367.10073,-147.42605 -366.50388,-146.84141 C -365.89487,-146.25673 -365.03005,-145.96440 -363.90944,-145.96441 C -362.81321,-145.96440 -361.96666,-146.25673 -361.36980,-146.84141 C -360.77298,-147.42605 -360.47456,-148.26041 -360.47454,-149.34450 C -360.47456,-150.42854 -360.77298,-151.25681 -361.36980,-151.82932 C -361.96666,-152.41396 -362.81321,-152.70629 -363.90944,-152.70631 C -365.03005,-152.70629 -365.89487,-152.41396 -366.50388,-151.82932 C -367.10073,-151.24463 -367.39915,-150.41636 -367.39914,-149.34450"
       transform="scale(0.909282,1.099768)"
       style="font-size:37.418446;font-style:normal;font-variant:normal;font-weight:bold;font-stretch:normal;fill:#ff0000;fill-opacity:1.0000000;stroke:none;stroke-width:1.0000000px;stroke-linecap:butt;stroke-linejoin:miter;stroke-opacity:1.0000000;font-family:Bitstream Vera Sans;text-anchor:start;writing-mode:lr-tb"
       id="text1488" />
    <path
       d="M 256.76709,21.958894 C 255.45159,21.958906 254.44061,22.318230 253.73415,23.036866 C 253.02768,23.755525 252.67444,24.784775 252.67445,26.124619 C 252.67444,27.464479 253.02768,28.493729 253.73415,29.212372 C 254.44061,29.918844 255.45159,30.272078 256.76709,30.272074 C 258.07039,30.272078 259.06919,29.918844 259.76349,29.212372 C 260.45776,28.493729 260.80491,27.464479 260.80492,26.124619 C 260.80491,24.772595 260.45776,23.743345 259.76349,23.036866 C 259.06919,22.318230 258.07039,21.958906 256.76709,21.958894 M 251.63302,19.638512 C 249.97647,19.139127 248.72797,18.371757 247.88752,17.336400 C 247.04706,16.301077 246.62684,15.009947 246.62684,13.463006 C 246.62684,11.160918 247.48556,9.4069301 249.20301,8.2010375 C 250.92045,6.9951968 253.44181,6.3922634 256.76709,6.3922357 C 260.06799,6.3922634 262.57717,6.9951968 264.29463,8.2010375 C 266.01206,9.3947496 266.87078,11.148738 266.87080,13.463006 C 266.87078,15.009947 266.44447,16.301077 265.59185,17.336400 C 264.75138,18.371757 263.50288,19.139127 261.84636,19.638512 C 263.69777,20.150106 265.09243,20.984468 266.03035,22.141601 C 266.98041,23.286577 267.45544,24.736053 267.45547,26.490034 C 267.45544,29.194106 266.55409,31.240425 264.75140,32.628997 C 262.96085,34.005392 260.29942,34.693589 256.76709,34.693589 C 253.22256,34.693589 250.54286,34.005392 248.72797,32.628997 C 246.92526,31.240425 246.02390,29.194106 246.02391,26.490034 C 246.02390,24.736053 246.49285,23.286577 247.43075,22.141601 C 248.38083,20.984468 249.78158,20.150106 251.63302,19.638512 M 253.27739,14.175565 C 253.27738,15.259647 253.57580,16.094009 254.17265,16.678654 C 254.78166,17.263334 255.64648,17.555665 256.76709,17.555649 C 257.86332,17.555665 258.70987,17.263334 259.30672,16.678654 C 259.90355,16.094009 260.20197,15.259647 260.20199,14.175565 C 260.20197,13.091523 259.90355,12.263251 259.30672,11.690746 C 258.70987,11.106106 257.86332,10.813775 256.76709,10.813751 C 255.64648,10.813775 254.78166,11.106106 254.17265,11.690746 C 253.57580,12.275431 253.27738,13.103703 253.27739,14.175565"
       transform="scale(-0.909282,-1.099768)"
       style="font-size:37.418446;font-style:normal;font-variant:normal;font-weight:bold;font-stretch:normal;fill:#ff0000;fill-opacity:1.0000000;stroke:none;stroke-width:1.0000000px;stroke-linecap:butt;stroke-linejoin:miter;stroke-opacity:1.0000000;font-family:Bitstream Vera Sans;text-anchor:start;writing-mode:lr-tb"
       id="text3444" />
  </g>
  <path
     d="M 20.409550,48.665000 C 16.283710,56.910480 13.275310,61.163050 7.0700000,65.704560 C 12.942390,70.191570 17.082700,74.829030 20.530180,82.325000 C 23.609430,75.203780 27.376590,69.895050 33.920000,65.481900 C 27.338020,62.132990 23.527370,56.828250 20.409550,48.665000 z "
     style="fill:#ff0000;fill-opacity:1.0000000;fill-rule:evenodd;stroke:none;stroke-width:1.0000000pt;stroke-linecap:butt;stroke-linejoin:round;stroke-opacity:1.0000000"
     id="path1608" />
  <path
     d="M 49.130230,36.220000 C 46.726940,41.065383 44.974560,43.564367 41.360000,46.233150 C 44.780640,48.869900 47.192350,51.595060 49.200490,56.000000 C 50.994140,51.815280 53.188490,48.695650 57.000000,46.102300 C 53.166030,44.134340 50.946340,41.017061 49.130230,36.220000 z "
     style="fill:#ff0000;fill-opacity:1.0000000;fill-rule:evenodd;stroke:none;stroke-width:1.0000000pt;stroke-linecap:butt;stroke-linejoin:round;stroke-opacity:1.0000000"
     id="path1498" />
  <path
     d="M 90.130230,36.220000 C 87.726950,41.065383 85.974570,43.564367 82.360000,46.233150 C 85.780650,48.869900 88.192360,51.595060 90.200500,56.000000 C 91.994150,51.815280 94.188500,48.695650 98.000000,46.102300 C 94.166030,44.134340 91.946350,41.017061 90.130230,36.220000 z "
     style="fill:#ff0000;fill-opacity:1.0000000;fill-rule:evenodd;stroke:none;stroke-width:1.0000000pt;stroke-linecap:butt;stroke-linejoin:round;stroke-opacity:1.0000000"
     id="path1500" />
  <path
     d="M 48.770230,71.220000 C 46.366940,76.065390 44.614560,78.564370 41.000000,81.233150 C 44.420640,83.869900 46.832350,86.595060 48.840490,91.000000 C 50.634140,86.815280 52.828490,83.695650 56.640000,81.102300 C 52.806030,79.134340 50.586340,76.017070 48.770230,71.220000 z "
     style="fill:#ff0000;fill-opacity:1.0000000;fill-rule:evenodd;stroke:none;stroke-width:1.0000000pt;stroke-linecap:butt;stroke-linejoin:round;stroke-opacity:1.0000000"
     id="path1504" />
  <path
     d="M 88.130230,70.219999 C 85.726940,75.065380 83.974560,77.564370 80.360000,80.233150 C 83.780640,82.869900 86.192350,85.595060 88.200490,90.000000 C 89.994140,85.815280 92.188490,82.695650 96.000000,80.102300 C 92.166030,78.134340 89.946340,75.017060 88.130230,70.219999 z "
     style="fill:#ff0000;fill-opacity:1.0000000;fill-rule:evenodd;stroke:none;stroke-width:1.0000000pt;stroke-linecap:butt;stroke-linejoin:round;stroke-opacity:1.0000000"
     id="path1506" />
  <path
     d="M 89.770220,100.00000 C 87.366940,104.84539 85.614560,107.34437 82.000000,110.01315 C 85.420640,112.64990 87.832350,115.37506 89.840490,119.78000 C 91.634140,115.59528 93.828490,112.47565 97.640000,109.88230 C 93.806020,107.91434 91.586340,104.79707 89.770220,100.00000 z "
     style="fill:#ff0000;fill-opacity:1.0000000;fill-rule:evenodd;stroke:none;stroke-width:1.0000000pt;stroke-linecap:butt;stroke-linejoin:round;stroke-opacity:1.0000000"
     id="path1508" />
  <path
     d="M 48.130230,100.00000 C 45.726940,104.84538 43.974570,107.34436 40.360000,110.01315 C 43.780640,112.64990 46.192360,115.37506 48.200500,119.78000 C 49.994150,115.59528 52.188500,112.47565 56.000000,109.88230 C 52.166030,107.91434 49.946350,104.79706 48.130230,100.00000 z "
     style="fill:#ff0000;fill-opacity:1.0000000;fill-rule:evenodd;stroke:none;stroke-width:1.0000000pt;stroke-linecap:butt;stroke-linejoin:round;stroke-opacity:1.0000000"
     id="path1510" />
  <path
     d="M 49.130230,130.00000 C 46.726940,134.84538 44.974560,137.34437 41.360000,140.01315 C 44.780640,142.64990 47.192350,145.37506 49.200490,149.78000 C 50.994140,145.59528 53.188490,142.47565 57.000000,139.88230 C 53.166030,137.91434 50.946340,134.79706 49.130230,130.00000 z "
     style="fill:#ff0000;fill-opacity:1.0000000;fill-rule:evenodd;stroke:none;stroke-width:1.0000000pt;stroke-linecap:butt;stroke-linejoin:round;stroke-opacity:1.0000000"
     id="path1512" />
  <path
     d="M 90.130230,130.22000 C 87.726950,135.06539 85.974570,137.56437 82.360000,140.23315 C 85.780650,142.86990 88.192360,145.59506 90.200500,150.00000 C 91.994150,145.81528 94.188500,142.69565 98.000000,140.10230 C 94.166030,138.13434 91.946350,135.01707 90.130230,130.22000 z "
     style="fill:#ff0000;fill-opacity:1.0000000;fill-rule:evenodd;stroke:none;stroke-width:1.0000000pt;stroke-linecap:butt;stroke-linejoin:round;stroke-opacity:1.0000000"
     id="path1516" />
  <path
     d="M 118.33956,106.34000 C 114.21371,114.58548 111.20531,118.83805 105.00000,123.37956 C 110.87239,127.86657 115.01271,132.50403 118.46019,140.00000 C 121.53944,132.87878 125.30659,127.57005 131.85000,123.15690 C 125.26803,119.80799 121.45738,114.50325 118.33956,106.34000 z "
     style="fill:#ff0000;fill-opacity:1.0000000;fill-rule:evenodd;stroke:none;stroke-width:1.0000000pt;stroke-linecap:butt;stroke-linejoin:round;stroke-opacity:1.0000000"
     id="path1518" />

  

  <metadata>
    <rdf:RDF 
     xmlns="http://web.resource.org/cc/"
     xmlns:dc="http://purl.org/dc/elements/1.1/"
     xmlns:rdf="http://www.w3.org/1999/02/22-rdf-syntax-ns#">
      <Work rdf:about="">
        <dc:title>card</dc:title>
        <dc:description></dc:description>
        <dc:subject>
          <rdf:Bag>
            <rdf:li>white</rdf:li>
            <rdf:li>card</rdf:li>
          </rdf:Bag>
        </dc:subject>
        <dc:publisher>
           <Agent>
             <dc:title></dc:title>
           </Agent>
         </dc:publisher>
         <dc:creator>
           <Agent>
             <dc:title>Nicu Buculei</dc:title>
           </Agent>
        </dc:creator>
         <dc:rights>
           <Agent>
             <dc:title>Nicu Buculei</dc:title>
           </Agent>
        </dc:rights>
        <dc:date></dc:date>
        <dc:format>image/svg+xml</dc:format>
        <dc:type rdf:resource="http://purl.org/dc/dcmitype/StillImage" />
        <license rdf:resource="http://web.resource.org/cc/PublicDomain" />
        <dc:language>en</dc:language>
      </Work>

      <License rdf:about="http://web.resource.org/cc/PublicDomain">
         <permits rdf:resource="http://web.resource.org/cc/Reproduction" />
         <permits rdf:resource="http://web.resource.org/cc/Distribution" />
         <permits rdf:resource="http://web.resource.org/cc/DerivativeWorks" />
      </License>

    </rdf:RDF>
  </metadata>
</svg>
