<?xml version="1.0" encoding="UTF-8" standalone="no"?>
<!-- Created with Inkscape (http://www.inkscape.org/) -->
<svg
   xmlns:dc="http://purl.org/dc/elements/1.1/"
   xmlns:cc="http://web.resource.org/cc/"
   xmlns:rdf="http://www.w3.org/1999/02/22-rdf-syntax-ns#"
   xmlns:svg="http://www.w3.org/2000/svg"
   xmlns="http://www.w3.org/2000/svg"
   xmlns:xlink="http://www.w3.org/1999/xlink"
   xmlns:sodipodi="http://inkscape.sourceforge.net/DTD/sodipodi-0.dtd"
   xmlns:inkscape="http://www.inkscape.org/namespaces/inkscape"
   id="svg2"
   height="190.00000"
   preserveAspectRatio="xMinYMin meet"
   viewBox="0 0 140 190"
   y="0.0000000"
   x="0.0000000"
   version="1.0"
   sodipodi:version="0.32"
   inkscape:version="0.41+cvs"
   sodipodi:docname="white_h_j.svg"
   sodipodi:docbase="/home/nicu/Desktop/card_nicu_buculei_01.zip_FILES/cards/white">
  <sodipodi:namedview
     id="base"
     pagecolor="#ffffff"
     bordercolor="#666666"
     borderopacity="1.0"
     inkscape:pageopacity="0.0"
     inkscape:pageshadow="2"
     inkscape:window-width="1152"
     inkscape:window-height="791"
     inkscape:zoom="1.0000000"
     inkscape:cx="70.000000"
     inkscape:cy="95.000000"
     inkscape:window-x="0"
     inkscape:window-y="26"
     inkscape:current-layer="svg2" />
  <defs
     id="defs3">
    <linearGradient
       id="linearGradient2060">
      <stop
         id="stop2062"
         offset="0.0000000"
         style="stop-color:#ebf0d0;stop-opacity:1.0000000;" />
      <stop
         id="stop2064"
         offset="1.0000000"
         style="stop-color:#ffffeb;stop-opacity:1.0000000;" />
    </linearGradient>
    <linearGradient
       gradientTransform="translate(0.000000,-1.000000)"
       gradientUnits="userSpaceOnUse"
       xlink:href="#linearGradient2060"
       id="linearGradient4853"
       y2="128.69501"
       x2="109.00000"
       y1="63.099518"
       x1="2.0000000" />
    <linearGradient
       id="linearGradient6214">
      <stop
         id="stop6216"
         offset="0.0000000"
         style="stop-color:#c10000;stop-opacity:1.0000000;" />
      <stop
         id="stop6218"
         offset="1.0000000"
         style="stop-color:#ff433e;stop-opacity:1.0000000;" />
    </linearGradient>
    <linearGradient
       id="linearGradient5417">
      <stop
         style="stop-color:#f0a700;stop-opacity:1.0000000;"
         offset="0.0000000"
         id="stop5419" />
      <stop
         style="stop-color:#ffed00;stop-opacity:1.0000000;"
         offset="1.0000000"
         id="stop5421" />
    </linearGradient>
    <linearGradient
       id="linearGradient5407">
      <stop
         id="stop5409"
         offset="0.0000000"
         style="stop-color:#f0eb00;stop-opacity:1.0000000;" />
      <stop
         id="stop5411"
         offset="1.0000000"
         style="stop-color:#ffff00;stop-opacity:1.0000000;" />
    </linearGradient>
    <linearGradient
       id="linearGradient3865">
      <stop
         id="stop3867"
         offset="0"
         style="stop-color:#0083cc;stop-opacity:1;" />
      <stop
         id="stop3869"
         offset="1.0000000"
         style="stop-color:#24a4cc;stop-opacity:1.0000000;" />
    </linearGradient>
    <linearGradient
       id="linearGradient3857">
      <stop
         id="stop3859"
         offset="0.0000000"
         style="stop-color:#ffd8c1;stop-opacity:1.0000000;" />
      <stop
         id="stop3861"
         offset="1.0000000"
         style="stop-color:#ffeded;stop-opacity:1.0000000;" />
    </linearGradient>
    <linearGradient
       id="linearGradient2580"
       inkscape:collect="always">
      <stop
         id="stop2582"
         offset="0"
         style="stop-color:#ffffff;stop-opacity:1;" />
      <stop
         id="stop2584"
         offset="1"
         style="stop-color:#ffffff;stop-opacity:0;" />
    </linearGradient>
    <linearGradient
       id="linearGradient3196">
      <stop
         id="stop3198"
         offset="0.0000000"
         style="stop-color:#008200;stop-opacity:1.0000000;" />
      <stop
         id="stop3200"
         offset="1.0000000"
         style="stop-color:#00d000;stop-opacity:1.0000000;" />
    </linearGradient>
    <linearGradient
       id="linearGradient4408">
      <stop
         id="stop4410"
         offset="0.0000000"
         style="stop-color:#ff44ab;stop-opacity:1.0000000;" />
      <stop
         id="stop4412"
         offset="1.0000000"
         style="stop-color:#ff66cc;stop-opacity:1.0000000;" />
    </linearGradient>
    <linearGradient
       inkscape:collect="always"
       xlink:href="#linearGradient3857"
       id="linearGradient21030"
       gradientUnits="userSpaceOnUse"
       gradientTransform="matrix(0.186825,0.000000,0.000000,0.144857,71.30080,210.4751)"
       x1="356.44232"
       y1="437.49887"
       x2="484.79608"
       y2="256.17966" />
    <linearGradient
       inkscape:collect="always"
       xlink:href="#linearGradient3196"
       id="linearGradient21032"
       gradientUnits="userSpaceOnUse"
       gradientTransform="matrix(0.144857,0.000000,0.000000,0.144857,96.21453,222.4552)"
       x1="298.98572"
       y1="540.53918"
       x2="449.32318"
       y2="415.53949" />
    <linearGradient
       inkscape:collect="always"
       xlink:href="#linearGradient6214"
       id="linearGradient21034"
       gradientUnits="userSpaceOnUse"
       gradientTransform="matrix(0.144857,0.000000,0.000000,0.144857,94.09370,223.8084)"
       x1="294.24606"
       y1="346.32654"
       x2="312.09238"
       y2="322.13895" />
    <linearGradient
       inkscape:collect="always"
       xlink:href="#linearGradient5407"
       id="linearGradient21036"
       gradientUnits="userSpaceOnUse"
       gradientTransform="translate(40.64643,174.7196)"
       x1="101.39262"
       y1="124.16081"
       x2="105.54549"
       y2="120.97331" />
    <linearGradient
       inkscape:collect="always"
       xlink:href="#linearGradient3865"
       id="linearGradient21038"
       gradientUnits="userSpaceOnUse"
       x1="137.87840"
       y1="284.84189"
       x2="144.19260"
       y2="281.22861" />
    <linearGradient
       inkscape:collect="always"
       xlink:href="#linearGradient5407"
       id="linearGradient21040"
       gradientUnits="userSpaceOnUse"
       gradientTransform="translate(37.11893,174.8446)"
       x1="103.56250"
       y1="65.108551"
       x2="111.88306"
       y2="62.671051" />
    <linearGradient
       inkscape:collect="always"
       xlink:href="#linearGradient3196"
       id="linearGradient21042"
       gradientUnits="userSpaceOnUse"
       gradientTransform="translate(40.64643,174.7196)"
       x1="93.499947"
       y1="62.938114"
       x2="117.13919"
       y2="57.702003" />
    <linearGradient
       inkscape:collect="always"
       xlink:href="#linearGradient5407"
       id="linearGradient21044"
       gradientUnits="userSpaceOnUse"
       x1="104.75000"
       y1="57.468750"
       x2="109.50000"
       y2="55.781250" />
    <linearGradient
       inkscape:collect="always"
       xlink:href="#linearGradient2580"
       id="linearGradient21046"
       gradientUnits="userSpaceOnUse"
       gradientTransform="matrix(0.186852,0.000000,0.000000,0.144857,71.29650,210.4867)"
       x1="652.29529"
       y1="77.394516"
       x2="410.90594"
       y2="344.41714" />
    <linearGradient
       y2="344.41714"
       x2="410.90594"
       y1="77.394516"
       x1="652.29529"
       gradientTransform="matrix(0.186852,0.000000,0.000000,0.144857,-5.338390,38.23670)"
       gradientUnits="userSpaceOnUse"
       id="linearGradient1402"
       xlink:href="#linearGradient2580"
       inkscape:collect="always" />
    <linearGradient
       y2="57.702003"
       x2="117.13919"
       y1="62.938114"
       x1="93.499947"
       gradientTransform="matrix(0.999998,0.000000,0.000000,1.000000,-35.99083,2.469600)"
       gradientUnits="userSpaceOnUse"
       id="linearGradient1406"
       xlink:href="#linearGradient3196"
       inkscape:collect="always" />
    <linearGradient
       y2="62.671051"
       x2="111.88306"
       y1="65.108551"
       x1="103.56250"
       gradientTransform="matrix(0.999998,0.000000,0.000000,1.000000,-39.51832,2.594600)"
       gradientUnits="userSpaceOnUse"
       id="linearGradient1409"
       xlink:href="#linearGradient5407"
       inkscape:collect="always" />
    <linearGradient
       gradientTransform="matrix(0.999998,0.000000,0.000000,1.000000,-76.63718,-172.2500)"
       y2="281.22861"
       x2="144.19260"
       y1="284.84189"
       x1="137.87840"
       gradientUnits="userSpaceOnUse"
       id="linearGradient1412"
       xlink:href="#linearGradient3865"
       inkscape:collect="always" />
    <linearGradient
       y2="120.97331"
       x2="105.54549"
       y1="124.16081"
       x1="101.39262"
       gradientTransform="matrix(0.999998,0.000000,0.000000,1.000000,-35.99083,2.469600)"
       gradientUnits="userSpaceOnUse"
       id="linearGradient1415"
       xlink:href="#linearGradient5407"
       inkscape:collect="always" />
    <linearGradient
       y2="322.13895"
       x2="312.09238"
       y1="346.32654"
       x1="294.24606"
       gradientTransform="matrix(0.144857,0.000000,0.000000,0.144857,17.45633,51.55840)"
       gradientUnits="userSpaceOnUse"
       id="linearGradient1422"
       xlink:href="#linearGradient6214"
       inkscape:collect="always" />
    <linearGradient
       y2="415.53949"
       x2="449.32318"
       y1="540.53918"
       x1="298.98572"
       gradientTransform="matrix(0.144857,0.000000,0.000000,0.144857,19.57716,50.20520)"
       gradientUnits="userSpaceOnUse"
       id="linearGradient1434"
       xlink:href="#linearGradient3196"
       inkscape:collect="always" />
    <linearGradient
       y2="256.17966"
       x2="484.79608"
       y1="437.49887"
       x1="356.44232"
       gradientTransform="matrix(0.186825,0.000000,0.000000,0.144857,-5.336523,38.22510)"
       gradientUnits="userSpaceOnUse"
       id="linearGradient1437"
       xlink:href="#linearGradient3857"
       inkscape:collect="always" />
  </defs>
  <g
     inkscape:label="Layer 1"
     inkscape:groupmode="layer"
     id="layer1">
    <g
       id="g5630">
      <path
         style="fill:#ffffff;fill-opacity:1.0000000;stroke:black;stroke-width:0.70000000;stroke-miterlimit:4.0000000;stroke-dashoffset:0.0000000;stroke-opacity:1.0000000"
         d="M 18.000000,1.9999995 L 121.00000,1.9999995 C 129.86400,1.9999995 137.00000,9.1359995 137.00000,18.000000 L 137.00000,171.00000 C 137.00000,179.86400 129.86400,187.00000 121.00000,187.00000 L 18.000000,187.00000 C 9.1360000,187.00000 2.0000000,179.86400 2.0000000,171.00000 L 2.0000000,18.000000 C 2.0000000,9.1359995 9.1360000,1.9999995 18.000000,1.9999995 z "
         id="rect1306" />
    </g>
    <g
       transform="translate(-448.5000,-231.5000)"
       id="g5495"
       inkscape:groupmode="layer"
       inkscape:label="Layer 1" />
  </g>
  <path
     id="text1386"
     style="font-size:33.227501;font-style:normal;font-variant:normal;font-weight:bold;font-stretch:normal;fill:#ff0000;fill-opacity:1.0000000;stroke:none;stroke-width:1.0000000px;stroke-linecap:butt;stroke-linejoin:miter;stroke-opacity:1.0000000;font-family:Bitstream Vera Sans;text-anchor:start;writing-mode:lr-tb"
     d="M 18.923683,11.993603 L 25.319708,11.993603 L 25.319708,33.352345 C 25.319699,36.299470 24.477972,38.501891 22.794525,39.959611 C 21.122139,41.417324 18.585881,42.146182 15.185746,42.146189 L 13.889929,42.146189 L 13.889929,37.535362 L 14.886712,37.535362 C 16.215755,37.535360 17.218075,37.181494 17.893674,36.473764 C 18.580344,35.766030 18.923680,34.725558 18.923683,33.352345 L 18.923683,11.993603" />
  <g
     id="g1390"
     style="fill:#ff0000;fill-opacity:1.0000000"
     transform="matrix(0.286388,0.000000,0.000000,0.388772,-29.60833,-9.472414)">
    <path
       id="path1392"
       style="fill-rule:evenodd;stroke:none;stroke-width:3.4289415;stroke-linecap:butt;stroke-linejoin:round;stroke-miterlimit:4.0000000;stroke-opacity:1.0000000"
       transform="matrix(1.105375,0.000000,0.000000,1.079637,-12.01415,-18.86731)"
       d="M 147.20601,156.41679 C 144.67035,156.42954 141.88421,156.89888 138.79976,157.94804 C 105.17650,177.48492 150.50459,208.98936 169.64351,236.04179 L 170.19602,236.18010 C 191.22900,206.61098 231.26801,174.07246 200.67476,157.94804 C 176.43799,149.70401 169.96344,177.14611 169.73726,178.13554 C 169.53987,177.27202 164.59485,156.32936 147.20601,156.41679 z " />
  </g>
  <path
     id="text15764"
     style="font-size:33.227501;font-style:normal;font-variant:normal;font-weight:bold;font-stretch:normal;fill:#ff0000;fill-opacity:1.0000000;stroke:none;stroke-width:1.0000000px;stroke-linecap:butt;stroke-linejoin:miter;stroke-opacity:1.0000000;font-family:Bitstream Vera Sans;text-anchor:start;writing-mode:lr-tb"
     d="M 119.94179,177.00634 L 113.54576,177.00634 L 113.54576,155.64761 C 113.54577,152.70047 114.38750,150.49806 116.07094,149.04033 C 117.74333,147.58262 120.27959,146.85377 123.67972,146.85376 L 124.97554,146.85376 L 124.97554,151.46458 L 123.97876,151.46458 C 122.64971,151.46458 121.64740,151.81845 120.97180,152.52619 C 120.28513,153.23391 119.94180,154.27439 119.94179,155.64761 L 119.94179,177.00634" />
  <g
     id="g15768"
     style="fill:#ff0000;fill-opacity:1.0000000"
     transform="matrix(-0.286429,0.000000,0.000000,-0.388772,168.4791,198.3135)">
    <path
       id="path15770"
       style="fill-rule:evenodd;stroke:none;stroke-width:3.4289415;stroke-linecap:butt;stroke-linejoin:round;stroke-miterlimit:4.0000000;stroke-opacity:1.0000000"
       transform="matrix(1.105375,0.000000,0.000000,1.079637,-12.01415,-18.86731)"
       d="M 147.20601,156.41679 C 144.67035,156.42954 141.88421,156.89888 138.79976,157.94804 C 105.17650,177.48492 150.50459,208.98936 169.64351,236.04179 L 170.19602,236.18010 C 191.22900,206.61098 231.26801,174.07246 200.67476,157.94804 C 176.43799,149.70401 169.96344,177.14611 169.73726,178.13554 C 169.53987,177.27202 164.59485,156.32936 147.20601,156.41679 z " />
  </g>
  <g
     id="g1440">
    <path
       sodipodi:nodetypes="cccccccccccccccccc"
       id="path1853"
       d="M 67.891601,54.313350 C 61.919643,58.087230 54.422178,51.148110 50.438966,59.192640 C 46.943543,63.974950 57.968681,65.366450 51.008595,69.616550 C 46.252384,74.740930 46.531794,76.996930 50.639415,77.624250 C 49.457098,83.287940 50.319026,92.795050 52.913501,97.979670 C 49.702007,101.88287 52.109083,100.54205 56.466254,101.35580 C 55.112417,103.51032 55.889785,111.40541 51.258994,113.84460 C 48.927759,120.86613 50.675525,128.48682 50.133996,135.75085 C 61.408914,140.49909 74.758987,141.03840 85.536846,138.50555 C 90.275266,137.51513 95.682155,137.13709 94.727657,130.37585 C 95.011267,121.94957 96.010285,110.85777 86.817633,106.54553 C 81.444494,105.79284 79.653307,102.15784 83.777339,96.996100 C 86.840203,88.638000 90.217126,92.134960 94.920777,90.021190 C 99.821867,88.710020 87.919391,85.481570 89.491208,80.043910 C 87.968531,75.790050 86.107525,70.786170 83.061361,67.332790 C 90.740285,66.643170 91.563294,58.635390 85.321426,57.000850 C 79.134878,52.878540 75.484326,59.914610 70.776615,54.626240 C 69.997277,54.612940 68.674439,54.122390 67.891601,54.313350 z "
       style="fill:#000000;fill-opacity:1.0000000;stroke:none;stroke-width:2.0000000;stroke-miterlimit:4.0000000;stroke-dashoffset:0.0000000;stroke-opacity:1.0000000" />
    <path
       id="path1857"
       d="M 85.235326,85.572650 C 85.235326,96.985980 77.671471,106.24898 68.351720,106.24898 C 59.031969,106.24898 51.468124,96.985980 51.468124,85.572650 C 51.468124,74.159320 59.031969,64.896320 68.351720,64.896320 C 77.671471,64.896320 85.235326,74.159320 85.235326,85.572650 z "
       style="fill:url(#linearGradient1437);fill-opacity:1.0000000;stroke:none;stroke-width:2.0000000;stroke-miterlimit:4.0000000;stroke-dashoffset:0.0000000;stroke-opacity:1.0000000" />
    <path
       sodipodi:nodetypes="ccccccc"
       id="path1859"
       d="M 64.844957,106.72675 C 57.795911,106.72675 52.120162,112.40251 52.120162,119.45156 L 52.120162,134.38092 C 61.500034,139.03005 81.646283,139.27474 92.738991,134.38092 L 92.738991,119.45156 C 92.738991,112.40251 87.063243,106.72675 80.014197,106.72675 L 64.844957,106.72675 z "
       style="fill:url(#linearGradient1434);fill-opacity:1.0000000;stroke:none;stroke-width:2.0000000;stroke-miterlimit:4.0000000;stroke-dashoffset:0.0000000;stroke-opacity:1.0000000" />
    <path
       sodipodi:nodetypes="cccccc"
       id="path1861"
       d="M 49.637757,75.941420 C 52.164962,71.412860 54.692167,62.760840 68.765049,62.850560 C 90.605096,63.490450 85.395276,86.232110 93.215580,88.686320 C 88.362710,90.263630 85.916915,91.614790 78.674899,89.116490 C 79.466568,83.417500 78.175440,79.237650 74.749777,76.301360 C 70.480896,78.540230 54.010789,77.475970 49.637757,75.941420 z "
       style="fill:#8d0000;fill-opacity:1.0000000;fill-rule:evenodd;stroke:none;stroke-width:1.5371202px;stroke-linecap:butt;stroke-linejoin:miter;stroke-opacity:1.0000000" />
    <g
       transform="matrix(0.144857,0.000000,0.000000,9.790296e-2,17.25792,62.28850)"
       id="g1863">
      <path
         id="path1865"
         d="M 353.00000,245.86218 C 353.00000,257.73018 343.59200,267.36218 332.00000,267.36218 C 320.40800,267.36218 311.00000,257.73018 311.00000,245.86218 C 311.00000,233.99418 320.40800,224.36218 332.00000,224.36218 C 343.59200,224.36218 353.00000,233.99418 353.00000,245.86218 z "
         style="fill:#ffffff;fill-opacity:1.0000000;stroke:none;stroke-width:2.0000000;stroke-miterlimit:4.0000000;stroke-dashoffset:0.0000000;stroke-opacity:1.0000000"
         transform="translate(-4.000000,-6.000000)" />
      <path
         id="path1867"
         d="M 353.00000,245.86218 C 353.00000,257.73018 343.59200,267.36218 332.00000,267.36218 C 320.40800,267.36218 311.00000,257.73018 311.00000,245.86218 C 311.00000,233.99418 320.40800,224.36218 332.00000,224.36218 C 343.59200,224.36218 353.00000,233.99418 353.00000,245.86218 z "
         style="fill:#04cd04;fill-opacity:1.0000000;stroke:none;stroke-width:2.0000000;stroke-miterlimit:4.0000000;stroke-dashoffset:0.0000000;stroke-opacity:1.0000000"
         transform="matrix(0.571429,0.000000,0.000000,0.837210,129.2857,34.52408)" />
      <path
         id="path1869"
         d="M 353.00000,245.86218 C 353.00000,257.73018 343.59200,267.36218 332.00000,267.36218 C 320.40800,267.36218 311.00000,257.73018 311.00000,245.86218 C 311.00000,233.99418 320.40800,224.36218 332.00000,224.36218 C 343.59200,224.36218 353.00000,233.99418 353.00000,245.86218 z "
         style="fill:#000000;fill-opacity:1.0000000;stroke:none;stroke-width:2.0000000;stroke-miterlimit:4.0000000;stroke-dashoffset:0.0000000;stroke-opacity:1.0000000"
         transform="matrix(0.357143,0.000000,0.000000,0.674419,195.9286,76.04816)" />
    </g>
    <g
       transform="matrix(0.144857,0.000000,0.000000,9.790296e-2,7.169442,61.94760)"
       id="g1871">
      <path
         id="path1873"
         d="M 353.00000,245.86218 C 353.00000,257.73018 343.59200,267.36218 332.00000,267.36218 C 320.40800,267.36218 311.00000,257.73018 311.00000,245.86218 C 311.00000,233.99418 320.40800,224.36218 332.00000,224.36218 C 343.59200,224.36218 353.00000,233.99418 353.00000,245.86218 z "
         style="fill:#ffffff;fill-opacity:1.0000000;stroke:none;stroke-width:2.0000000;stroke-miterlimit:4.0000000;stroke-dashoffset:0.0000000;stroke-opacity:1.0000000"
         transform="translate(-4.000000,-6.000000)" />
      <path
         id="path1875"
         d="M 353.00000,245.86218 C 353.00000,257.73018 343.59200,267.36218 332.00000,267.36218 C 320.40800,267.36218 311.00000,257.73018 311.00000,245.86218 C 311.00000,233.99418 320.40800,224.36218 332.00000,224.36218 C 343.59200,224.36218 353.00000,233.99418 353.00000,245.86218 z "
         style="fill:#0ecf0e;fill-opacity:1.0000000;stroke:none;stroke-width:2.0000000;stroke-miterlimit:4.0000000;stroke-dashoffset:0.0000000;stroke-opacity:1.0000000"
         transform="matrix(0.571429,0.000000,0.000000,0.837210,129.2857,34.52408)" />
      <path
         id="path1877"
         d="M 353.00000,245.86218 C 353.00000,257.73018 343.59200,267.36218 332.00000,267.36218 C 320.40800,267.36218 311.00000,257.73018 311.00000,245.86218 C 311.00000,233.99418 320.40800,224.36218 332.00000,224.36218 C 343.59200,224.36218 353.00000,233.99418 353.00000,245.86218 z "
         style="fill:#000000;fill-opacity:1.0000000;stroke:none;stroke-width:2.0000000;stroke-miterlimit:4.0000000;stroke-dashoffset:0.0000000;stroke-opacity:1.0000000"
         transform="matrix(0.357143,0.000000,0.000000,0.674419,195.9286,76.04816)" />
    </g>
    <path
       sodipodi:nodetypes="ccc"
       id="path1879"
       d="M 56.801203,98.954840 C 58.649699,102.57701 63.701509,100.89805 68.529010,98.954840 C 63.205160,99.514500 59.536418,99.924060 56.801203,98.954840 z "
       style="fill:url(#linearGradient1422);fill-opacity:1.0000000;fill-rule:evenodd;stroke:none;stroke-width:1.0000000px;stroke-linecap:butt;stroke-linejoin:miter;stroke-opacity:1.0000000" />
    <path
       sodipodi:nodetypes="ccccc"
       id="path1881"
       d="M 78.942469,122.60586 L 80.206056,122.72912 L 81.577414,137.24188 L 78.112231,137.70766 L 78.942469,122.60586 z "
       style="fill:#005a00;fill-opacity:1.0000000;stroke:none;stroke-width:2.0000000;stroke-miterlimit:4.0000000;stroke-dashoffset:0.0000000;stroke-opacity:1.0000000" />
    <path
       style="fill:#000000;fill-opacity:1.0000000;fill-rule:evenodd;stroke:none;stroke-width:1.0000000px;stroke-linecap:butt;stroke-linejoin:miter;stroke-opacity:1.0000000"
       d="M 58.998639,86.896750 C 58.206740,88.183580 57.053743,90.299160 57.218002,91.271600 C 57.382272,92.244040 58.870379,92.034080 59.660337,92.594690 L 59.991187,92.116800 C 59.296498,91.623780 58.208260,92.108780 58.073201,91.309230 C 57.938151,90.509670 58.754279,88.394360 59.494908,87.190830 L 58.998639,86.896750 z "
       id="path1883"
       sodipodi:nodetypes="ccccccc" />
    <path
       style="stroke-opacity:1.0000000;stroke-linejoin:miter;stroke-linecap:butt;stroke-width:1.0000000px;stroke:none;fill-rule:evenodd;fill-opacity:1.0000000;fill:#8d0000"
       d="M 60.292896,94.549730 C 56.489354,94.927520 54.159488,97.850770 52.231542,99.970190 C 52.231542,99.970190 58.469030,96.513900 60.433196,96.584050 C 60.292896,96.093010 60.503346,95.461670 60.292896,94.549730 z "
       id="path1885"
       sodipodi:nodetypes="cccc" />
    <path
       style="stroke-opacity:1.0000000;stroke-linejoin:miter;stroke-linecap:butt;stroke-width:1.0000000px;stroke:none;fill-rule:evenodd;fill-opacity:1.0000000;fill:#8d0000"
       d="M 61.161294,94.405360 C 64.543238,94.751480 71.006525,97.375110 71.307124,99.864780 C 71.307124,99.864780 63.421570,95.646930 61.568344,96.301500 C 61.555314,95.790980 61.233324,95.338490 61.161294,94.405360 z "
       id="path1887"
       sodipodi:nodetypes="cccc" />
    <path
       sodipodi:nodetypes="ccccc"
       id="path1889"
       d="M 58.633009,108.39924 C 62.266282,119.62231 67.337062,129.34538 73.095331,137.94345 L 76.780973,137.83146 C 71.043245,128.62348 65.055517,118.22801 61.630283,107.02004 C 61.630283,107.02004 59.594198,107.64413 58.633009,108.39924 z "
       style="fill:url(#linearGradient1415);fill-opacity:1.0000000;fill-rule:evenodd;stroke:none;stroke-width:1.0000000px;stroke-linecap:butt;stroke-linejoin:miter;stroke-opacity:1.0000000" />
    <path
       sodipodi:nodetypes="ccccccccccccc"
       id="path1891"
       d="M 56.051035,104.88096 L 55.801035,115.13096 L 65.113516,109.44346 L 65.113516,110.88096 L 68.801009,111.19346 L 68.738509,109.25596 L 80.863485,114.69346 L 79.613487,102.63096 L 68.926009,108.06846 L 68.676009,106.25596 L 64.926017,106.00596 L 64.926017,107.94346 L 56.051035,104.88096 z "
       style="fill:url(#linearGradient1412);fill-opacity:1.0000000;fill-rule:evenodd;stroke:none;stroke-width:1.0000000px;stroke-linecap:butt;stroke-linejoin:miter;stroke-opacity:1.0000000" />
    <path
       style="fill:url(#linearGradient1409);fill-opacity:1.0000000;fill-rule:evenodd;stroke:none;stroke-width:1.0000000px;stroke-linecap:butt;stroke-linejoin:miter;stroke-opacity:1.0000000"
       d="M 55.856485,64.782100 L 55.319306,67.381780 C 62.985961,69.610940 73.226950,69.259020 82.081103,68.300690 C 82.062523,67.941720 81.731433,65.782100 81.731433,65.782100 C 73.210620,66.657100 62.314802,66.594600 55.856485,64.782100 z "
       id="path1893"
       sodipodi:nodetypes="ccccc" />
    <path
       style="fill:url(#linearGradient1406);fill-opacity:1.0000000;fill-rule:evenodd;stroke:none;stroke-width:1.0000000px;stroke-linecap:butt;stroke-linejoin:miter;stroke-opacity:1.0000000"
       d="M 68.106461,66.344600 C 96.627233,70.177930 91.585584,52.948770 69.668957,58.719600 C 48.523160,51.261270 43.439840,68.552930 68.106461,66.344600 z "
       id="path1895"
       sodipodi:nodetypes="ccc" />
    <path
       sodipodi:type="arc"
       style="fill:url(#linearGradient21044);fill-opacity:1.0000000;stroke:none;stroke-width:2.0000000;stroke-miterlimit:4.0000000;stroke-dashoffset:0.0000000;stroke-opacity:1.0000000"
       id="path1897"
       sodipodi:cx="107.09375"
       sodipodi:cy="56.406250"
       sodipodi:rx="3.7187500"
       sodipodi:ry="1.6562500"
       d="M 110.81250 56.406250 A 3.7187500 1.6562500 0 1 1  103.37500,56.406250 A 3.7187500 1.6562500 0 1 1  110.81250 56.406250 z"
       transform="matrix(0.999998,0.000000,0.000000,1.000000,-38.33083,1.532100)" />
    <path
       id="path1899"
       d="M 68.767700,56.293750 C 66.957250,56.293750 65.629940,56.905440 65.298460,57.668750 C 52.417270,54.947440 47.716380,62.153070 55.765870,65.231250 L 55.359560,67.293750 C 52.361220,70.082760 50.967060,73.572350 49.640000,75.950000 C 50.391330,76.213610 51.860810,76.447260 53.203000,76.668750 C 52.135620,79.380130 51.484010,82.365300 51.484010,85.575000 C 51.484010,90.045900 52.668200,94.160330 54.640710,97.543750 C 53.790970,98.359750 52.929180,99.217270 52.234110,99.981250 C 52.234110,99.981250 53.691870,99.202840 55.234540,98.450000 C 58.262090,103.07079 62.831880,106.10185 68.017590,106.23125 L 64.923410,106.01250 L 64.923410,106.73125 L 64.860900,106.73125 C 63.944680,106.73125 63.033400,106.83022 62.173020,107.01250 L 56.047160,104.88750 L 55.922140,110.41875 C 53.592730,112.72254 52.140350,115.90036 52.140350,119.45000 L 52.140350,134.38750 C 57.097980,136.84439 65.034380,137.99902 73.080810,137.88750 C 73.093530,137.90652 73.099330,137.93099 73.112060,137.95000 L 76.800090,137.85625 C 76.750110,137.77604 76.693850,137.68664 76.643820,137.60625 C 77.138510,137.57443 77.621480,137.52345 78.112770,137.48125 L 78.112770,137.73125 L 81.582020,137.26250 L 81.582020,137.23125 C 85.717120,136.65248 89.603960,135.77077 92.739840,134.38750 L 92.739840,119.45000 C 92.739830,112.41160 87.085810,106.74836 80.050550,106.73125 L 79.612990,102.63750 L 71.580610,106.73125 L 68.736450,106.73125 L 68.673940,106.26250 L 68.455160,106.26250 C 76.381460,106.20918 82.972900,99.446260 84.738710,90.387500 C 87.840920,90.549880 90.083110,89.725900 93.239910,88.700000 C 87.756330,86.979360 88.505880,75.381740 82.019580,68.325000 C 82.039570,68.322840 82.062110,68.327160 82.082090,68.325000 C 82.066730,68.028140 81.879620,66.751190 81.800800,66.231250 C 92.792310,63.845920 87.339390,55.390180 72.111930,58.325000 C 72.198430,58.184930 72.486980,58.102260 72.486980,57.950000 C 72.486980,57.035750 70.820750,56.293750 68.767700,56.293750 z "
       style="fill:url(#linearGradient1402);fill-opacity:1.0000000;stroke:none;stroke-width:2.0000000;stroke-miterlimit:4.0000000;stroke-dashoffset:0.0000000;stroke-opacity:1.0000000" />
  </g>
  

  <metadata>
    <rdf:RDF 
     xmlns="http://web.resource.org/cc/"
     xmlns:dc="http://purl.org/dc/elements/1.1/"
     xmlns:rdf="http://www.w3.org/1999/02/22-rdf-syntax-ns#">
      <Work rdf:about="">
        <dc:title>card</dc:title>
        <dc:description></dc:description>
        <dc:subject>
          <rdf:Bag>
            <rdf:li>white</rdf:li>
            <rdf:li>card</rdf:li>
          </rdf:Bag>
        </dc:subject>
        <dc:publisher>
           <Agent>
             <dc:title></dc:title>
           </Agent>
         </dc:publisher>
         <dc:creator>
           <Agent>
             <dc:title>Nicu Buculei</dc:title>
           </Agent>
        </dc:creator>
         <dc:rights>
           <Agent>
             <dc:title>Nicu Buculei</dc:title>
           </Agent>
        </dc:rights>
        <dc:date></dc:date>
        <dc:format>image/svg+xml</dc:format>
        <dc:type rdf:resource="http://purl.org/dc/dcmitype/StillImage" />
        <license rdf:resource="http://web.resource.org/cc/PublicDomain" />
        <dc:language>en</dc:language>
      </Work>

      <License rdf:about="http://web.resource.org/cc/PublicDomain">
         <permits rdf:resource="http://web.resource.org/cc/Reproduction" />
         <permits rdf:resource="http://web.resource.org/cc/Distribution" />
         <permits rdf:resource="http://web.resource.org/cc/DerivativeWorks" />
      </License>

    </rdf:RDF>
  </metadata>
</svg>
