<?xml version="1.0" encoding="UTF-8" standalone="no"?>
<!-- Created with Inkscape (http://www.inkscape.org/) -->
<svg
   xmlns:dc="http://purl.org/dc/elements/1.1/"
   xmlns:cc="http://web.resource.org/cc/"
   xmlns:rdf="http://www.w3.org/1999/02/22-rdf-syntax-ns#"
   xmlns:svg="http://www.w3.org/2000/svg"
   xmlns="http://www.w3.org/2000/svg"
   xmlns:xlink="http://www.w3.org/1999/xlink"
   xmlns:sodipodi="http://inkscape.sourceforge.net/DTD/sodipodi-0.dtd"
   xmlns:inkscape="http://www.inkscape.org/namespaces/inkscape"
   sodipodi:docbase="/home/nicu/Desktop/simple"
   sodipodi:docname="h_6.svg"
   inkscape:version="0.41"
   sodipodi:version="0.32"
   version="1.0"
   x="0.0000000"
   y="0.0000000"
   preserveAspectRatio="xMinYMin meet"
   viewBox="0 0 140 190"
   height="190.00000"
   id="svg2">
  
  <sodipodi:namedview
     inkscape:current-layer="svg2"
     inkscape:window-y="26"
     inkscape:window-x="0"
     inkscape:cy="95.000001"
     inkscape:cx="70.000003"
     inkscape:zoom="1.9105263"
     inkscape:window-height="791"
     inkscape:window-width="1152"
     inkscape:pageshadow="2"
     inkscape:pageopacity="0.0"
     borderopacity="1.0"
     bordercolor="#666666"
     pagecolor="#ffffff"
     id="base" />
  <defs
     id="defs3">
    <linearGradient
       id="linearGradient3920">
      <stop
         style="stop-color:#ffffff;stop-opacity:1.0000000;"
         offset="0.0000000"
         id="stop3922" />
      <stop
         style="stop-color:#ffffff;stop-opacity:0.0000000;"
         offset="1.0000000"
         id="stop3924" />
    </linearGradient>
    <linearGradient
       id="linearGradient2060">
      <stop
         style="stop-color:#ebf0d0;stop-opacity:1.0000000;"
         offset="0.0000000"
         id="stop2062" />
      <stop
         style="stop-color:#ffffeb;stop-opacity:1.0000000;"
         offset="1.0000000"
         id="stop2064" />
    </linearGradient>
    <linearGradient
       id="linearGradient1575">
      <stop
         style="stop-color:#ffffff;stop-opacity:0.50000000;"
         offset="0.0000000"
         id="stop1576" />
      <stop
         style="stop-color:#ffffff;stop-opacity:0.0000000;"
         offset="1.0000000"
         id="stop1577" />
    </linearGradient>
    <linearGradient
       x1="2.0000000"
       y1="63.099518"
       x2="109.00000"
       y2="128.69501"
       id="linearGradient4853"
       xlink:href="#linearGradient2060"
       gradientUnits="userSpaceOnUse"
       gradientTransform="translate(0.000000,-1.000000)" />
    <linearGradient
       x1="233.88673"
       y1="142.78372"
       x2="159.43488"
       y2="209.56096"
       id="linearGradient3926"
       xlink:href="#linearGradient3920"
       gradientUnits="userSpaceOnUse" />
    <linearGradient
       x1="233.88673"
       y1="142.78372"
       x2="159.43488"
       y2="209.56096"
       id="linearGradient1368"
       xlink:href="#linearGradient3920"
       gradientUnits="userSpaceOnUse" />
    <linearGradient
       x1="2.0000000"
       y1="63.099518"
       x2="109.00000"
       y2="128.69501"
       id="linearGradient1366"
       xlink:href="#linearGradient2060"
       gradientUnits="userSpaceOnUse"
       gradientTransform="translate(0.000000,-1.000000)" />
    <linearGradient
       id="linearGradient1360">
      <stop
         style="stop-color:#ffffff;stop-opacity:0.50000000;"
         offset="0.0000000"
         id="stop1362" />
      <stop
         style="stop-color:#ffffff;stop-opacity:0.0000000;"
         offset="1.0000000"
         id="stop1364" />
    </linearGradient>
    <linearGradient
       id="linearGradient1354">
      <stop
         style="stop-color:#ebf0d0;stop-opacity:1.0000000;"
         offset="0.0000000"
         id="stop1356" />
      <stop
         style="stop-color:#ffffeb;stop-opacity:1.0000000;"
         offset="1.0000000"
         id="stop1358" />
    </linearGradient>
    <linearGradient
       x1="2.0000000"
       y1="63.099518"
       x2="109.00000"
       y2="128.69501"
       id="linearGradient1398"
       xlink:href="#linearGradient2060"
       gradientUnits="userSpaceOnUse"
       gradientTransform="translate(0.000000,-1.000000)" />
    <linearGradient
       x1="2.0000000"
       y1="63.099518"
       x2="109.00000"
       y2="128.69501"
       id="linearGradient4591"
       xlink:href="#linearGradient2060"
       gradientUnits="userSpaceOnUse"
       gradientTransform="translate(0.000000,-1.000000)" />
    <linearGradient
       id="linearGradient4523">
      <stop
         style="stop-color:#ebf0d0;stop-opacity:1.0000000;"
         offset="0.0000000"
         id="stop4525" />
      <stop
         style="stop-color:#ffffeb;stop-opacity:1.0000000;"
         offset="1.0000000"
         id="stop4527" />
    </linearGradient>
    <linearGradient
       id="linearGradient4529">
      <stop
         style="stop-color:#ffffff;stop-opacity:0.50000000;"
         offset="0.0000000"
         id="stop4531" />
      <stop
         style="stop-color:#ffffff;stop-opacity:0.0000000;"
         offset="1.0000000"
         id="stop4533" />
    </linearGradient>
    <linearGradient
       x1="2.0000000"
       y1="63.099518"
       x2="109.00000"
       y2="128.69501"
       id="linearGradient4535"
       xlink:href="#linearGradient2060"
       gradientUnits="userSpaceOnUse"
       gradientTransform="translate(0.000000,-1.000000)" />
    <linearGradient
       x1="233.88673"
       y1="142.78372"
       x2="159.43488"
       y2="209.56096"
       id="linearGradient4537"
       xlink:href="#linearGradient3920"
       gradientUnits="userSpaceOnUse" />
    <linearGradient
       x1="233.88673"
       y1="142.78372"
       x2="159.43488"
       y2="209.56096"
       id="linearGradient4539"
       xlink:href="#linearGradient3920"
       gradientUnits="userSpaceOnUse" />
    <linearGradient
       x1="2.0000000"
       y1="63.099518"
       x2="109.00000"
       y2="128.69501"
       id="linearGradient4541"
       xlink:href="#linearGradient2060"
       gradientUnits="userSpaceOnUse"
       gradientTransform="translate(0.000000,-1.000000)" />
    <linearGradient
       id="linearGradient4543">
      <stop
         style="stop-color:#ffffff;stop-opacity:0.50000000;"
         offset="0.0000000"
         id="stop4545" />
      <stop
         style="stop-color:#ffffff;stop-opacity:0.0000000;"
         offset="1.0000000"
         id="stop4547" />
    </linearGradient>
    <linearGradient
       id="linearGradient4549">
      <stop
         style="stop-color:#ebf0d0;stop-opacity:1.0000000;"
         offset="0.0000000"
         id="stop4551" />
      <stop
         style="stop-color:#ffffeb;stop-opacity:1.0000000;"
         offset="1.0000000"
         id="stop4553" />
    </linearGradient>
    <linearGradient
       x1="2.0000000"
       y1="63.099518"
       x2="109.00000"
       y2="128.69501"
       id="linearGradient4555"
       xlink:href="#linearGradient2060"
       gradientUnits="userSpaceOnUse"
       gradientTransform="translate(0.000000,-1.000000)" />
    <linearGradient
       x1="2.0000000"
       y1="63.099518"
       x2="109.00000"
       y2="128.69501"
       id="linearGradient3955"
       xlink:href="#linearGradient2060"
       gradientUnits="userSpaceOnUse"
       gradientTransform="translate(0.000000,-1.000000)" />
    <linearGradient
       id="linearGradient3891">
      <stop
         style="stop-color:#ebf0d0;stop-opacity:1.0000000;"
         offset="0.0000000"
         id="stop3893" />
      <stop
         style="stop-color:#ffffeb;stop-opacity:1.0000000;"
         offset="1.0000000"
         id="stop3895" />
    </linearGradient>
    <linearGradient
       id="linearGradient3897">
      <stop
         style="stop-color:#ffffff;stop-opacity:0.50000000;"
         offset="0.0000000"
         id="stop3899" />
      <stop
         style="stop-color:#ffffff;stop-opacity:0.0000000;"
         offset="1.0000000"
         id="stop3901" />
    </linearGradient>
    <linearGradient
       x1="2.0000000"
       y1="63.099518"
       x2="109.00000"
       y2="128.69501"
       id="linearGradient3903"
       xlink:href="#linearGradient2060"
       gradientUnits="userSpaceOnUse"
       gradientTransform="translate(0.000000,-1.000000)" />
    <linearGradient
       x1="233.88673"
       y1="142.78372"
       x2="159.43488"
       y2="209.56096"
       id="linearGradient3905"
       xlink:href="#linearGradient3920"
       gradientUnits="userSpaceOnUse" />
    <linearGradient
       x1="233.88673"
       y1="142.78372"
       x2="159.43488"
       y2="209.56096"
       id="linearGradient3907"
       xlink:href="#linearGradient3920"
       gradientUnits="userSpaceOnUse" />
    <linearGradient
       x1="2.0000000"
       y1="63.099518"
       x2="109.00000"
       y2="128.69501"
       id="linearGradient3909"
       xlink:href="#linearGradient2060"
       gradientUnits="userSpaceOnUse"
       gradientTransform="translate(0.000000,-1.000000)" />
    <linearGradient
       id="linearGradient3911">
      <stop
         style="stop-color:#ffffff;stop-opacity:0.50000000;"
         offset="0.0000000"
         id="stop3913" />
      <stop
         style="stop-color:#ffffff;stop-opacity:0.0000000;"
         offset="1.0000000"
         id="stop3915" />
    </linearGradient>
    <linearGradient
       id="linearGradient3917">
      <stop
         style="stop-color:#ebf0d0;stop-opacity:1.0000000;"
         offset="0.0000000"
         id="stop3919" />
      <stop
         style="stop-color:#ffffeb;stop-opacity:1.0000000;"
         offset="1.0000000"
         id="stop3921" />
    </linearGradient>
    <linearGradient
       x1="2.0000000"
       y1="63.099518"
       x2="109.00000"
       y2="128.69501"
       id="linearGradient3923"
       xlink:href="#linearGradient2060"
       gradientUnits="userSpaceOnUse"
       gradientTransform="translate(0.000000,-1.000000)" />
    <linearGradient
       x1="2.0000000"
       y1="63.099518"
       x2="109.00000"
       y2="128.69501"
       id="linearGradient3454"
       xlink:href="#linearGradient2060"
       gradientUnits="userSpaceOnUse"
       gradientTransform="translate(0.000000,-1.000000)" />
    <linearGradient
       id="linearGradient3390">
      <stop
         style="stop-color:#ebf0d0;stop-opacity:1.0000000;"
         offset="0.0000000"
         id="stop3392" />
      <stop
         style="stop-color:#ffffeb;stop-opacity:1.0000000;"
         offset="1.0000000"
         id="stop3394" />
    </linearGradient>
    <linearGradient
       id="linearGradient3396">
      <stop
         style="stop-color:#ffffff;stop-opacity:0.50000000;"
         offset="0.0000000"
         id="stop3398" />
      <stop
         style="stop-color:#ffffff;stop-opacity:0.0000000;"
         offset="1.0000000"
         id="stop3400" />
    </linearGradient>
    <linearGradient
       x1="2.0000000"
       y1="63.099518"
       x2="109.00000"
       y2="128.69501"
       id="linearGradient3402"
       xlink:href="#linearGradient2060"
       gradientUnits="userSpaceOnUse"
       gradientTransform="translate(0.000000,-1.000000)" />
    <linearGradient
       x1="233.88673"
       y1="142.78372"
       x2="159.43488"
       y2="209.56096"
       id="linearGradient3404"
       xlink:href="#linearGradient3920"
       gradientUnits="userSpaceOnUse" />
    <linearGradient
       x1="233.88673"
       y1="142.78372"
       x2="159.43488"
       y2="209.56096"
       id="linearGradient3406"
       xlink:href="#linearGradient3920"
       gradientUnits="userSpaceOnUse" />
    <linearGradient
       x1="2.0000000"
       y1="63.099518"
       x2="109.00000"
       y2="128.69501"
       id="linearGradient3408"
       xlink:href="#linearGradient2060"
       gradientUnits="userSpaceOnUse"
       gradientTransform="translate(0.000000,-1.000000)" />
    <linearGradient
       id="linearGradient3410">
      <stop
         style="stop-color:#ffffff;stop-opacity:0.50000000;"
         offset="0.0000000"
         id="stop3412" />
      <stop
         style="stop-color:#ffffff;stop-opacity:0.0000000;"
         offset="1.0000000"
         id="stop3414" />
    </linearGradient>
    <linearGradient
       id="linearGradient3416">
      <stop
         style="stop-color:#ebf0d0;stop-opacity:1.0000000;"
         offset="0.0000000"
         id="stop3418" />
      <stop
         style="stop-color:#ffffeb;stop-opacity:1.0000000;"
         offset="1.0000000"
         id="stop3420" />
    </linearGradient>
    <linearGradient
       x1="2.0000000"
       y1="63.099518"
       x2="109.00000"
       y2="128.69501"
       id="linearGradient3422"
       xlink:href="#linearGradient2060"
       gradientUnits="userSpaceOnUse"
       gradientTransform="translate(0.000000,-1.000000)" />
    <linearGradient
       x1="2.0000000"
       y1="63.099518"
       x2="109.00000"
       y2="128.69501"
       id="linearGradient2595"
       xlink:href="#linearGradient2060"
       gradientUnits="userSpaceOnUse"
       gradientTransform="translate(0.000000,-1.000000)" />
    <linearGradient
       id="linearGradient2535">
      <stop
         style="stop-color:#ebf0d0;stop-opacity:1.0000000;"
         offset="0.0000000"
         id="stop2537" />
      <stop
         style="stop-color:#ffffeb;stop-opacity:1.0000000;"
         offset="1.0000000"
         id="stop2539" />
    </linearGradient>
    <linearGradient
       id="linearGradient2541">
      <stop
         style="stop-color:#ffffff;stop-opacity:0.50000000;"
         offset="0.0000000"
         id="stop2543" />
      <stop
         style="stop-color:#ffffff;stop-opacity:0.0000000;"
         offset="1.0000000"
         id="stop2545" />
    </linearGradient>
    <linearGradient
       x1="2.0000000"
       y1="63.099518"
       x2="109.00000"
       y2="128.69501"
       id="linearGradient2547"
       xlink:href="#linearGradient2060"
       gradientUnits="userSpaceOnUse"
       gradientTransform="translate(0.000000,-1.000000)" />
    <linearGradient
       x1="233.88673"
       y1="142.78372"
       x2="159.43488"
       y2="209.56096"
       id="linearGradient2549"
       xlink:href="#linearGradient3920"
       gradientUnits="userSpaceOnUse" />
    <linearGradient
       x1="233.88673"
       y1="142.78372"
       x2="159.43488"
       y2="209.56096"
       id="linearGradient2551"
       xlink:href="#linearGradient3920"
       gradientUnits="userSpaceOnUse" />
    <linearGradient
       x1="2.0000000"
       y1="63.099518"
       x2="109.00000"
       y2="128.69501"
       id="linearGradient2553"
       xlink:href="#linearGradient2060"
       gradientUnits="userSpaceOnUse"
       gradientTransform="translate(0.000000,-1.000000)" />
    <linearGradient
       id="linearGradient2555">
      <stop
         style="stop-color:#ffffff;stop-opacity:0.50000000;"
         offset="0.0000000"
         id="stop2557" />
      <stop
         style="stop-color:#ffffff;stop-opacity:0.0000000;"
         offset="1.0000000"
         id="stop2559" />
    </linearGradient>
    <linearGradient
       id="linearGradient2561">
      <stop
         style="stop-color:#ebf0d0;stop-opacity:1.0000000;"
         offset="0.0000000"
         id="stop2563" />
      <stop
         style="stop-color:#ffffeb;stop-opacity:1.0000000;"
         offset="1.0000000"
         id="stop2565" />
    </linearGradient>
    <linearGradient
       x1="2.0000000"
       y1="63.099518"
       x2="109.00000"
       y2="128.69501"
       id="linearGradient2567"
       xlink:href="#linearGradient2060"
       gradientUnits="userSpaceOnUse"
       gradientTransform="translate(0.000000,-1.000000)" />
    <linearGradient
       id="linearGradient2318">
      <stop
         style="stop-color:#ebf0d0;stop-opacity:1.0000000;"
         offset="0.0000000"
         id="stop2320" />
      <stop
         style="stop-color:#ffffeb;stop-opacity:1.0000000;"
         offset="1.0000000"
         id="stop2322" />
    </linearGradient>
    <linearGradient
       id="linearGradient2324">
      <stop
         style="stop-color:#ffffff;stop-opacity:0.50000000;"
         offset="0.0000000"
         id="stop2326" />
      <stop
         style="stop-color:#ffffff;stop-opacity:0.0000000;"
         offset="1.0000000"
         id="stop2328" />
    </linearGradient>
    <linearGradient
       x1="2.0000000"
       y1="63.099518"
       x2="109.00000"
       y2="128.69501"
       id="linearGradient2330"
       xlink:href="#linearGradient2060"
       gradientUnits="userSpaceOnUse"
       gradientTransform="translate(0.000000,-1.000000)" />
    <linearGradient
       x1="233.88673"
       y1="142.78372"
       x2="159.43488"
       y2="209.56096"
       id="linearGradient2332"
       xlink:href="#linearGradient3920"
       gradientUnits="userSpaceOnUse" />
    <linearGradient
       x1="233.88673"
       y1="142.78372"
       x2="159.43488"
       y2="209.56096"
       id="linearGradient2334"
       xlink:href="#linearGradient3920"
       gradientUnits="userSpaceOnUse" />
    <linearGradient
       x1="2.0000000"
       y1="63.099518"
       x2="109.00000"
       y2="128.69501"
       id="linearGradient2336"
       xlink:href="#linearGradient2060"
       gradientUnits="userSpaceOnUse"
       gradientTransform="translate(0.000000,-1.000000)" />
    <linearGradient
       id="linearGradient2338">
      <stop
         style="stop-color:#ffffff;stop-opacity:0.50000000;"
         offset="0.0000000"
         id="stop2340" />
      <stop
         style="stop-color:#ffffff;stop-opacity:0.0000000;"
         offset="1.0000000"
         id="stop2342" />
    </linearGradient>
    <linearGradient
       id="linearGradient2344">
      <stop
         style="stop-color:#ebf0d0;stop-opacity:1.0000000;"
         offset="0.0000000"
         id="stop2346" />
      <stop
         style="stop-color:#ffffeb;stop-opacity:1.0000000;"
         offset="1.0000000"
         id="stop2348" />
    </linearGradient>
    <linearGradient
       x1="2.0000000"
       y1="63.099518"
       x2="109.00000"
       y2="128.69501"
       id="linearGradient2350"
       xlink:href="#linearGradient2060"
       gradientUnits="userSpaceOnUse"
       gradientTransform="translate(0.000000,-1.000000)" />
    <linearGradient
       x1="2.0000000"
       y1="63.099518"
       x2="109.00000"
       y2="128.69501"
       id="linearGradient4060"
       xlink:href="#linearGradient2060"
       gradientUnits="userSpaceOnUse"
       gradientTransform="translate(0.000000,-1.000000)" />
    <linearGradient
       id="linearGradient4054">
      <stop
         style="stop-color:#ebf0d0;stop-opacity:1.0000000;"
         offset="0.0000000"
         id="stop4056" />
      <stop
         style="stop-color:#ffffeb;stop-opacity:1.0000000;"
         offset="1.0000000"
         id="stop4058" />
    </linearGradient>
    <linearGradient
       id="linearGradient4048">
      <stop
         style="stop-color:#ffffff;stop-opacity:0.50000000;"
         offset="0.0000000"
         id="stop4050" />
      <stop
         style="stop-color:#ffffff;stop-opacity:0.0000000;"
         offset="1.0000000"
         id="stop4052" />
    </linearGradient>
    <linearGradient
       x1="2.0000000"
       y1="63.099518"
       x2="109.00000"
       y2="128.69501"
       id="linearGradient4046"
       xlink:href="#linearGradient2060"
       gradientUnits="userSpaceOnUse"
       gradientTransform="translate(0.000000,-1.000000)" />
    <linearGradient
       x1="233.88673"
       y1="142.78372"
       x2="159.43488"
       y2="209.56096"
       id="linearGradient4044"
       xlink:href="#linearGradient3920"
       gradientUnits="userSpaceOnUse" />
    <linearGradient
       x1="233.88673"
       y1="142.78372"
       x2="159.43488"
       y2="209.56096"
       id="linearGradient4042"
       xlink:href="#linearGradient3920"
       gradientUnits="userSpaceOnUse" />
    <linearGradient
       x1="2.0000000"
       y1="63.099518"
       x2="109.00000"
       y2="128.69501"
       id="linearGradient4040"
       xlink:href="#linearGradient2060"
       gradientUnits="userSpaceOnUse"
       gradientTransform="translate(0.000000,-1.000000)" />
    <linearGradient
       id="linearGradient4034">
      <stop
         style="stop-color:#ffffff;stop-opacity:0.50000000;"
         offset="0.0000000"
         id="stop4036" />
      <stop
         style="stop-color:#ffffff;stop-opacity:0.0000000;"
         offset="1.0000000"
         id="stop4038" />
    </linearGradient>
    <linearGradient
       id="linearGradient4028">
      <stop
         style="stop-color:#ebf0d0;stop-opacity:1.0000000;"
         offset="0.0000000"
         id="stop4030" />
      <stop
         style="stop-color:#ffffeb;stop-opacity:1.0000000;"
         offset="1.0000000"
         id="stop4032" />
    </linearGradient>
    <linearGradient
       x1="2.0000000"
       y1="63.099518"
       x2="109.00000"
       y2="128.69501"
       id="linearGradient4188"
       xlink:href="#linearGradient2060"
       gradientUnits="userSpaceOnUse"
       gradientTransform="translate(0.000000,-1.000000)" />
  </defs>
  <g
     id="layer1"
     inkscape:groupmode="layer"
     inkscape:label="Layer 1">
    <g
       id="g5630">
      <path
         id="rect1306"
         d="M 18.000000,1.9999995 L 121.00000,1.9999995 C 129.86400,1.9999995 137.00000,9.1359995 137.00000,18.000000 L 137.00000,171.00000 C 137.00000,179.86400 129.86400,187.00000 121.00000,187.00000 L 18.000000,187.00000 C 9.1360000,187.00000 2.0000000,179.86400 2.0000000,171.00000 L 2.0000000,18.000000 C 2.0000000,9.1359995 9.1360000,1.9999995 18.000000,1.9999995 z "
         style="fill:#ffffff;fill-opacity:1.0000000;stroke:black;stroke-width:0.70000000;stroke-miterlimit:4.0000000;stroke-dashoffset:0.0000000;stroke-opacity:1.0000000" />
    </g>
    <g
       inkscape:label="Layer 1"
       inkscape:groupmode="layer"
       id="g5495"
       transform="translate(-448.5000,-231.5000)" />
  </g>
  <path
     d="M 21.308961,27.188843 C 20.190325,27.188857 19.348588,27.630915 18.783748,28.515018 C 18.229963,29.385751 17.953077,30.698530 17.953085,32.453357 C 17.953077,34.208203 18.229963,35.527680 18.783748,36.411790 C 19.348588,37.282516 20.190325,37.717876 21.308961,37.717872 C 22.438649,37.717876 23.280386,37.282516 23.834175,36.411790 C 24.399010,35.527680 24.681435,34.208203 24.681451,32.453357 C 24.681435,30.698530 24.399010,29.385751 23.834175,28.515018 C 23.280386,27.630915 22.438649,27.188857 21.308961,27.188843 M 29.216867,12.781754 L 29.216867,18.327580 C 28.164676,17.724797 27.173420,17.282739 26.243096,17.001404 C 25.312738,16.706723 24.404548,16.559371 23.518523,16.559345 C 21.613525,16.559371 20.129409,17.202364 19.066173,18.488327 C 18.002916,19.760943 17.382689,21.656433 17.205489,24.174808 C 17.936463,23.518436 18.728360,23.029493 19.581183,22.707977 C 20.433985,22.373104 21.364326,22.205658 22.372209,22.205638 C 24.908483,22.205658 26.951910,23.103170 28.502498,24.898176 C 30.064123,26.693217 30.844944,29.044161 30.844966,31.951018 C 30.844944,35.165996 29.975519,37.744668 28.236686,39.687042 C 26.497815,41.616024 24.166425,42.580515 21.242509,42.580515 C 18.019529,42.580515 15.522007,41.267736 13.749933,38.642175 C 11.988926,36.003227 11.108425,32.265827 11.108427,27.429966 C 11.108425,22.473572 12.138445,18.582121 14.198491,15.755603 C 16.269602,12.915741 19.104927,11.495797 22.704474,11.495766 C 23.845236,11.495797 24.952785,11.602963 26.027124,11.817263 C 27.101429,12.031625 28.164676,12.353122 29.216867,12.781754"
     style="font-size:37.418461;font-style:normal;font-variant:normal;font-weight:bold;font-stretch:normal;fill:#ff0000;fill-opacity:1.0000000;stroke:none;stroke-width:1.0000000px;stroke-linecap:butt;stroke-linejoin:miter;stroke-opacity:1.0000000;font-family:Bitstream Vera Sans;text-anchor:start;writing-mode:lr-tb"
     id="text1386" />
  <g
     transform="matrix(0.286388,0.000000,0.000000,0.388772,-29.60833,-9.472414)"
     style="fill:#ff0000;fill-opacity:1.0000000"
     id="g1390">
    <path
       d="M 147.20601,156.41679 C 144.67035,156.42954 141.88421,156.89888 138.79976,157.94804 C 105.17650,177.48492 150.50459,208.98936 169.64351,236.04179 L 170.19602,236.18010 C 191.22900,206.61098 231.26801,174.07246 200.67476,157.94804 C 176.43799,149.70401 169.96344,177.14611 169.73726,178.13554 C 169.53987,177.27202 164.59485,156.32936 147.20601,156.41679 z "
       transform="matrix(1.105375,0.000000,0.000000,1.079637,-12.01415,-18.86731)"
       style="fill-rule:evenodd;stroke:none;stroke-width:3.4289415;stroke-linecap:butt;stroke-linejoin:round;stroke-miterlimit:4.0000000;stroke-opacity:1.0000000"
       id="path1392" />
  </g>
  <path
     d="M 117.55649,161.81109 C 118.67513,161.81108 119.51686,161.36901 120.08171,160.48491 C 120.63549,159.61418 120.91237,158.30140 120.91236,156.54657 C 120.91237,154.79173 120.63549,153.47225 120.08171,152.58814 C 119.51686,151.71742 118.67513,151.28205 117.55649,151.28205 C 116.42680,151.28205 115.58506,151.71742 115.03127,152.58814 C 114.46645,153.47225 114.18401,154.79173 114.18401,156.54657 C 114.18401,158.30140 114.46645,159.61418 115.03127,160.48491 C 115.58506,161.36901 116.42680,161.81108 117.55649,161.81109 M 109.64859,176.21817 L 109.64859,170.67235 C 110.70077,171.27513 111.69204,171.71719 112.62236,171.99852 C 113.55272,172.29321 114.46091,172.44055 115.34693,172.44059 C 117.25193,172.44055 118.73604,171.79756 119.79928,170.51160 C 120.86254,169.23899 121.48277,167.34349 121.65997,164.82512 C 120.92899,165.48150 120.13709,165.97043 119.28427,166.29195 C 118.43147,166.62683 117.50113,166.79427 116.49325,166.79429 C 113.95697,166.79427 111.91355,165.89676 110.36296,164.10175 C 108.80133,162.30671 108.02051,159.95577 108.02048,157.04892 C 108.02051,153.83393 108.88994,151.25526 110.62877,149.31288 C 112.36764,147.38390 114.69903,146.41942 117.62295,146.41942 C 120.84592,146.41942 123.34345,147.73219 125.11552,150.35775 C 126.87653,152.99670 127.75703,156.73410 127.75702,161.56996 C 127.75703,166.52635 126.72701,170.41781 124.66696,173.24433 C 122.59586,176.08418 119.76052,177.50413 116.16098,177.50416 C 115.02022,177.50413 113.91267,177.39697 112.83833,177.18267 C 111.76402,176.96830 110.70077,176.64680 109.64859,176.21817"
     style="font-size:37.418461;font-style:normal;font-variant:normal;font-weight:bold;font-stretch:normal;fill:#ff0000;fill-opacity:1.0000000;stroke:none;stroke-width:1.0000000px;stroke-linecap:butt;stroke-linejoin:miter;stroke-opacity:1.0000000;font-family:Bitstream Vera Sans;text-anchor:start;writing-mode:lr-tb"
     id="text14132" />
  <g
     transform="matrix(-0.286429,0.000000,0.000000,-0.388772,168.4791,198.3135)"
     style="fill:#ff0000;fill-opacity:1.0000000"
     id="g14136">
    <path
       d="M 147.20601,156.41679 C 144.67035,156.42954 141.88421,156.89888 138.79976,157.94804 C 105.17650,177.48492 150.50459,208.98936 169.64351,236.04179 L 170.19602,236.18010 C 191.22900,206.61098 231.26801,174.07246 200.67476,157.94804 C 176.43799,149.70401 169.96344,177.14611 169.73726,178.13554 C 169.53987,177.27202 164.59485,156.32936 147.20601,156.41679 z "
       transform="matrix(1.105375,0.000000,0.000000,1.079637,-12.01415,-18.86731)"
       style="fill-rule:evenodd;stroke:none;stroke-width:3.4289415;stroke-linecap:butt;stroke-linejoin:round;stroke-miterlimit:4.0000000;stroke-opacity:1.0000000"
       id="path14138" />
  </g>
  <g
     id="g4151">
    <g
       transform="translate(333.5000,184.5000)"
       id="g2352" />
    <g
       id="g2569">
      <g
         id="g3424">
        <g
           transform="translate(329.5000,183.5000)"
           id="g3925" />
        <g
           transform="translate(325.5000,242.5000)"
           id="g4557" />
      </g>
    </g>
  </g>
  <g
     transform="matrix(0.166355,0.000000,0.000000,0.229660,22.05389,10.55238)"
     style="fill-opacity:1.0000000;fill:#ff0000"
     id="g1861">
    <path
       d="M 147.20601,156.41679 C 144.67035,156.42954 141.88421,156.89888 138.79976,157.94804 C 105.17650,177.48492 150.50459,208.98936 169.64351,236.04179 L 170.19602,236.18010 C 191.22900,206.61098 231.26801,174.07246 200.67476,157.94804 C 176.43799,149.70401 169.96344,177.14611 169.73726,178.13554 C 169.53987,177.27202 164.59485,156.32936 147.20601,156.41679 z "
       transform="matrix(1.105375,0.000000,0.000000,1.079637,-12.01415,-18.86731)"
       style="fill-rule:evenodd;stroke:none;stroke-width:3.4289415;stroke-linecap:butt;stroke-linejoin:round;stroke-miterlimit:4.0000000;stroke-opacity:1.0000000"
       id="path1863" />
  </g>
  <g
     transform="matrix(0.166355,0.000000,0.000000,0.229660,58.05389,10.77234)"
     style="fill-opacity:1.0000000;fill:#ff0000"
     id="g4204">
    <path
       d="M 147.20601,156.41679 C 144.67035,156.42954 141.88421,156.89888 138.79976,157.94804 C 105.17650,177.48492 150.50459,208.98936 169.64351,236.04179 L 170.19602,236.18010 C 191.22900,206.61098 231.26801,174.07246 200.67476,157.94804 C 176.43799,149.70401 169.96344,177.14611 169.73726,178.13554 C 169.53987,177.27202 164.59485,156.32936 147.20601,156.41679 z "
       transform="matrix(1.105375,0.000000,0.000000,1.079637,-12.01415,-18.86731)"
       style="fill-rule:evenodd;stroke:none;stroke-width:3.4289415;stroke-linecap:butt;stroke-linejoin:round;stroke-miterlimit:4.0000000;stroke-opacity:1.0000000"
       id="path4206" />
  </g>
  <g
     transform="matrix(0.166355,0.000000,0.000000,0.229660,22.05389,46.77234)"
     style="fill-opacity:1.0000000;fill:#ff0000"
     id="g4208">
    <path
       d="M 147.20601,156.41679 C 144.67035,156.42954 141.88421,156.89888 138.79976,157.94804 C 105.17650,177.48492 150.50459,208.98936 169.64351,236.04179 L 170.19602,236.18010 C 191.22900,206.61098 231.26801,174.07246 200.67476,157.94804 C 176.43799,149.70401 169.96344,177.14611 169.73726,178.13554 C 169.53987,177.27202 164.59485,156.32936 147.20601,156.41679 z "
       transform="matrix(1.105375,0.000000,0.000000,1.079637,-12.01415,-18.86731)"
       style="fill-rule:evenodd;stroke:none;stroke-width:3.4289415;stroke-linecap:butt;stroke-linejoin:round;stroke-miterlimit:4.0000000;stroke-opacity:1.0000000"
       id="path4210" />
  </g>
  <g
     transform="matrix(-0.166355,0.000000,0.000000,-0.229660,115.9461,135.4476)"
     style="fill-opacity:1.0000000;fill:#ff0000"
     id="g4212">
    <path
       d="M 147.20601,156.41679 C 144.67035,156.42954 141.88421,156.89888 138.79976,157.94804 C 105.17650,177.48492 150.50459,208.98936 169.64351,236.04179 L 170.19602,236.18010 C 191.22900,206.61098 231.26801,174.07246 200.67476,157.94804 C 176.43799,149.70401 169.96344,177.14611 169.73726,178.13554 C 169.53987,177.27202 164.59485,156.32936 147.20601,156.41679 z "
       transform="matrix(1.105375,0.000000,0.000000,1.079637,-12.01415,-18.86731)"
       style="fill-rule:evenodd;stroke:none;stroke-width:3.4289415;stroke-linecap:butt;stroke-linejoin:round;stroke-miterlimit:4.0000000;stroke-opacity:1.0000000"
       id="path4214" />
  </g>
  <g
     transform="matrix(-0.166355,0.000000,0.000000,-0.229660,82.30610,176.2277)"
     style="fill-opacity:1.0000000;fill:#ff0000"
     id="g4216">
    <path
       d="M 147.20601,156.41679 C 144.67035,156.42954 141.88421,156.89888 138.79976,157.94804 C 105.17650,177.48492 150.50459,208.98936 169.64351,236.04179 L 170.19602,236.18010 C 191.22900,206.61098 231.26801,174.07246 200.67476,157.94804 C 176.43799,149.70401 169.96344,177.14611 169.73726,178.13554 C 169.53987,177.27202 164.59485,156.32936 147.20601,156.41679 z "
       transform="matrix(1.105375,0.000000,0.000000,1.079637,-12.01415,-18.86731)"
       style="fill-rule:evenodd;stroke:none;stroke-width:3.4289415;stroke-linecap:butt;stroke-linejoin:round;stroke-miterlimit:4.0000000;stroke-opacity:1.0000000"
       id="path4218" />
  </g>
  <g
     transform="matrix(-0.166355,0.000000,0.000000,-0.229660,117.3061,176.2277)"
     style="fill-opacity:1.0000000;fill:#ff0000"
     id="g4220">
    <path
       d="M 147.20601,156.41679 C 144.67035,156.42954 141.88421,156.89888 138.79976,157.94804 C 105.17650,177.48492 150.50459,208.98936 169.64351,236.04179 L 170.19602,236.18010 C 191.22900,206.61098 231.26801,174.07246 200.67476,157.94804 C 176.43799,149.70401 169.96344,177.14611 169.73726,178.13554 C 169.53987,177.27202 164.59485,156.32936 147.20601,156.41679 z "
       transform="matrix(1.105375,0.000000,0.000000,1.079637,-12.01415,-18.86731)"
       style="fill-rule:evenodd;stroke:none;stroke-width:3.4289415;stroke-linecap:butt;stroke-linejoin:round;stroke-miterlimit:4.0000000;stroke-opacity:1.0000000"
       id="path4222" />
  </g>

  

  <metadata>
    <rdf:RDF 
     xmlns="http://web.resource.org/cc/"
     xmlns:dc="http://purl.org/dc/elements/1.1/"
     xmlns:rdf="http://www.w3.org/1999/02/22-rdf-syntax-ns#">
      <Work rdf:about="">
        <dc:title>card</dc:title>
        <dc:description></dc:description>
        <dc:subject>
          <rdf:Bag>
            <rdf:li>white</rdf:li>
            <rdf:li>card</rdf:li>
          </rdf:Bag>
        </dc:subject>
        <dc:publisher>
           <Agent>
             <dc:title></dc:title>
           </Agent>
         </dc:publisher>
         <dc:creator>
           <Agent>
             <dc:title>Nicu Buculei</dc:title>
           </Agent>
        </dc:creator>
         <dc:rights>
           <Agent>
             <dc:title>Nicu Buculei</dc:title>
           </Agent>
        </dc:rights>
        <dc:date></dc:date>
        <dc:format>image/svg+xml</dc:format>
        <dc:type rdf:resource="http://purl.org/dc/dcmitype/StillImage" />
        <license rdf:resource="http://web.resource.org/cc/PublicDomain" />
        <dc:language>en</dc:language>
      </Work>

      <License rdf:about="http://web.resource.org/cc/PublicDomain">
         <permits rdf:resource="http://web.resource.org/cc/Reproduction" />
         <permits rdf:resource="http://web.resource.org/cc/Distribution" />
         <permits rdf:resource="http://web.resource.org/cc/DerivativeWorks" />
      </License>

    </rdf:RDF>
  </metadata>
</svg>
