<?xml version="1.0" encoding="UTF-8" standalone="no"?>
<!-- Created with Inkscape (http://www.inkscape.org/) -->
<svg
   xmlns:dc="http://purl.org/dc/elements/1.1/"
   xmlns:cc="http://web.resource.org/cc/"
   xmlns:rdf="http://www.w3.org/1999/02/22-rdf-syntax-ns#"
   xmlns:svg="http://www.w3.org/2000/svg"
   xmlns="http://www.w3.org/2000/svg"
   xmlns:xlink="http://www.w3.org/1999/xlink"
   xmlns:sodipodi="http://inkscape.sourceforge.net/DTD/sodipodi-0.dtd"
   xmlns:inkscape="http://www.inkscape.org/namespaces/inkscape"
   sodipodi:docbase="/home/nicu/Desktop/simple"
   sodipodi:docname="jk_r.svg"
   inkscape:version="0.41"
   sodipodi:version="0.32"
   version="1.0"
   x="0.0000000"
   y="0.0000000"
   preserveAspectRatio="xMinYMin meet"
   viewBox="0 0 140 190"
   height="190.00000"
   id="svg2">
  
  <sodipodi:namedview
     inkscape:current-layer="svg2"
     inkscape:window-y="26"
     inkscape:window-x="0"
     inkscape:cy="135.00000"
     inkscape:cx="70.000000"
     inkscape:zoom="1.0000000"
     inkscape:window-height="791"
     inkscape:window-width="1152"
     inkscape:pageshadow="2"
     inkscape:pageopacity="0.0"
     borderopacity="1.0"
     bordercolor="#666666"
     pagecolor="#ffffff"
     id="base" />
  <defs
     id="defs3">
    <linearGradient
       id="linearGradient2060">
      <stop
         style="stop-color:#ebf0d0;stop-opacity:1.0000000;"
         offset="0.0000000"
         id="stop2062" />
      <stop
         style="stop-color:#ffffeb;stop-opacity:1.0000000;"
         offset="1.0000000"
         id="stop2064" />
    </linearGradient>
    <linearGradient
       x1="2.0000000"
       y1="63.099518"
       x2="109.00000"
       y2="128.69501"
       id="linearGradient4853"
       xlink:href="#linearGradient2060"
       gradientUnits="userSpaceOnUse"
       gradientTransform="translate(0.000000,-1.000000)" />
    <linearGradient
       id="linearGradient6214">
      <stop
         style="stop-color:#c10000;stop-opacity:1.0000000;"
         offset="0.0000000"
         id="stop6216" />
      <stop
         style="stop-color:#ff433e;stop-opacity:1.0000000;"
         offset="1.0000000"
         id="stop6218" />
    </linearGradient>
    <linearGradient
       id="linearGradient5417">
      <stop
         id="stop5419"
         offset="0.0000000"
         style="stop-color:#f0a700;stop-opacity:1.0000000;" />
      <stop
         id="stop5421"
         offset="1.0000000"
         style="stop-color:#ffed00;stop-opacity:1.0000000;" />
    </linearGradient>
    <linearGradient
       id="linearGradient5407">
      <stop
         style="stop-color:#f0eb00;stop-opacity:1.0000000;"
         offset="0.0000000"
         id="stop5409" />
      <stop
         style="stop-color:#ffff00;stop-opacity:1.0000000;"
         offset="1.0000000"
         id="stop5411" />
    </linearGradient>
    <linearGradient
       id="linearGradient3865">
      <stop
         style="stop-color:#0083cc;stop-opacity:1;"
         offset="0"
         id="stop3867" />
      <stop
         style="stop-color:#24a4cc;stop-opacity:1.0000000;"
         offset="1.0000000"
         id="stop3869" />
    </linearGradient>
    <linearGradient
       id="linearGradient3857">
      <stop
         style="stop-color:#ffd8c1;stop-opacity:1.0000000;"
         offset="0.0000000"
         id="stop3859" />
      <stop
         style="stop-color:#ffeded;stop-opacity:1.0000000;"
         offset="1.0000000"
         id="stop3861" />
    </linearGradient>
    <linearGradient
       inkscape:collect="always"
       id="linearGradient2580">
      <stop
         style="stop-color:#ffffff;stop-opacity:1;"
         offset="0"
         id="stop2582" />
      <stop
         style="stop-color:#ffffff;stop-opacity:0;"
         offset="1"
         id="stop2584" />
    </linearGradient>
    <linearGradient
       id="linearGradient3196">
      <stop
         style="stop-color:#008200;stop-opacity:1.0000000;"
         offset="0.0000000"
         id="stop3198" />
      <stop
         style="stop-color:#00d000;stop-opacity:1.0000000;"
         offset="1.0000000"
         id="stop3200" />
    </linearGradient>
    <linearGradient
       id="linearGradient4408">
      <stop
         style="stop-color:#ff44ab;stop-opacity:1.0000000;"
         offset="0.0000000"
         id="stop4410" />
      <stop
         style="stop-color:#ff66cc;stop-opacity:1.0000000;"
         offset="1.0000000"
         id="stop4412" />
    </linearGradient>
    <linearGradient
       y2="415.53949"
       x2="449.32318"
       y1="540.53918"
       x1="298.98572"
       gradientTransform="matrix(0.144857,0.000000,0.000000,0.144857,167.4456,227.3766)"
       gradientUnits="userSpaceOnUse"
       id="linearGradient5712"
       xlink:href="#linearGradient3196"
       inkscape:collect="always" />
    <linearGradient
       y2="122.95744"
       x2="175.18570"
       y1="124.59262"
       x1="169.79402"
       gradientTransform="translate(42.51645,174.5465)"
       gradientUnits="userSpaceOnUse"
       id="linearGradient5714"
       xlink:href="#linearGradient3865"
       inkscape:collect="always" />
    <linearGradient
       y2="123.97391"
       x2="173.85988"
       y1="124.37165"
       x1="171.07565"
       gradientTransform="translate(42.51645,174.5465)"
       gradientUnits="userSpaceOnUse"
       id="linearGradient5716"
       xlink:href="#linearGradient5407"
       inkscape:collect="always" />
    <linearGradient
       y2="111.38054"
       x2="196.72330"
       y1="111.38054"
       x1="154.61981"
       gradientTransform="translate(42.20736,173.3211)"
       gradientUnits="userSpaceOnUse"
       id="linearGradient5718"
       xlink:href="#linearGradient3865"
       inkscape:collect="always" />
    <linearGradient
       y2="256.17966"
       x2="484.79608"
       y1="437.49887"
       x1="356.44232"
       gradientTransform="matrix(0.186825,0.000000,0.000000,0.144857,144.5143,214.0766)"
       gradientUnits="userSpaceOnUse"
       id="linearGradient5720"
       xlink:href="#linearGradient3857"
       inkscape:collect="always" />
    <linearGradient
       y2="310.92441"
       x2="319.80237"
       y1="336.44974"
       x1="298.10107"
       gradientTransform="matrix(0.144857,0.000000,0.000000,0.144857,167.3072,227.4099)"
       gradientUnits="userSpaceOnUse"
       id="linearGradient5722"
       xlink:href="#linearGradient6214"
       inkscape:collect="always" />
    <linearGradient
       y2="65.100365"
       x2="185.69273"
       y1="73.100365"
       x1="165.46875"
       gradientTransform="translate(42.20736,173.3211)"
       gradientUnits="userSpaceOnUse"
       id="linearGradient5724"
       xlink:href="#linearGradient3196"
       inkscape:collect="always" />
    <linearGradient
       y2="66.479034"
       x2="154.42813"
       y1="68.058495"
       x1="152.34610"
       gradientTransform="translate(51.82771,164.0597)"
       gradientUnits="userSpaceOnUse"
       id="linearGradient5726"
       xlink:href="#linearGradient5407"
       inkscape:collect="always" />
    <linearGradient
       y2="66.479034"
       x2="154.42813"
       y1="68.058495"
       x1="152.34610"
       gradientTransform="translate(42.20736,173.3211)"
       gradientUnits="userSpaceOnUse"
       id="linearGradient5728"
       xlink:href="#linearGradient5407"
       inkscape:collect="always" />
    <linearGradient
       y2="66.479034"
       x2="154.42813"
       y1="68.058495"
       x1="152.34610"
       gradientTransform="translate(87.22198,169.4442)"
       gradientUnits="userSpaceOnUse"
       id="linearGradient5730"
       xlink:href="#linearGradient5407"
       inkscape:collect="always" />
    <linearGradient
       y2="76.889107"
       x2="182.72025"
       y1="79.186508"
       x1="168.50224"
       gradientTransform="translate(42.20736,173.3211)"
       gradientUnits="userSpaceOnUse"
       id="linearGradient5732"
       xlink:href="#linearGradient5407"
       inkscape:collect="always" />
    <linearGradient
       y2="167.52060"
       x2="384.93365"
       y1="-108.12561"
       x1="625.70294"
       gradientTransform="matrix(0.144857,0.000000,0.000000,0.144857,167.4507,227.3775)"
       gradientUnits="userSpaceOnUse"
       id="linearGradient5734"
       xlink:href="#linearGradient2580"
       inkscape:collect="always" />
  </defs>
  <g
     id="layer1"
     inkscape:groupmode="layer"
     inkscape:label="Layer 1">
    <g
       id="g5630">
      <path
         id="rect1306"
         d="M 18.000000,1.9999995 L 121.00000,1.9999995 C 129.86400,1.9999995 137.00000,9.1359995 137.00000,18.000000 L 137.00000,171.00000 C 137.00000,179.86400 129.86400,187.00000 121.00000,187.00000 L 18.000000,187.00000 C 9.1360000,187.00000 2.0000000,179.86400 2.0000000,171.00000 L 2.0000000,18.000000 C 2.0000000,9.1359995 9.1360000,1.9999995 18.000000,1.9999995 z "
         style="fill:#ffffff;fill-opacity:1.0000000;stroke:black;stroke-width:0.70000000;stroke-miterlimit:4.0000000;stroke-dashoffset:0.0000000;stroke-opacity:1.0000000" />
    </g>
    <g
       inkscape:label="Layer 1"
       inkscape:groupmode="layer"
       id="g5495"
       transform="translate(-448.5000,-231.5000)" />
  </g>
  <g
     transform="matrix(0.286429,0.000000,0.000000,0.388772,-29.61360,-4.469200)"
     style="fill:#ff0000;fill-opacity:1.0000000"
     id="g1390" />
  <path
     d="M 19.173147,12.281247 L 22.105707,12.281247 L 22.105707,22.549017 C 22.105703,23.965786 21.719773,25.024554 20.947917,25.725323 C 20.181132,26.426088 19.018265,26.776471 17.459312,26.776475 L 16.865183,26.776475 L 16.865183,24.559916 L 17.322206,24.559916 C 17.931569,24.559915 18.391130,24.389801 18.700890,24.049574 C 19.015726,23.709346 19.173145,23.209161 19.173147,22.549017 L 19.173147,12.281247 M 20.635618,29.800439 C 19.741880,29.800448 19.048730,30.130519 18.556166,30.790654 C 18.063594,31.450805 17.817310,32.380083 17.817313,33.578490 C 17.817310,34.771831 18.063594,35.698570 18.556166,36.358710 C 19.048730,37.018856 19.741880,37.348927 20.635618,37.348925 C 21.534421,37.348927 22.230110,37.018856 22.722687,36.358710 C 23.215247,35.698570 23.461531,34.771831 23.461540,33.578490 C 23.461531,32.380083 23.215247,31.450805 22.722687,30.790654 C 22.230110,30.130519 21.534421,29.800448 20.635618,29.800439 M 20.635618,27.675284 C 22.463699,27.675296 23.895701,28.198332 24.931629,29.244395 C 25.967534,30.290477 26.485493,31.735174 26.485505,33.578490 C 26.485493,35.416740 25.967534,36.858898 24.931629,37.904969 C 23.895701,38.951043 22.463699,39.474079 20.635618,39.474079 C 18.812602,39.474079 17.380600,38.951043 16.339608,37.904969 C 15.303689,36.858898 14.785731,35.416740 14.785731,33.578490 C 14.785731,31.735174 15.303689,30.290477 16.339608,29.244395 C 17.380600,28.198332 18.812602,27.675296 20.635618,27.675284 M 16.019692,43.480642 L 18.952252,43.480642 L 18.952252,47.631928 L 23.179710,43.480642 L 26.584527,43.480642 L 21.107875,48.865889 L 27.148187,54.852882 L 23.476774,54.852882 L 18.952252,50.374063 L 18.952252,54.852882 L 16.019692,54.852882 L 16.019692,43.480642 M 16.735694,59.080335 L 24.649798,59.080335 L 24.649798,61.296894 L 19.668254,61.296894 L 19.668254,63.414431 L 24.352734,63.414431 L 24.352734,65.630989 L 19.668254,65.630989 L 19.668254,68.236017 L 24.817373,68.236017 L 24.817373,70.452576 L 16.735694,70.452576 L 16.735694,59.080335 M 20.231915,79.722516 C 20.846350,79.722523 21.285599,79.608267 21.549663,79.379750 C 21.818791,79.151245 21.953359,78.775472 21.953366,78.252428 C 21.953359,77.734477 21.818791,77.363782 21.549663,77.140340 C 21.285599,76.916916 20.846350,76.805199 20.231915,76.805190 L 18.997955,76.805190 L 18.997955,79.722516 L 20.231915,79.722516 M 18.997955,81.748649 L 18.997955,86.052277 L 16.065394,86.052277 L 16.065394,74.680036 L 20.544214,74.680036 C 22.042224,74.680047 23.139077,74.931409 23.834775,75.434123 C 24.535533,75.936858 24.885916,76.731568 24.885927,77.818256 C 24.885916,78.569812 24.703108,79.186791 24.337500,79.669197 C 23.976950,80.151615 23.431063,80.507077 22.699836,80.735583 C 23.100992,80.826992 23.458992,81.035191 23.773839,81.360180 C 24.093745,81.680100 24.416199,82.167590 24.741203,82.822652 L 26.333164,86.052277 L 23.210178,86.052277 L 21.823876,83.226355 C 21.544578,82.657619 21.260209,82.269150 20.970768,82.060948 C 20.686392,81.852753 20.305541,81.748653 19.828212,81.748649 L 18.997955,81.748649"
     transform="scale(1.023957,0.976603)"
     style="writing-mode:lr-tb;text-anchor:middle;font-family:Bitstream Vera Sans;stroke-opacity:1.0000000;stroke-linejoin:miter;stroke-linecap:butt;stroke-width:1.0000000px;stroke:none;fill-opacity:1.0000000;fill:#ff0000;font-stretch:normal;font-weight:bold;font-variant:normal;font-style:normal;font-size:15.599698"
     id="text1386" />
  <g
     transform="matrix(-0.286429,0.000000,0.000000,-0.388772,168.4791,193.4692)"
     style="fill:#ff0000;fill-opacity:1.0000000"
     id="g1406" />
  <path
     d="M -116.44335,-181.24668 L -113.51079,-181.24668 L -113.51079,-170.97891 C -113.51080,-169.56214 -113.89673,-168.50337 -114.66858,-167.80260 C -115.43537,-167.10184 -116.59823,-166.75145 -118.15719,-166.75145 L -118.75132,-166.75145 L -118.75132,-168.96801 L -118.29429,-168.96801 C -117.68493,-168.96801 -117.22537,-169.13812 -116.91561,-169.47835 C -116.60077,-169.81858 -116.44335,-170.31876 -116.44335,-170.97891 L -116.44335,-181.24668 M -114.98088,-163.72748 C -115.87462,-163.72747 -116.56777,-163.39740 -117.06033,-162.73727 C -117.55291,-162.07711 -117.79919,-161.14784 -117.79919,-159.94943 C -117.79919,-158.75609 -117.55291,-157.82935 -117.06033,-157.16921 C -116.56777,-156.50906 -115.87462,-156.17899 -114.98088,-156.17899 C -114.08208,-156.17899 -113.38639,-156.50906 -112.89381,-157.16921 C -112.40125,-157.82935 -112.15497,-158.75609 -112.15496,-159.94943 C -112.15497,-161.14784 -112.40125,-162.07711 -112.89381,-162.73727 C -113.38639,-163.39740 -114.08208,-163.72747 -114.98088,-163.72748 M -114.98088,-165.85264 C -113.15280,-165.85262 -111.72080,-165.32959 -110.68487,-164.28353 C -109.64896,-163.23744 -109.13101,-161.79275 -109.13099,-159.94943 C -109.13101,-158.11118 -109.64896,-156.66902 -110.68487,-155.62295 C -111.72080,-154.57688 -113.15280,-154.05384 -114.98088,-154.05384 C -116.80390,-154.05384 -118.23590,-154.57688 -119.27689,-155.62295 C -120.31281,-156.66902 -120.83077,-158.11118 -120.83077,-159.94943 C -120.83077,-161.79275 -120.31281,-163.23744 -119.27689,-164.28353 C -118.23590,-165.32959 -116.80390,-165.85262 -114.98088,-165.85264 M -119.59681,-150.04729 L -116.66425,-150.04729 L -116.66425,-145.89600 L -112.43679,-150.04729 L -109.03197,-150.04729 L -114.50862,-144.66204 L -108.46831,-138.67505 L -112.13972,-138.67505 L -116.66425,-143.15387 L -116.66425,-138.67505 L -119.59681,-138.67505 L -119.59681,-150.04729 M -118.88081,-134.44759 L -110.96670,-134.44759 L -110.96670,-132.23103 L -115.94824,-132.23103 L -115.94824,-130.11349 L -111.26377,-130.11349 L -111.26377,-127.89693 L -115.94824,-127.89693 L -115.94824,-125.29191 L -110.79913,-125.29191 L -110.79913,-123.07535 L -118.88081,-123.07535 L -118.88081,-134.44759 M -115.38458,-113.80541 C -114.77015,-113.80540 -114.33090,-113.91966 -114.06684,-114.14817 C -113.79771,-114.37668 -113.66314,-114.75245 -113.66313,-115.27550 C -113.66314,-115.79345 -113.79771,-116.16414 -114.06684,-116.38758 C -114.33090,-116.61101 -114.77015,-116.72272 -115.38458,-116.72273 L -116.61854,-116.72273 L -116.61854,-113.80541 L -115.38458,-113.80541 M -116.61854,-111.77927 L -116.61854,-107.47565 L -119.55110,-107.47565 L -119.55110,-118.84789 L -115.07229,-118.84789 C -113.57427,-118.84788 -112.47742,-118.59651 -111.78172,-118.09380 C -111.08097,-117.59107 -110.73058,-116.79636 -110.73057,-115.70967 C -110.73058,-114.95811 -110.91339,-114.34113 -111.27900,-113.85873 C -111.63955,-113.37631 -112.18544,-113.02085 -112.91666,-112.79234 C -112.51551,-112.70093 -112.15751,-112.49273 -111.84266,-112.16774 C -111.52275,-111.84782 -111.20030,-111.36033 -110.87530,-110.70527 L -109.28333,-107.47565 L -112.40632,-107.47565 L -113.79262,-110.30157 C -114.07192,-110.87030 -114.35629,-111.25877 -114.64573,-111.46698 C -114.93011,-111.67517 -115.31096,-111.77927 -115.78829,-111.77927 L -116.61854,-111.77927"
     transform="scale(-1.023957,-0.976603)"
     style="writing-mode:lr-tb;text-anchor:middle;font-family:Bitstream Vera Sans;stroke-opacity:1.0000000;stroke-linejoin:miter;stroke-linecap:butt;stroke-width:1.0000000px;stroke:none;fill-opacity:1.0000000;fill:#ff0000;font-stretch:normal;font-weight:bold;font-variant:normal;font-style:normal;font-size:15.599698"
     id="text1408" />
  <g
     transform="matrix(0.999895,0.000000,0.000000,1.000000,-149.0774,-176.9670)"
     id="g2715">
    <path
       sodipodi:nodetypes="cccccccccccccccccccccccc"
       id="path1619"
       d="M 212.11361,221.60238 C 207.23337,222.09293 205.43061,227.49897 201.70736,229.22738 C 201.85279,231.90420 196.39629,233.49526 195.26986,236.60238 C 188.72736,236.88928 191.88144,247.12276 197.30111,243.60238 C 198.87275,238.50401 205.11727,237.95264 202.45736,244.78988 C 199.63233,255.17425 198.03831,267.71344 205.40944,277.00675 C 202.07134,276.82849 185.79294,275.92847 193.90045,279.61579 C 198.31941,282.30535 212.26828,281.13525 202.76001,286.26917 C 198.94426,288.92535 188.40574,298.60665 198.17611,294.57113 C 197.74447,300.26942 198.10773,306.90989 197.98861,312.94613 C 208.81395,317.75918 220.55806,317.29009 231.92611,316.38363 C 234.75299,314.20607 244.21729,315.63575 242.61361,309.53988 C 242.32987,303.15654 243.59251,295.08749 241.01986,289.78988 C 252.32801,291.29488 241.66609,286.20652 236.54830,283.68206 C 228.88332,281.01556 241.94348,276.92681 243.79824,272.67608 C 249.14189,267.03259 231.15714,276.69746 234.21847,271.98866 C 238.80625,263.42011 234.47853,254.03080 234.90778,245.10238 C 235.27122,242.56730 230.99675,230.97759 237.11902,235.71093 C 235.73869,242.28922 246.91428,240.04947 243.39486,234.60238 C 237.81666,234.69996 235.37684,224.88035 228.76986,225.88363 C 223.94405,228.75436 223.04773,233.10943 220.86361,225.57113 C 218.78829,222.92685 215.55704,221.04850 212.11361,221.60238 z M 212.01986,230.50863 C 217.91547,238.12594 203.36099,228.29557 212.01986,230.50863 z "
       style="fill:#000000;fill-opacity:1.0000000;stroke:none;stroke-width:2.0000000;stroke-miterlimit:4.0000000;stroke-dashoffset:0.0000000;stroke-opacity:1.0000000" />
    <path
       style="fill:url(#linearGradient5712);fill-opacity:1.0000000;stroke:none;stroke-width:2.0000000;stroke-miterlimit:4.0000000;stroke-dashoffset:0.0000000;stroke-opacity:1.0000000"
       d="M 212.71347,283.89810 C 205.66441,283.89810 199.98865,289.57386 199.98865,296.62291 L 199.98865,311.55227 C 209.36854,316.20140 229.51483,316.44609 240.60756,311.55227 L 240.60756,296.62291 C 240.60756,289.57386 234.93180,283.89810 227.88274,283.89810 L 212.71347,283.89810 z "
       id="path1623"
       sodipodi:nodetypes="ccccccc" />
    <path
       style="fill:url(#linearGradient5714);fill-opacity:1.0000000;fill-rule:evenodd;stroke:none;stroke-width:1.0000000px;stroke-linecap:butt;stroke-linejoin:miter;stroke-opacity:1.0000000"
       d="M 215.96281,283.85279 L 209.57914,293.67553 L 214.15892,301.22213 L 208.37339,310.28802 L 210.64952,314.48395 C 213.19544,314.88262 215.60879,315.06032 218.02213,315.01705 L 220.83276,310.82391 L 215.48084,301.17655 L 220.29687,292.73773 L 215.96281,283.85279 z "
       id="path1625"
       sodipodi:nodetypes="cccccccccc" />
    <path
       sodipodi:nodetypes="cccccccccc"
       id="path1627"
       d="M 215.96281,283.85279 L 212.71693,294.11747 L 214.55667,301.31052 L 210.62729,310.37641 L 212.32890,314.66073 C 213.90255,314.88262 215.29943,314.92774 216.12178,314.92866 L 217.82756,310.91230 L 214.90632,301.26494 L 216.89392,293.75420 L 215.96281,283.85279 z "
       style="fill:url(#linearGradient5716);fill-opacity:1.0000000;fill-rule:evenodd;stroke:none;stroke-width:1.0000000px;stroke-linecap:butt;stroke-linejoin:miter;stroke-opacity:1.0000000" />
    <path
       style="fill:url(#linearGradient5718);fill-opacity:1.0000000;fill-rule:evenodd;stroke:none;stroke-width:1.0000000px;stroke-linecap:butt;stroke-linejoin:miter;stroke-opacity:1.0000000"
       d="M 208.84662,278.75789 L 195.88724,278.49609 L 209.23933,282.55408 L 197.32717,292.76449 L 216.17717,283.99400 L 230.44558,298.26241 C 230.44558,298.26241 222.32961,285.04123 223.11502,285.82665 C 223.90044,286.61206 241.17961,287.79019 241.17961,287.79019 L 230.70738,282.29227 C 230.70738,282.29227 241.17961,272.99817 240.65600,273.52178 C 240.13239,274.04539 221.67509,279.41241 221.67509,279.41241 L 208.84662,278.75789 z "
       id="path1629"
       sodipodi:nodetypes="cccccccccccc" />
    <path
       style="fill:url(#linearGradient5720);fill-opacity:1.0000000;stroke:none;stroke-width:2.0000000;stroke-miterlimit:4.0000000;stroke-dashoffset:0.0000000;stroke-opacity:1.0000000"
       d="M 235.08626,261.42415 C 235.08626,272.83748 227.52239,282.10048 218.20262,282.10048 C 208.88286,282.10048 201.31899,272.83748 201.31899,261.42415 C 201.31899,250.01082 208.88286,240.74782 218.20262,240.74782 C 227.52239,240.74782 235.08626,250.01082 235.08626,261.42415 z "
       id="path1631" />
    <g
       id="g1633"
       transform="matrix(0.144857,0.000000,0.000000,9.790296e-2,167.1088,238.1400)">
      <path
         transform="translate(-4.000000,-6.000000)"
         style="fill:#ffffff;fill-opacity:1.0000000;stroke:none;stroke-width:2.0000000;stroke-miterlimit:4.0000000;stroke-dashoffset:0.0000000;stroke-opacity:1.0000000"
         d="M 353.00000,245.86218 C 353.00000,257.73018 343.59200,267.36218 332.00000,267.36218 C 320.40800,267.36218 311.00000,257.73018 311.00000,245.86218 C 311.00000,233.99418 320.40800,224.36218 332.00000,224.36218 C 343.59200,224.36218 353.00000,233.99418 353.00000,245.86218 z "
         id="path1635" />
      <path
         transform="matrix(0.571429,0.000000,0.000000,0.837210,129.2857,34.52408)"
         style="fill:#04cd04;fill-opacity:1.0000000;stroke:none;stroke-width:2.0000000;stroke-miterlimit:4.0000000;stroke-dashoffset:0.0000000;stroke-opacity:1.0000000"
         d="M 353.00000,245.86218 C 353.00000,257.73018 343.59200,267.36218 332.00000,267.36218 C 320.40800,267.36218 311.00000,257.73018 311.00000,245.86218 C 311.00000,233.99418 320.40800,224.36218 332.00000,224.36218 C 343.59200,224.36218 353.00000,233.99418 353.00000,245.86218 z "
         id="path1637" />
      <path
         transform="matrix(0.357143,0.000000,0.000000,0.674419,195.9286,76.04816)"
         style="fill:#000000;fill-opacity:1.0000000;stroke:none;stroke-width:2.0000000;stroke-miterlimit:4.0000000;stroke-dashoffset:0.0000000;stroke-opacity:1.0000000"
         d="M 353.00000,245.86218 C 353.00000,257.73018 343.59200,267.36218 332.00000,267.36218 C 320.40800,267.36218 311.00000,257.73018 311.00000,245.86218 C 311.00000,233.99418 320.40800,224.36218 332.00000,224.36218 C 343.59200,224.36218 353.00000,233.99418 353.00000,245.86218 z "
         id="path1639" />
    </g>
    <g
       id="g1641"
       transform="matrix(0.144857,0.000000,0.000000,9.790296e-2,157.0203,237.7991)">
      <path
         transform="translate(-4.000000,-6.000000)"
         style="fill:#ffffff;fill-opacity:1.0000000;stroke:none;stroke-width:2.0000000;stroke-miterlimit:4.0000000;stroke-dashoffset:0.0000000;stroke-opacity:1.0000000"
         d="M 353.00000,245.86218 C 353.00000,257.73018 343.59200,267.36218 332.00000,267.36218 C 320.40800,267.36218 311.00000,257.73018 311.00000,245.86218 C 311.00000,233.99418 320.40800,224.36218 332.00000,224.36218 C 343.59200,224.36218 353.00000,233.99418 353.00000,245.86218 z "
         id="path1643" />
      <path
         transform="matrix(0.571429,0.000000,0.000000,0.837210,129.2857,34.52408)"
         style="fill:#04cd04;fill-opacity:1.0000000;stroke:none;stroke-width:2.0000000;stroke-miterlimit:4.0000000;stroke-dashoffset:0.0000000;stroke-opacity:1.0000000"
         d="M 353.00000,245.86218 C 353.00000,257.73018 343.59200,267.36218 332.00000,267.36218 C 320.40800,267.36218 311.00000,257.73018 311.00000,245.86218 C 311.00000,233.99418 320.40800,224.36218 332.00000,224.36218 C 343.59200,224.36218 353.00000,233.99418 353.00000,245.86218 z "
         id="path1645" />
      <path
         transform="matrix(0.357143,0.000000,0.000000,0.674419,195.9286,76.04816)"
         style="fill:#000000;fill-opacity:1.0000000;stroke:none;stroke-width:2.0000000;stroke-miterlimit:4.0000000;stroke-dashoffset:0.0000000;stroke-opacity:1.0000000"
         d="M 353.00000,245.86218 C 353.00000,257.73018 343.59200,267.36218 332.00000,267.36218 C 320.40800,267.36218 311.00000,257.73018 311.00000,245.86218 C 311.00000,233.99418 320.40800,224.36218 332.00000,224.36218 C 343.59200,224.36218 353.00000,233.99418 353.00000,245.86218 z "
         id="path1647" />
    </g>
    <path
       style="fill:url(#linearGradient5722);fill-opacity:1.0000000;fill-rule:evenodd;stroke:none;stroke-width:1.0000000px;stroke-linecap:butt;stroke-linejoin:miter;stroke-opacity:1.0000000"
       d="M 206.44903,272.26805 C 207.69403,278.34656 213.85278,276.61410 218.27838,271.65886 C 213.42132,271.76857 210.10371,272.10335 206.44903,272.26805 z "
       id="path1651"
       sodipodi:nodetypes="ccc" />
    <path
       style="fill:#005a00;fill-opacity:1.0000000;stroke:none;stroke-width:2.0000000;stroke-miterlimit:4.0000000;stroke-dashoffset:0.0000000;stroke-opacity:1.0000000"
       d="M 226.94498,299.91118 L 228.20857,300.03444 L 229.57993,314.54720 L 226.11474,314.79760 L 226.94498,299.91118 z "
       id="path1653"
       sodipodi:nodetypes="ccccc" />
    <path
       sodipodi:nodetypes="ccccccc"
       id="path1655"
       d="M 208.77052,263.27002 C 207.97862,264.55685 204.43964,265.45406 204.60390,266.42650 C 204.76817,267.39894 208.18537,268.15352 208.97533,268.71413 L 209.30618,268.23624 C 208.61149,267.74323 205.79722,267.26367 205.66216,266.46412 C 205.52711,265.66456 208.83076,264.61534 209.57139,263.41180 L 208.77052,263.27002 z "
       style="fill:#000000;fill-opacity:1.0000000;fill-rule:evenodd;stroke:none;stroke-width:1.0000000px;stroke-linecap:butt;stroke-linejoin:miter;stroke-opacity:1.0000000" />
    <path
       sodipodi:nodetypes="ccccccccccccc"
       id="path1657"
       d="M 212.64486,223.53985 C 209.76035,223.85156 206.98329,226.15242 205.39486,230.35235 C 217.38440,221.95249 215.14486,239.03985 215.14486,239.03985 C 214.99351,238.96747 214.64890,238.97585 214.61361,238.85235 C 214.23468,237.52610 203.10964,223.06894 195.67611,240.16485 C 205.70740,232.53306 205.73212,239.83098 204.42611,245.22735 C 203.86232,248.47952 202.83236,252.47735 202.83236,252.47735 C 213.24995,250.26632 223.24724,251.42864 233.58236,253.25860 C 233.58236,253.25860 233.62804,249.12263 233.44809,247.97271 C 234.20595,241.53092 226.26456,229.30040 239.90010,235.58471 C 225.23826,215.59682 223.14682,239.79771 222.95736,239.03985 C 222.95519,239.03116 222.89901,239.04785 222.89486,239.03985 C 222.45180,227.99750 217.40738,223.02519 212.64486,223.53985 z "
       style="fill:url(#linearGradient5724);fill-opacity:1.0000000;fill-rule:evenodd;stroke:none;stroke-width:1.0000000px;stroke-linecap:butt;stroke-linejoin:miter;stroke-opacity:1.0000000" />
    <path
       id="path1659"
       d="M 206.68660,231.25669 C 206.68660,232.22762 205.86643,233.01563 204.85586,233.01563 C 203.84530,233.01563 203.02512,232.22762 203.02512,231.25669 C 203.02512,230.28575 203.84530,229.49774 204.85586,229.49774 C 205.86643,229.49774 206.68660,230.28575 206.68660,231.25669 z "
       style="fill:url(#linearGradient5726);fill-opacity:1.0000000;stroke:none;stroke-width:2.0000000;stroke-miterlimit:4.0000000;stroke-dashoffset:0.0000000;stroke-opacity:1.0000000" />
    <path
       style="fill:#ffffff;fill-opacity:1.0000000;fill-rule:evenodd;stroke:none;stroke-width:1.0000000px;stroke-linecap:butt;stroke-linejoin:miter;stroke-opacity:1.0000000"
       d="M 207.52565,272.64303 C 208.77065,277.35086 213.10183,274.85692 216.66442,272.18614 C 211.80736,272.29585 211.18033,272.47833 207.52565,272.64303 z "
       id="path1661"
       sodipodi:nodetypes="ccc" />
    <path
       style="fill:url(#linearGradient5728);fill-opacity:1.0000000;stroke:none;stroke-width:2.0000000;stroke-miterlimit:4.0000000;stroke-dashoffset:0.0000000;stroke-opacity:1.0000000"
       d="M 197.06625,240.51807 C 197.06625,241.48901 196.24608,242.27701 195.23551,242.27701 C 194.22495,242.27701 193.40477,241.48901 193.40477,240.51807 C 193.40477,239.54713 194.22495,238.75912 195.23551,238.75912 C 196.24608,238.75912 197.06625,239.54713 197.06625,240.51807 z "
       id="path1663" />
    <path
       style="fill:url(#linearGradient5730);fill-opacity:1.0000000;stroke:none;stroke-width:2.0000000;stroke-miterlimit:4.0000000;stroke-dashoffset:0.0000000;stroke-opacity:1.0000000"
       d="M 242.08087,236.64121 C 242.08087,237.61215 241.26070,238.40016 240.25013,238.40016 C 239.23957,238.40016 238.41939,237.61215 238.41939,236.64121 C 238.41939,235.67028 239.23957,234.88227 240.25013,234.88227 C 241.26070,234.88227 242.08087,235.67028 242.08087,236.64121 z "
       id="path1665" />
    <path
       sodipodi:nodetypes="ccccc"
       id="path1667"
       d="M 229.80184,265.76535 C 235.61768,267.02398 235.02863,256.89857 229.54966,260.55807 L 230.01114,260.63741 C 233.85417,258.45099 234.85214,265.92959 228.95360,265.86040 L 229.80184,265.76535 z "
       style="fill:#000000;fill-opacity:1.0000000;fill-rule:evenodd;stroke:none;stroke-width:1.0000000px;stroke-linecap:butt;stroke-linejoin:miter;stroke-opacity:1.0000000" />
    <path
       style="fill:#000000;fill-opacity:1.0000000;fill-rule:evenodd;stroke:none;stroke-width:1.0000000px;stroke-linecap:butt;stroke-linejoin:miter;stroke-opacity:1.0000000"
       d="M 230.24281,264.72276 C 233.56119,265.44090 233.22509,259.66359 230.09892,261.75161 L 230.26750,261.74952 C 232.46024,260.50200 233.12439,264.81647 229.75883,264.77699 L 230.24281,264.72276 z "
       id="path1669"
       sodipodi:nodetypes="ccccc" />
    <path
       style="fill:url(#linearGradient5732);fill-opacity:1.0000000;fill-rule:evenodd;stroke:none;stroke-width:1.0000000px;stroke-linecap:butt;stroke-linejoin:miter;stroke-opacity:1.0000000"
       d="M 202.73796,252.97427 L 203.38410,250.46149 C 213.74631,249.38458 224.53929,249.52817 233.39384,251.32301 C 233.68102,251.96915 233.68101,253.40503 233.68101,253.40503 C 223.51025,251.75377 213.26769,251.68198 202.73796,252.97427 z "
       id="path1671"
       sodipodi:nodetypes="ccccc" />
    <path
       id="path1673"
       d="M 212.65000,223.54076 C 209.90455,223.83745 207.29979,225.99904 205.68125,229.82201 C 205.41953,229.68335 205.18856,229.50951 204.86875,229.50951 C 203.85819,229.50951 203.02500,230.28857 203.02500,231.25951 C 203.02500,231.62470 203.23270,231.91577 203.43125,232.19701 C 200.98425,232.64456 198.48090,234.58655 196.24375,239.16576 C 195.94529,238.96281 195.63695,238.75951 195.24375,238.75951 C 194.23319,238.75951 193.40001,239.53857 193.40000,240.50951 C 193.40000,241.48045 194.23319,242.29076 195.24375,242.29076 C 196.25432,242.29076 197.05625,241.48045 197.05625,240.50951 C 197.05625,240.12140 196.84062,239.83176 196.61875,239.54076 C 205.61980,233.18112 205.69092,240.02335 204.43125,245.22826 C 203.86746,248.48043 202.83750,252.47826 202.83750,252.47826 C 202.84780,252.47607 202.85845,252.48044 202.86875,252.47826 L 202.74375,252.97826 C 202.77495,252.97443 202.80630,252.98206 202.83750,252.97826 C 201.88677,255.56444 201.33750,258.39717 201.33750,261.41576 C 201.33750,268.69966 204.43579,275.07601 209.08750,278.75951 L 208.83750,278.75951 L 195.90000,278.50951 L 209.24375,282.54076 L 197.33750,292.75951 L 201.58750,290.79076 C 200.65886,292.55930 199.99375,294.49104 199.99375,296.63451 L 199.99375,311.54076 C 202.73511,312.89951 206.50168,313.76525 210.58750,314.35326 L 210.65000,314.47826 C 211.22190,314.56781 211.74623,314.53601 212.30625,314.60326 L 212.33750,314.66576 C 213.91115,314.88765 215.29640,314.91484 216.11875,314.91576 L 216.15000,314.88451 C 216.76550,314.90206 217.41167,315.02051 218.02500,315.00951 C 220.75759,315.08467 223.39921,314.87442 226.11875,314.63451 L 226.11875,314.79076 L 229.58750,314.54076 L 229.55625,314.35326 C 233.64412,313.77249 237.51453,312.91026 240.61875,311.54076 L 240.61875,296.63451 C 240.61875,293.00375 239.07361,289.76119 236.65000,287.44701 C 238.39028,287.57850 241.18125,287.79076 241.18125,287.79076 L 230.71250,282.29076 C 230.71250,282.29076 241.17361,272.98590 240.65000,273.50951 C 240.33096,273.82855 234.33430,275.65387 228.93125,277.25951 C 232.66173,273.46589 235.08750,267.81358 235.08750,261.41576 C 235.08750,258.42296 234.55420,255.60961 233.61875,253.04076 C 233.61710,252.96168 233.59404,252.79786 233.58750,252.66576 C 233.59357,251.92056 233.62223,248.99897 233.46250,247.97826 C 234.20386,241.67675 226.74790,229.92087 239.18125,235.29076 C 238.74409,235.61230 238.43125,236.06508 238.43125,236.63451 C 238.43125,237.60545 239.23319,238.41576 240.24375,238.41576 C 241.25432,238.41576 242.08751,237.60545 242.08750,236.63451 C 242.08750,235.66357 241.25432,234.88451 240.24375,234.88451 C 239.96020,234.88451 239.76466,235.05505 239.52500,235.16576 C 225.23101,216.17416 223.15019,239.79155 222.96250,239.04076 C 222.96033,239.03206 222.90415,239.04877 222.90000,239.04076 C 222.45694,227.99841 217.41252,223.02610 212.65000,223.54076 z M 211.99375,228.16576 C 216.42197,229.42789 215.15000,239.04076 215.15000,239.04076 C 214.99865,238.96837 214.65404,238.97676 214.61875,238.85326 C 214.40484,238.10457 210.74069,233.30743 206.27500,232.22826 C 206.48389,231.94249 206.68125,231.63498 206.68125,231.25951 C 206.68125,230.74948 206.44885,230.29963 206.08750,229.97826 C 208.67362,228.32094 210.64976,227.78270 211.99375,228.16576 z "
       style="fill:url(#linearGradient5734);fill-opacity:1.0000000;stroke:none;stroke-width:2.0000000;stroke-miterlimit:4.0000000;stroke-dashoffset:0.0000000;stroke-opacity:1.0000000" />
  </g>

  

  <metadata>
    <rdf:RDF 
     xmlns="http://web.resource.org/cc/"
     xmlns:dc="http://purl.org/dc/elements/1.1/"
     xmlns:rdf="http://www.w3.org/1999/02/22-rdf-syntax-ns#">
      <Work rdf:about="">
        <dc:title>card</dc:title>
        <dc:description></dc:description>
        <dc:subject>
          <rdf:Bag>
            <rdf:li>white</rdf:li>
            <rdf:li>card</rdf:li>
          </rdf:Bag>
        </dc:subject>
        <dc:publisher>
           <Agent>
             <dc:title></dc:title>
           </Agent>
         </dc:publisher>
         <dc:creator>
           <Agent>
             <dc:title>Nicu Buculei</dc:title>
           </Agent>
        </dc:creator>
         <dc:rights>
           <Agent>
             <dc:title>Nicu Buculei</dc:title>
           </Agent>
        </dc:rights>
        <dc:date></dc:date>
        <dc:format>image/svg+xml</dc:format>
        <dc:type rdf:resource="http://purl.org/dc/dcmitype/StillImage" />
        <license rdf:resource="http://web.resource.org/cc/PublicDomain" />
        <dc:language>en</dc:language>
      </Work>

      <License rdf:about="http://web.resource.org/cc/PublicDomain">
         <permits rdf:resource="http://web.resource.org/cc/Reproduction" />
         <permits rdf:resource="http://web.resource.org/cc/Distribution" />
         <permits rdf:resource="http://web.resource.org/cc/DerivativeWorks" />
      </License>

    </rdf:RDF>
  </metadata>
</svg>
